<svg width="18" height="12" viewBox="0 0 18 12" fill="none" xmlns="http://www.w3.org/2000/svg">
    <path d="M16.0792 2.54655H15.1283L15.5208 1.63953L15.883 0.792969H14.9623H12.3057H11.3849H10.4491H9.5283H6.43396L7.97358 4.40595L6.66038 7.47472L4.81887 3.3931L3.6566 0.792969H2.73585L6.67547 9.57599L8.44151 5.47926L8.89434 4.40595L8.44151 3.33264L7.71698 1.63952H9.16604H10.0868H11.0226H11.9434H14.6L14.2075 2.54655H11.566H10.6453H9.69434H8.95471L9.33207 3.3931L9.83019 4.48153L9.37736 5.52461L8.92453 6.61304L7.15849 10.7702H6.17736L2.28302 1.63952L1.95094 0.792969H1L5.63396 11.6168H7.71698L9.37736 7.68635L11.0528 11.6168H13.1509L16.6377 3.3931L17 2.54655H16.0792ZM10.2528 3.3931H10.283H11.2038H13.8453L12.0943 7.47472L10.7509 4.48154L10.2679 3.42334L10.2528 3.3931ZM12.5924 10.7702H11.6113L9.84528 6.61304L10.2981 5.53973L12.1094 9.57599L14.766 3.3931H15.717L12.5924 10.7702Z" fill="#0170FE" fill-opacity="0.5"/>
    <path d="M6.38796 0.81257L7.91922 4.40591L6.65917 7.35045L4.86451 3.3727L4.86444 3.37254L3.70225 0.772564L3.68902 0.742969H3.6566H2.73585H2.65862L2.69023 0.813432L6.62985 9.59645L6.67638 9.70018L6.72139 9.59578L8.48743 5.49906L8.48758 5.4987L8.94041 4.42539L8.94861 4.40595L8.94041 4.38651L8.48758 3.3132L8.48748 3.31296L7.79276 1.68952H9.16604H10.0868H11.0226H11.9434H14.5239L14.1747 2.49655H11.566H10.6453H9.69434H8.95471H8.87768L8.90905 2.56691L9.2864 3.41346L9.28661 3.41391L9.77545 4.48207L9.33149 5.5047L9.33119 5.50541L8.87851 6.59349L8.87836 6.59383L7.12541 10.7202H6.21039L2.3293 1.62058L1.99749 0.77471L1.98504 0.742969H1.95094H1H0.924204L0.954035 0.812647L5.588 11.6365L5.60098 11.6668H5.63396H7.71698H7.75014L7.76304 11.6362L9.37757 7.81435L11.0068 11.6364L11.0198 11.6668H11.0528H13.1509H13.1841L13.197 11.6363L16.6837 3.41278L16.6838 3.41262L17.046 2.56622L17.0758 2.49655H17H16.0792H15.2044L15.5666 1.65938L15.5667 1.6592L15.929 0.81264L15.9588 0.742969H15.883H14.9623H12.3057H11.3849H10.4491H9.5283H6.43396H6.3583L6.38796 0.81257ZM10.3319 3.4431H11.2038H13.7694L12.0933 7.3503L10.7966 4.46106L10.7964 4.46077L10.3319 3.4431ZM10.2995 5.665L12.0638 9.59646L12.1104 9.70033L12.1554 9.59573L14.799 3.4431H15.6415L12.5593 10.7202H11.6444L9.89958 6.61298L10.2995 5.665Z" stroke="black" stroke-opacity="0.5" stroke-width="0.1"/>
</svg>
