<svg width="288" height="152" viewBox="0 0 288 152" fill="none" xmlns="http://www.w3.org/2000/svg">
    <path d="M182.162 10.3687H176.539L178.86 5.00559L181.002 0H175.557H159.849H154.405H148.871H143.427H125.13L134.234 21.3631L126.469 39.5084L115.581 15.3743L108.708 0H103.264L126.558 51.933L137.001 27.7095L139.678 21.3631L137.001 15.0168L132.717 5.00557H141.285H146.729H152.263H157.707H173.415L171.095 10.3687H155.476H150.031H144.409H140.035L142.267 15.3743L145.212 21.8101L142.534 27.9777L139.857 34.4134L129.414 58.9944H123.613L100.586 5.00557L98.6228 0H93L120.4 64H132.717L142.534 40.7598L152.441 64H164.847L185.464 15.3743L187.606 10.3687H182.162ZM147.711 15.3743H147.889H153.334H168.953L158.6 39.5084L150.656 21.8101L147.8 15.5531L147.711 15.3743ZM161.545 58.9944H155.743L145.301 34.4134L147.979 28.0671L158.689 51.933L174.397 15.3743H180.02L161.545 58.9944Z" fill="white"/>
    <path d="M4.92947 149.426C4.19358 149.426 3.52322 149.304 2.91837 149.062C2.31353 148.82 1.79437 148.466 1.3609 148.002C0.927431 147.538 0.592237 146.965 0.355347 146.283C0.118447 145.602 0 144.822 0 143.943C0 143.065 0.133571 142.285 0.400711 141.604C0.667851 140.922 1.02824 140.349 1.48187 139.885C1.9355 139.42 2.46473 139.067 3.06958 138.825C3.67442 138.583 4.31959 138.461 5.00508 138.461C5.43855 138.461 5.82918 138.492 6.17697 138.552C6.52476 138.613 6.82718 138.683 7.08424 138.764C7.3413 138.845 7.55048 138.926 7.71178 139.007C7.87307 139.087 7.98395 139.148 8.04443 139.188L7.62105 140.4C7.53032 140.339 7.39926 140.274 7.22789 140.203C7.05652 140.132 6.86247 140.062 6.64574 139.991C6.429 139.92 6.1921 139.862 5.93504 139.817C5.67798 139.771 5.41841 139.749 5.15631 139.749C4.60187 139.749 4.10287 139.845 3.65932 140.036C3.21577 140.228 2.83774 140.506 2.52524 140.869C2.21274 141.233 1.97332 141.674 1.80699 142.194C1.64066 142.714 1.55748 143.297 1.55748 143.943C1.55748 144.569 1.63058 145.14 1.77675 145.655C1.92292 146.17 2.14217 146.611 2.43451 146.98C2.72685 147.348 3.09228 147.634 3.53079 147.835C3.9693 148.037 4.4809 148.138 5.06558 148.138C5.74099 148.138 6.30047 148.068 6.74402 147.926C7.18757 147.785 7.52025 147.659 7.74202 147.548L8.12004 148.759C8.04947 148.81 7.92348 148.873 7.74202 148.949C7.56057 149.024 7.33375 149.097 7.06157 149.168C6.78939 149.239 6.47184 149.299 6.10893 149.35C5.74602 149.4 5.35288 149.426 4.92949 149.426H4.92947Z" fill="white"/>
    <path d="M21.2448 145.988C21.0432 146.452 20.834 146.889 20.6172 147.297C20.4005 147.706 20.1434 148.062 19.8461 148.365C19.5487 148.668 19.1908 148.905 18.7725 149.077C18.3541 149.249 17.8375 149.334 17.2225 149.334C17.1016 149.334 16.9756 149.327 16.8445 149.312C16.7135 149.296 16.5875 149.276 16.4665 149.251C16.3455 149.226 16.2397 149.198 16.149 149.168C16.0582 149.137 15.9927 149.107 15.9524 149.077L16.2094 147.835C16.3405 147.886 16.4993 147.936 16.6857 147.987C16.8722 148.037 17.0663 148.062 17.2679 148.062C17.5703 148.062 17.8349 148.024 18.0618 147.949C18.2886 147.873 18.4927 147.767 18.6742 147.631C18.8556 147.494 19.0169 147.328 19.1581 147.131C19.2992 146.934 19.4353 146.714 19.5663 146.472C19.1228 145.755 18.7044 145.041 18.3113 144.329C17.9181 143.618 17.5552 142.928 17.2225 142.262C16.8899 141.596 16.5875 140.962 16.3153 140.362C16.0431 139.761 15.8012 139.208 15.5895 138.703H17.2528C17.5855 139.582 18.0114 140.561 18.5305 141.641C19.0497 142.721 19.6268 143.852 20.2619 145.033C20.6651 144.115 21.0507 143.103 21.4187 141.997C21.7866 140.892 22.1319 139.794 22.4545 138.703H24.0422C23.8103 139.43 23.5785 140.114 23.3466 140.755C23.1147 141.396 22.8829 142.012 22.651 142.603C22.4192 143.193 22.1873 143.769 21.9555 144.329C21.7236 144.89 21.4867 145.442 21.2448 145.988V145.988Z" fill="white"/>
    <path d="M35.2324 149.289C35.0207 149.289 34.7913 149.284 34.5444 149.274C34.2974 149.264 34.0504 149.249 33.8034 149.228C33.5565 149.208 33.312 149.183 33.0701 149.153C32.8281 149.122 32.6063 149.082 32.4047 149.032V138.855C32.6063 138.804 32.8281 138.764 33.0701 138.734C33.312 138.703 33.5565 138.678 33.8034 138.658C34.0504 138.638 34.2949 138.623 34.5368 138.613C34.7787 138.603 35.0056 138.597 35.2173 138.597C35.8221 138.597 36.3891 138.643 36.9184 138.734C37.4476 138.825 37.9063 138.979 38.2944 139.196C38.6825 139.413 38.9874 139.698 39.2092 140.051C39.431 140.405 39.5419 140.839 39.5419 141.354C39.5419 141.929 39.4058 142.401 39.1336 142.77C38.8614 143.138 38.4985 143.413 38.0449 143.595C38.6598 143.777 39.1487 144.064 39.5116 144.458C39.8746 144.852 40.056 145.407 40.056 146.124C40.056 147.174 39.6704 147.964 38.8992 148.494C38.1281 149.024 36.9058 149.289 35.2324 149.289V149.289ZM33.8564 144.307V148.002C33.9672 148.012 34.0983 148.022 34.2495 148.032C34.3805 148.042 34.5343 148.05 34.7107 148.055C34.8871 148.06 35.0912 148.062 35.3231 148.062C35.7566 148.062 36.1674 148.035 36.5555 147.979C36.9436 147.924 37.2838 147.825 37.5761 147.684C37.8685 147.542 38.1029 147.346 38.2793 147.093C38.4557 146.841 38.5439 146.523 38.5439 146.139C38.5439 145.796 38.4784 145.506 38.3473 145.268C38.2163 145.031 38.0273 144.842 37.7803 144.7C37.5333 144.559 37.2384 144.458 36.8957 144.398C36.5529 144.337 36.1699 144.307 35.7465 144.307H33.8564ZM33.8564 143.125H35.3987C35.7616 143.125 36.1044 143.1 36.4269 143.05C36.7495 142.999 37.0293 142.908 37.2662 142.777C37.5031 142.646 37.6895 142.474 37.8256 142.262C37.9617 142.05 38.0298 141.783 38.0298 141.46C38.0298 141.157 37.9592 140.902 37.8181 140.695C37.6769 140.488 37.4829 140.321 37.2359 140.195C36.9889 140.069 36.6991 139.976 36.3665 139.915C36.0338 139.854 35.681 139.824 35.308 139.824C34.935 139.824 34.6426 139.829 34.431 139.839C34.2193 139.849 34.0277 139.864 33.8564 139.885V143.125Z" fill="white"/>
    <path d="M49.012 149.198V138.703H55.4082V139.96H50.4787V143.08H54.8638V144.307H50.4787V147.941H55.7862V149.198H49.012Z" fill="white"/>
    <path d="M71.121 138.703H72.5878V149.198H71.121V144.352H65.995V149.198H64.5282V138.703H65.995V143.08H71.121V138.703Z" fill="white"/>
    <path d="M82.5384 149.198V138.703H83.9749V146.472C84.2975 145.937 84.6932 145.326 85.1619 144.64C85.6307 143.953 86.1297 143.254 86.6589 142.542C87.1881 141.831 87.7224 141.139 88.2617 140.468C88.8011 139.796 89.3076 139.208 89.7814 138.703H90.9458V149.198H89.5092V141.005C89.227 141.328 88.9195 141.702 88.5869 142.126C88.2542 142.55 87.9115 143.002 87.5586 143.481C87.2058 143.961 86.8505 144.458 86.4926 144.973C86.1347 145.488 85.7895 145.995 85.4568 146.495C85.1241 146.995 84.8141 147.477 84.5268 147.941C84.2395 148.406 83.985 148.824 83.7632 149.198H82.5384Z" fill="white"/>
    <path d="M103.574 138.597C105.046 138.597 106.178 138.878 106.969 139.438C107.76 139.998 108.156 140.834 108.156 141.944C108.156 142.55 108.048 143.067 107.831 143.497C107.614 143.926 107.302 144.274 106.893 144.541C106.485 144.809 105.989 145.003 105.404 145.124C104.819 145.246 104.159 145.306 103.423 145.306H102.259V149.198H100.792V138.855C101.205 138.754 101.666 138.686 102.176 138.65C102.685 138.615 103.151 138.597 103.574 138.597V138.597ZM103.695 139.885C103.07 139.885 102.591 139.9 102.259 139.93V144.049H103.363C103.867 144.049 104.32 144.016 104.723 143.951C105.127 143.885 105.467 143.774 105.744 143.618C106.021 143.461 106.236 143.247 106.387 142.974C106.538 142.701 106.614 142.353 106.614 141.929C106.614 141.525 106.535 141.192 106.379 140.93C106.223 140.667 106.011 140.458 105.744 140.301C105.477 140.145 105.167 140.036 104.814 139.976C104.461 139.915 104.088 139.885 103.695 139.885V139.885Z" fill="white"/>
    <path d="M123.036 145.912C123.036 145.488 122.96 145.134 122.809 144.852C122.658 144.569 122.441 144.347 122.159 144.185C121.877 144.024 121.542 143.91 121.153 143.845C120.765 143.779 120.339 143.746 119.876 143.746C119.704 143.746 119.52 143.746 119.324 143.746C119.127 143.746 118.938 143.756 118.757 143.777V147.971C119.099 148.002 119.357 148.017 119.528 148.017C119.699 148.017 119.901 148.017 120.133 148.017C120.506 148.017 120.869 147.987 121.221 147.926C121.574 147.865 121.884 147.754 122.151 147.593C122.419 147.431 122.633 147.217 122.794 146.949C122.955 146.682 123.036 146.336 123.036 145.912H123.036ZM124.578 145.912C124.578 146.477 124.473 146.972 124.261 147.396C124.049 147.82 123.747 148.173 123.354 148.456C122.96 148.739 122.482 148.951 121.917 149.092C121.353 149.233 120.717 149.304 120.012 149.304C119.588 149.304 119.135 149.286 118.651 149.251C118.167 149.216 117.713 149.148 117.29 149.047V138.703H118.757V142.52C118.938 142.499 119.132 142.487 119.339 142.482C119.546 142.477 119.74 142.474 119.921 142.474C123.026 142.474 124.578 143.62 124.578 145.912V145.912ZM126.166 138.703H127.633V149.198H126.166V138.703Z" fill="white"/>
    <path d="M146.565 149.198V138.703H148.001V146.472C148.324 145.937 148.719 145.326 149.188 144.64C149.657 143.953 150.156 143.254 150.685 142.542C151.214 141.831 151.749 141.139 152.288 140.468C152.827 139.796 153.334 139.208 153.808 138.703H154.972V149.198H153.535V141.005C153.253 141.328 152.946 141.702 152.613 142.126C152.28 142.55 151.938 143.002 151.585 143.481C151.232 143.961 150.877 144.458 150.519 144.973C150.161 145.488 149.816 145.995 149.483 146.495C149.15 146.995 148.84 147.477 148.553 147.941C148.266 148.406 148.011 148.824 147.789 149.198H146.565Z" fill="white"/>
    <path d="M181.516 138.703V149.198H180.049V139.96H175.014V149.198H173.547V138.703H181.516Z" fill="white"/>
    <path d="M191.143 143.943C191.143 143.045 191.277 142.252 191.544 141.566C191.811 140.879 192.174 140.306 192.632 139.847C193.091 139.388 193.625 139.042 194.235 138.81C194.845 138.577 195.493 138.461 196.178 138.461C196.854 138.461 197.491 138.577 198.091 138.81C198.691 139.042 199.218 139.388 199.671 139.847C200.125 140.306 200.485 140.879 200.753 141.566C201.02 142.252 201.153 143.045 201.153 143.943C201.153 144.842 201.02 145.635 200.753 146.321C200.485 147.008 200.125 147.581 199.671 148.04C199.218 148.499 198.691 148.845 198.091 149.077C197.491 149.309 196.854 149.426 196.178 149.426C195.493 149.426 194.845 149.309 194.235 149.077C193.625 148.845 193.091 148.499 192.632 148.04C192.174 147.581 191.811 147.008 191.544 146.321C191.277 145.635 191.143 144.842 191.143 143.943ZM192.685 143.943C192.685 144.58 192.766 145.158 192.927 145.677C193.089 146.197 193.318 146.639 193.615 147.003C193.913 147.366 194.276 147.646 194.704 147.843C195.133 148.04 195.614 148.138 196.148 148.138C196.682 148.138 197.161 148.04 197.585 147.843C198.008 147.646 198.368 147.366 198.666 147.003C198.963 146.639 199.193 146.197 199.354 145.677C199.515 145.158 199.596 144.58 199.596 143.943C199.596 143.307 199.515 142.729 199.354 142.209C199.193 141.69 198.963 141.248 198.666 140.884C198.368 140.521 198.008 140.241 197.585 140.044C197.161 139.847 196.682 139.749 196.148 139.749C195.614 139.749 195.133 139.847 194.704 140.044C194.276 140.241 193.913 140.521 193.615 140.884C193.318 141.248 193.089 141.69 192.927 142.209C192.766 142.729 192.685 143.307 192.685 143.943Z" fill="white"/>
    <path d="M211.163 149.198V152H209.772V147.941H210.876C211.39 147.356 211.785 146.707 212.063 145.995C212.34 145.283 212.542 144.531 212.668 143.739C212.794 142.946 212.869 142.126 212.894 141.278C212.92 140.43 212.937 139.572 212.947 138.703H218.875V147.941H220.19V152H218.799V149.198H211.163ZM214.384 139.96C214.354 140.627 214.321 141.306 214.285 141.997C214.25 142.689 214.175 143.375 214.059 144.057C213.943 144.738 213.774 145.407 213.552 146.063C213.33 146.719 213.018 147.345 212.615 147.941H217.408V139.96H214.384Z" fill="white"/>
    <path d="M236.012 149.198C235.84 148.744 235.679 148.297 235.528 147.858C235.376 147.419 235.22 146.972 235.059 146.518H230.311L229.358 149.198H227.831C228.234 148.087 228.612 147.06 228.965 146.116C229.318 145.172 229.663 144.276 230.001 143.428C230.339 142.58 230.674 141.77 231.007 140.998C231.339 140.225 231.687 139.461 232.05 138.703H233.396C233.759 139.461 234.106 140.225 234.439 140.998C234.772 141.77 235.107 142.58 235.445 143.428C235.782 144.276 236.128 145.172 236.48 146.116C236.833 147.06 237.211 148.087 237.614 149.198H236.012ZM234.636 145.306C234.313 144.428 233.993 143.577 233.675 142.754C233.358 141.931 233.028 141.141 232.685 140.384C232.332 141.141 231.997 141.931 231.679 142.754C231.362 143.577 231.047 144.428 230.734 145.306H234.636Z" fill="white"/>
    <path d="M248.916 138.597C250.388 138.597 251.519 138.878 252.311 139.438C253.102 139.998 253.498 140.834 253.498 141.944C253.498 142.55 253.389 143.067 253.172 143.497C252.956 143.926 252.643 144.274 252.235 144.541C251.827 144.809 251.33 145.003 250.746 145.124C250.161 145.246 249.501 145.306 248.765 145.306H247.6V149.198H246.134V138.855C246.547 138.754 247.008 138.686 247.517 138.65C248.026 138.615 248.493 138.597 248.916 138.597V138.597ZM249.037 139.885C248.412 139.885 247.933 139.9 247.6 139.93V144.049H248.704C249.208 144.049 249.662 144.016 250.065 143.951C250.468 143.885 250.809 143.774 251.086 143.618C251.363 143.461 251.577 143.247 251.728 142.974C251.88 142.701 251.955 142.353 251.955 141.929C251.955 141.525 251.877 141.192 251.721 140.93C251.565 140.667 251.353 140.458 251.086 140.301C250.819 140.145 250.509 140.036 250.156 139.976C249.803 139.915 249.43 139.885 249.037 139.885V139.885Z" fill="white"/>
    <path d="M270.055 138.703C269.743 139.047 269.39 139.428 268.997 139.847C268.603 140.266 268.193 140.695 267.764 141.134C267.336 141.573 266.91 142.005 266.486 142.429C266.063 142.853 265.665 143.246 265.292 143.61C265.725 143.913 266.184 144.286 266.668 144.731C267.152 145.175 267.626 145.649 268.089 146.154C268.553 146.659 268.989 147.174 269.397 147.699C269.806 148.224 270.146 148.723 270.418 149.198H268.694C268.392 148.724 268.044 148.246 267.651 147.767C267.258 147.287 266.842 146.828 266.403 146.389C265.965 145.95 265.521 145.543 265.073 145.17C264.624 144.796 264.188 144.478 263.765 144.216V149.198H262.298V138.703H263.765V143.337C264.117 143.004 264.506 142.628 264.929 142.209C265.352 141.79 265.771 141.369 266.184 140.945C266.597 140.521 266.988 140.114 267.356 139.726C267.724 139.337 268.034 138.996 268.286 138.703L270.055 138.703Z" fill="white"/>
    <path d="M278.805 149.198V138.703H280.241V146.472C280.564 145.937 280.959 145.326 281.428 144.64C281.897 143.953 282.396 143.254 282.925 142.542C283.454 141.831 283.989 141.139 284.528 140.468C285.067 139.796 285.574 139.208 286.048 138.703H287.212V149.198H285.776V141.005C285.493 141.328 285.186 141.702 284.853 142.126C284.52 142.55 284.178 143.002 283.825 143.481C283.472 143.961 283.117 144.458 282.759 144.973C282.401 145.488 282.056 145.995 281.723 146.495C281.39 146.995 281.08 147.477 280.793 147.941C280.506 148.406 280.251 148.824 280.03 149.198H278.805Z" fill="white"/>
    <path d="M43.2845 88.0778C44.1542 88.2592 44.8245 88.731 45.2955 89.493C45.7666 90.2551 45.9115 91.0716 45.7304 91.9425L37.6864 126.29C37.5052 126.907 37.1701 127.442 36.6809 127.895C36.1918 128.349 35.6211 128.63 34.9688 128.739H34.534C33.9543 128.739 33.4108 128.585 32.9035 128.276C32.3962 127.968 31.9977 127.56 31.7078 127.052L22.9029 110.559L14.098 127.052C13.7719 127.669 13.31 128.122 12.7121 128.413C12.1142 128.703 11.4892 128.812 10.837 128.739C10.1848 128.63 9.61409 128.349 9.12493 127.895C8.63577 127.442 8.3006 126.907 8.11943 126.29L0.0754888 91.9425C-0.105681 91.0716 0.039248 90.2551 0.510288 89.493C0.981328 88.731 1.63355 88.2592 2.46694 88.0778C3.33656 87.8963 4.15182 88.0324 4.91274 88.486C5.67365 88.9396 6.1447 89.6019 6.32587 90.4728L12.4132 116.492L20.0767 102.23C20.3665 101.722 20.7561 101.314 21.2452 101.006C21.7344 100.697 22.287 100.543 22.9029 100.543C23.5189 100.543 24.0715 100.697 24.5607 101.006C25.0498 101.314 25.4393 101.722 25.7292 102.23L33.3384 116.492L39.48 90.4728C39.6612 89.6019 40.1322 88.9396 40.8932 88.486C41.6541 88.0324 42.4512 87.8963 43.2846 88.0778H43.2845Z" fill="white"/>
    <path d="M82.689 122.425C83.5587 122.425 84.3015 122.733 84.9174 123.35C85.5334 123.967 85.8414 124.729 85.8414 125.636C85.8414 126.507 85.5334 127.251 84.9174 127.868C84.3015 128.485 83.5405 128.793 82.6347 128.793L53.7743 128.63C52.9047 128.63 52.1619 128.322 51.5459 127.705C50.9299 127.088 50.6219 126.326 50.6219 125.419V91.2891C50.6219 90.4182 50.9299 89.6743 51.5459 89.0574C52.1619 88.4405 52.9047 88.132 53.7743 88.132H82.6347C83.5405 88.132 84.3015 88.4405 84.9174 89.0574C85.5334 89.6743 85.8414 90.4182 85.8414 91.2891C85.8414 92.1963 85.5334 92.9584 84.9174 93.5753C84.3015 94.1922 83.5405 94.5006 82.6347 94.5006H56.981V105.278H73.5581C74.4277 105.278 75.1795 105.587 75.8136 106.204C76.4477 106.821 76.7648 107.565 76.7648 108.435C76.7648 109.343 76.4477 110.105 75.8136 110.722C75.1795 111.339 74.4277 111.647 73.5581 111.647H56.981V122.261L82.689 122.425Z" fill="white"/>
    <path d="M122.8 122.207C123.67 122.207 124.422 122.525 125.056 123.16C125.69 123.795 126.007 124.548 126.007 125.419C126.007 126.326 125.69 127.088 125.056 127.705C124.422 128.322 123.67 128.63 122.8 128.63H93.9941C93.1244 128.63 92.3726 128.322 91.7385 127.705C91.1044 127.088 90.7874 126.326 90.7874 125.419V91.2891C90.7874 90.4182 91.1044 89.6743 91.7385 89.0574C92.3726 88.4405 93.1244 88.132 93.9941 88.132C94.8637 88.132 95.6155 88.4405 96.2496 89.0574C96.8837 89.6743 97.2008 90.4182 97.2008 91.2891V122.207H122.8Z" fill="white"/>
    <path d="M145.356 128.685C142.566 128.685 139.939 128.149 137.475 127.079C135.011 126.008 132.855 124.557 131.007 122.724C129.159 120.892 127.701 118.742 126.632 116.274C125.563 113.806 125.029 111.175 125.029 108.381C125.029 105.587 125.563 102.956 126.632 100.488C127.701 98.0208 129.159 95.8616 131.007 94.0109C132.855 92.1602 135.011 90.6996 137.475 89.6291C139.939 88.5586 142.566 88.0233 145.356 88.0233C148.762 88.0233 151.932 88.8126 154.867 90.3911C157.802 91.9697 160.23 94.1561 162.15 96.9503C162.658 97.6761 162.821 98.4744 162.639 99.3453C162.458 100.216 162.005 100.906 161.281 101.414C160.556 101.922 159.768 102.085 158.916 101.904C158.065 101.722 157.385 101.269 156.878 100.543C155.574 98.6196 153.907 97.1227 151.878 96.0521C149.849 94.9816 147.675 94.4464 145.356 94.4464C143.435 94.4464 141.633 94.8093 139.948 95.535C138.263 96.2608 136.786 97.2587 135.518 98.5288C134.25 99.7989 133.254 101.278 132.529 102.965C131.804 104.653 131.442 106.458 131.442 108.381C131.442 110.304 131.804 112.11 132.529 113.797C133.254 115.485 134.25 116.963 135.518 118.234C136.786 119.504 138.263 120.502 139.948 121.227C141.633 121.953 143.435 122.316 145.356 122.316C147.711 122.316 149.912 121.763 151.959 120.656C154.007 119.549 155.683 117.998 156.987 116.002C157.494 115.276 158.174 114.822 159.025 114.641C159.877 114.46 160.665 114.605 161.389 115.076C162.114 115.584 162.576 116.274 162.775 117.145C162.975 118.016 162.821 118.814 162.313 119.54C160.429 122.407 157.992 124.648 155.003 126.262C152.014 127.877 148.798 128.685 145.356 128.685V128.685Z" fill="white"/>
    <path d="M187.043 128.685C184.253 128.685 181.626 128.149 179.162 127.079C176.698 126.008 174.542 124.557 172.694 122.724C170.846 120.892 169.388 118.742 168.319 116.274C167.25 113.806 166.716 111.175 166.716 108.381C166.716 105.587 167.25 102.956 168.319 100.488C169.388 98.0208 170.846 95.8616 172.694 94.0109C174.542 92.1602 176.698 90.6996 179.162 89.6291C181.626 88.5586 184.253 88.0233 187.043 88.0233C190.449 88.0233 193.629 88.8126 196.582 90.3911C199.535 91.9697 201.953 94.1561 203.838 96.9503C204.997 98.6558 205.867 100.47 206.446 102.394C207.026 104.317 207.316 106.313 207.316 108.381C207.316 111.175 206.782 113.806 205.713 116.274C204.644 118.742 203.194 120.892 201.365 122.724C199.535 124.557 197.388 126.008 194.924 127.079C192.46 128.149 189.833 128.685 187.043 128.685V128.685ZM187.043 94.4464C185.123 94.4464 183.32 94.8093 181.635 95.535C179.95 96.2608 178.474 97.2587 177.206 98.5288C175.937 99.7989 174.941 101.278 174.216 102.965C173.492 104.653 173.129 106.458 173.129 108.381C173.129 110.304 173.492 112.11 174.216 113.797C174.941 115.485 175.937 116.963 177.206 118.234C178.474 119.504 179.95 120.502 181.635 121.227C183.32 121.953 185.123 122.316 187.043 122.316C188.963 122.316 190.766 121.953 192.451 121.227C194.136 120.502 195.612 119.504 196.881 118.234C198.149 116.963 199.145 115.485 199.87 113.797C200.595 112.11 200.957 110.304 200.957 108.381C200.957 105.514 200.16 102.902 198.565 100.543C197.261 98.6196 195.594 97.1227 193.565 96.0521C191.536 94.9816 189.362 94.4464 187.043 94.4464V94.4464Z" fill="white"/>
    <path d="M244.438 88.2409C245.126 88.4586 245.679 88.8396 246.095 89.384C246.512 89.9283 246.721 90.5633 246.721 91.2891V125.419C246.721 126.326 246.403 127.088 245.769 127.705C245.135 128.322 244.383 128.63 243.514 128.63C242.644 128.63 241.892 128.322 241.258 127.705C240.624 127.088 240.307 126.326 240.307 125.419V101.958L231.937 114.75C231.285 115.693 230.397 116.165 229.274 116.165C228.151 116.165 227.263 115.693 226.611 114.75L218.241 101.958V125.419C218.241 126.326 217.924 127.088 217.289 127.705C216.655 128.322 215.903 128.63 215.034 128.63C214.164 128.63 213.412 128.322 212.778 127.705C212.144 127.088 211.827 126.326 211.827 125.419V91.2891C211.827 90.5633 212.036 89.9283 212.452 89.384C212.869 88.8396 213.421 88.4586 214.11 88.2409C214.798 88.0594 215.469 88.0776 216.121 88.2953C216.773 88.513 217.298 88.9304 217.697 89.5473L229.274 107.184L240.851 89.5473C241.249 88.9304 241.775 88.513 242.427 88.2953C243.079 88.0776 243.749 88.0594 244.438 88.2409V88.2409Z" fill="white"/>
    <path d="M284.06 122.425C284.929 122.425 285.672 122.733 286.288 123.35C286.904 123.967 287.212 124.729 287.212 125.636C287.212 126.507 286.904 127.251 286.288 127.868C285.672 128.485 284.911 128.793 284.005 128.793L255.145 128.63C254.275 128.63 253.532 128.322 252.917 127.705C252.301 127.088 251.993 126.326 251.993 125.419V91.2891C251.993 90.4182 252.301 89.6743 252.917 89.0574C253.532 88.4405 254.275 88.132 255.145 88.132H284.005C284.911 88.132 285.672 88.4405 286.288 89.0574C286.904 89.6743 287.212 90.4182 287.212 91.2891C287.212 92.1963 286.904 92.9584 286.288 93.5753C285.672 94.1922 284.911 94.5006 284.005 94.5006H258.352V105.278H274.929C275.798 105.278 276.55 105.587 277.184 106.204C277.818 106.821 278.135 107.565 278.135 108.435C278.135 109.343 277.818 110.105 277.184 110.722C276.55 111.339 275.798 111.647 274.929 111.647H258.352V122.261L284.06 122.425Z" fill="white"/>
    <path d="M266 76.3677L16 76.3677V75L266 75V76.3677Z" fill="white"/>
</svg>
