<svg width="32" height="22" viewBox="0 0 32 22" fill="none" xmlns="http://www.w3.org/2000/svg">
    <path d="M30.1585 3.50716H28.2566L29.0415 1.69311L29.766 0H27.9245H22.6113H20.7698H18.8981H17.0566H10.8679L13.9472 7.22596L11.3208 13.3635L7.63773 5.20027L5.31321 0H3.4717L11.3509 17.566L14.883 9.37259L15.7887 7.22596L14.883 5.07933L13.434 1.69311H16.3321H18.1736H20.0453H21.8868H27.2L26.4151 3.50716H21.1321H19.2906H17.3887H15.9094L16.6641 5.20027L17.6604 7.37713L16.7547 9.46329L15.8491 11.6401L12.317 19.9545H10.3547L2.56604 1.69311L1.90189 0H0L9.26793 21.6476H13.434L16.7547 13.7868L20.1057 21.6476H24.3019L31.2755 5.20027L32 3.50716H30.1585ZM18.5057 5.20027H18.566H20.4075H25.6906L22.1887 13.3635L19.5019 7.37713L18.5358 5.26074L18.5057 5.20027ZM23.1849 19.9545H21.2226L17.6906 11.6401L18.5962 9.49352L22.2189 17.566L27.5321 5.20027H29.434L23.1849 19.9545Z" fill="white"/>
</svg>
