<svg width="38" height="27" viewBox="0 0 38 27" fill="none" xmlns="http://www.w3.org/2000/svg">
    <g filter="url(#filter0_d)">
        <path d="M33.1585 6.12392H31.2566L32.0415 4.30987L32.766 2.61676H30.9245H25.6113H23.7698H21.8981H20.0566H13.8679L16.9472 9.84272L14.3208 15.9803L10.6377 7.81703L8.31321 2.61676H6.4717L14.3509 20.1828L17.883 11.9893L18.7887 9.84272L17.883 7.69609L16.434 4.30987H19.3321H21.1736H23.0453H24.8868H30.2L29.4151 6.12392H24.1321H22.2906H20.3887H18.9094L19.6641 7.81703L20.6604 9.99389L19.7547 12.08L18.8491 14.2569L15.317 22.5713H13.3547L5.56604 4.30987L4.90189 2.61676H3L12.2679 24.2644H16.434L19.7547 16.4035L23.1057 24.2644H27.3019L34.2755 7.81703L35 6.12392H33.1585ZM21.5057 7.81703H21.566H23.4075H28.6906L25.1887 15.9803L22.5019 9.99389L21.5358 7.8775L21.5057 7.81703ZM26.1849 22.5713H24.2226L20.6906 14.2569L21.5962 12.1103L25.2189 20.1828L30.5321 7.81703H32.434L26.1849 22.5713Z" fill="#0170FE" fill-opacity="0.5"/>
        <path d="M13.6379 2.71477L16.6753 9.84252L14.3147 15.3589L10.866 7.71501L10.8656 7.71422L8.54144 2.51474L8.4753 2.36676H8.31321H6.4717H6.08557L6.2436 2.71908L14.1228 20.2851L14.3555 20.8038L14.5805 20.2818L18.1126 12.0883L18.1126 12.0883L18.1134 12.0865L19.019 9.9399L19.06 9.84272L19.019 9.74554L18.1134 7.59891L18.1129 7.59774L16.8129 4.55987H19.3321H21.1736H23.0453H24.8868H29.8194L29.2509 5.87392H24.1321H22.2906H20.3887H18.9094H18.5243L18.6811 6.2257L19.4358 7.91882L19.4368 7.92107L20.3867 9.99657L19.5254 11.9805L19.5254 11.9805L19.5239 11.984L18.619 14.1592L18.6182 14.1609L15.1516 22.3213H13.5199L5.79743 4.21516L5.13462 2.52547L5.07237 2.36676H4.90189H3H2.62102L2.77018 2.71515L12.0381 24.3628L12.103 24.5144H12.2679H16.434H16.5997L16.6643 24.3617L19.7558 17.0435L22.8757 24.3624L22.9405 24.5144H23.1057H27.3019H27.4674L27.5321 24.362L34.5053 7.91539L34.5056 7.91462L35.2298 6.22227L35.3789 5.87392H35H33.1585H31.6372L32.2709 4.40915L32.2713 4.40823L32.9959 2.71511L33.1449 2.36676H32.766H30.9245H25.6113H23.7698H21.8981H20.0566H13.8679H13.4896L13.6379 2.71477ZM22.73 9.89152L22.7293 9.89008L21.8972 8.06703H23.4075H28.3113L25.1835 15.3582L22.73 9.89152ZM21.6033 12.7367L24.9908 20.2852L25.2238 20.8045L25.4486 20.2815L30.6968 8.06703H32.0566L26.0193 22.3213H24.3881L20.962 14.2566L21.6033 12.7367Z" stroke="black" stroke-opacity="0.5" stroke-width="0.5"/>
    </g>
    <defs>
        <filter id="filter0_d" x="0.242035" y="0.11676" width="37.5158" height="26.6476" filterUnits="userSpaceOnUse" color-interpolation-filters="sRGB">
            <feFlood flood-opacity="0" result="BackgroundImageFix"/>
            <feColorMatrix in="SourceAlpha" type="matrix" values="0 0 0 0 0 0 0 0 0 0 0 0 0 0 0 0 0 0 127 0" result="hardAlpha"/>
            <feOffset/>
            <feGaussianBlur stdDeviation="1"/>
            <feComposite in2="hardAlpha" operator="out"/>
            <feColorMatrix type="matrix" values="0 0 0 0 0 0 0 0 0 0 0 0 0 0 0 0 0 0 0.25 0"/>
            <feBlend mode="normal" in2="BackgroundImageFix" result="effect1_dropShadow"/>
            <feBlend mode="normal" in="SourceGraphic" in2="effect1_dropShadow" result="shape"/>
        </filter>
    </defs>
</svg>
