<svg width="105" height="74" viewBox="0 0 105 74" fill="none" xmlns="http://www.w3.org/2000/svg">
    <g filter="url(#filter0_d)">
        <path d="M94.1618 14.9284H88.539L90.8595 9.56528L93.0015 4.55969H87.5572H71.849H66.4047H60.8712H55.4268H37.1304L46.234 25.9228L38.4692 44.0681L27.5805 19.934L20.7082 4.55969H15.2639L38.5584 56.4927L49.0008 32.2692L51.6783 25.9228L49.0008 19.5764L44.7167 9.56527H53.2848H58.7291H64.2627H69.707H85.4152L83.0947 14.9284H67.4757H62.0314H56.4086H52.0353L54.2666 19.934L57.2119 26.3697L54.5343 32.5373L51.8568 38.9731L41.4144 63.5541H35.6131L12.5863 9.56527L10.6228 4.55969H5L32.4001 68.5597H44.7167L54.5344 45.3195L64.4412 68.5597H76.8471L97.4641 19.934L99.6061 14.9284H94.1618ZM59.7109 19.934H59.8894H65.3337H80.9526L70.5995 44.0681L62.6562 26.3698L59.8001 20.1128L59.7109 19.934ZM73.5448 63.5541H67.7435L57.3011 38.9731L59.9786 32.6267L70.6888 56.4927L86.397 19.934H92.0198L73.5448 63.5541Z" fill="#0170FE" fill-opacity="0.5"/>
        <path d="M91.089 9.66456L91.0894 9.66364L93.2314 4.65805L93.3804 4.30969H93.0015H87.5572H71.849H66.4047H60.8712H55.4268H37.1304H36.7521L36.9004 4.6577L45.9622 25.9226L38.4631 43.4468L27.8088 19.832L27.8084 19.8312L20.9364 4.45767L20.8703 4.30969H20.7082H15.2639H14.8778L15.0358 4.66201L38.3303 56.595L38.563 57.1137L38.788 56.5916L49.2304 32.3682L49.2311 32.3664L51.9087 26.02L51.9497 25.9228L51.9087 25.8257L49.2311 19.4793L49.2306 19.4781L45.0956 9.81527H53.2848H58.7291H64.2627H69.707H85.0346L82.9304 14.6784H67.4757H62.0314H56.4086H52.0353H51.6502L51.807 15.0302L54.0382 20.0358L54.0393 20.038L56.9382 26.3724L54.305 32.4378L54.305 32.4378L54.3035 32.4413L51.6267 38.8753L51.626 38.8771L41.249 63.3041H35.7783L12.8177 9.47056L10.8556 4.4684L10.7933 4.30969H10.6228H5H4.62102L4.77018 4.65809L32.1703 68.6581L32.2352 68.8097H32.4001H44.7167H44.8825L44.947 68.657L54.5354 45.9594L64.2112 68.6577L64.276 68.8097H64.4412H76.8471H77.0127L77.0773 68.6573L97.694 20.0324L97.6943 20.0316L99.836 15.0268L99.9851 14.6784H99.6061H94.1618H88.9195L91.089 9.66456ZM60.1075 20.184H65.3337H80.5733L70.5943 43.446L62.8843 26.2674L62.8836 26.266L60.1075 20.184ZM59.9857 33.2531L70.4607 56.595L70.6937 57.1144L70.9185 56.5913L86.5617 20.184H91.6424L73.3792 63.3041H67.9089L57.5726 38.9728L59.9857 33.2531Z" stroke="black" stroke-opacity="0.5" stroke-width="0.5"/>
    </g>
    <defs>
        <filter id="filter0_d" x="0.242035" y="0.0596924" width="104.122" height="73" filterUnits="userSpaceOnUse" color-interpolation-filters="sRGB">
            <feFlood flood-opacity="0" result="BackgroundImageFix"/>
            <feColorMatrix in="SourceAlpha" type="matrix" values="0 0 0 0 0 0 0 0 0 0 0 0 0 0 0 0 0 0 127 0" result="hardAlpha"/>
            <feOffset/>
            <feGaussianBlur stdDeviation="2"/>
            <feComposite in2="hardAlpha" operator="out"/>
            <feColorMatrix type="matrix" values="0 0 0 0 0 0 0 0 0 0 0 0 0 0 0 0 0 0 0.25 0"/>
            <feBlend mode="normal" in2="BackgroundImageFix" result="effect1_dropShadow"/>
            <feBlend mode="normal" in="SourceGraphic" in2="effect1_dropShadow" result="shape"/>
        </filter>
    </defs>
</svg>
