<svg width="16" height="16" viewBox="0 0 16 16" fill="none" xmlns="http://www.w3.org/2000/svg">
    <rect width="16" height="16" rx="2" fill="#0170FE"/>
    <path d="M14.1326 4.85363H13.3148L13.6523 4.07354L13.9639 3.34546H13.172H10.8871H10.0952H9.29035H8.49845H5.83714L7.16131 6.45282L6.03188 9.09213L4.44807 5.58172L3.44846 3.34546H2.65656L6.04486 10.8993L7.56375 7.37593L7.95321 6.45282L7.56375 5.52971L6.94061 4.07354H8.18688H8.97878H9.78366H10.5756H12.8604L12.5229 4.85363H10.251H9.45912H8.64125H8.00513L8.32968 5.58172L8.75809 6.51783L8.36863 7.41493L7.97917 8.35104L6.46028 11.9265H5.61645L2.2671 4.07354L1.9815 3.34546H1.16364L5.1491 12.6545H6.94061L8.36863 9.27415L9.80963 12.6545H11.6141L14.613 5.58172L14.9245 4.85363H14.1326ZM9.12158 5.58172H9.14755H9.93945H12.2113L10.7054 9.09213L9.54999 6.51783L9.13456 5.60772L9.12158 5.58172ZM11.1338 11.9265H10.29L8.77107 8.35104L9.16053 7.42794L10.7184 10.8993L13.0032 5.58172H13.8211L11.1338 11.9265Z" fill="white"/>
</svg>
