<svg width="297" height="158" viewBox="0 0 297 158" fill="none" xmlns="http://www.w3.org/2000/svg">
    <g filter="url(#filter0_d)">
        <path d="M187.162 15.3687H181.539L183.86 10.0056L186.002 5H180.557H164.849H159.405H153.871H148.427H130.13L139.234 26.3631L131.469 44.5084L120.581 20.3743L113.708 5H108.264L131.558 56.933L142.001 32.7095L144.678 26.3631L142.001 20.0168L137.717 10.0056H146.285H151.729H157.263H162.707H178.415L176.095 15.3687H160.476H155.031H149.409H145.035L147.267 20.3743L150.212 26.8101L147.534 32.9777L144.857 39.4134L134.414 63.9944H128.613L105.586 10.0056L103.623 5H98L125.4 69H137.717L147.534 45.7598L157.441 69H169.847L190.464 20.3743L192.606 15.3687H187.162ZM152.711 20.3743H152.889H158.334H173.953L163.6 44.5084L155.656 26.8101L152.8 20.5531L152.711 20.3743ZM166.545 63.9944H160.743L150.301 39.4134L152.979 33.0671L163.689 56.933L179.397 20.3743H185.02L166.545 63.9944Z" fill="#0170FE" fill-opacity="0.5"/>
        <path d="M184.089 10.1049L184.089 10.1039L186.231 5.09835L186.38 4.75H186.002H180.557H164.849H159.405H153.871H148.427H130.13H129.752L129.9 5.09801L138.962 26.3629L131.463 43.8871L120.809 20.2723L120.808 20.2715L113.936 4.89798L113.87 4.75H113.708H108.264H107.878L108.036 5.10232L131.33 57.0353L131.563 57.554L131.788 57.0319L142.23 32.8085L142.231 32.8067L144.909 26.4603L144.95 26.3631L144.909 26.266L142.231 19.9196L142.231 19.9184L138.096 10.2556H146.285H151.729H157.263H162.707H178.035L175.93 15.1187H160.476H155.031H149.409H145.035H144.65L144.807 15.4705L147.038 20.4761L147.039 20.4783L149.938 26.8127L147.305 32.8781L147.305 32.8781L147.304 32.8816L144.627 39.3157L144.626 39.3174L134.249 63.7444H128.778L105.818 9.91087L103.856 4.90871L103.793 4.75H103.623H98H97.621L97.7702 5.09839L125.17 69.0984L125.235 69.25H125.4H137.717H137.883L137.947 69.0973L147.535 46.3998L157.211 69.098L157.276 69.25H157.441H169.847H170.013L170.077 69.0976L190.694 20.4727L190.694 20.4719L192.836 15.4671L192.985 15.1187H192.606H187.162H181.92L184.089 10.1049ZM153.107 20.6243H158.334H173.573L163.594 43.8863L155.884 26.7077L155.884 26.7063L153.107 20.6243ZM152.986 33.6934L163.461 57.0353L163.694 57.5547L163.918 57.0317L179.562 20.6243H184.642L166.379 63.7444H160.909L150.573 39.4131L152.986 33.6934Z" stroke="black" stroke-opacity="0.5" stroke-width="0.5"/>
    </g>
    <g filter="url(#filter1_d)">
        <path d="M9.92947 154.426C9.19358 154.426 8.52322 154.304 7.91837 154.062C7.31353 153.82 6.79437 153.466 6.3609 153.002C5.92743 152.538 5.59224 151.965 5.35535 151.283C5.11845 150.602 5 149.822 5 148.943C5 148.065 5.13357 147.285 5.40071 146.604C5.66785 145.922 6.02824 145.349 6.48187 144.885C6.9355 144.42 7.46473 144.067 8.06958 143.825C8.67442 143.583 9.31959 143.461 10.0051 143.461C10.4386 143.461 10.8292 143.492 11.177 143.552C11.5248 143.613 11.8272 143.683 12.0842 143.764C12.3413 143.845 12.5505 143.926 12.7118 144.007C12.8731 144.087 12.984 144.148 13.0444 144.188L12.621 145.4C12.5303 145.339 12.3993 145.274 12.2279 145.203C12.0565 145.132 11.8625 145.062 11.6457 144.991C11.429 144.92 11.1921 144.862 10.935 144.817C10.678 144.771 10.4184 144.749 10.1563 144.749C9.60187 144.749 9.10287 144.845 8.65932 145.036C8.21577 145.228 7.83774 145.506 7.52524 145.869C7.21274 146.233 6.97332 146.674 6.80699 147.194C6.64066 147.714 6.55748 148.297 6.55748 148.943C6.55748 149.569 6.63058 150.14 6.77675 150.655C6.92292 151.17 7.14217 151.611 7.43451 151.98C7.72685 152.348 8.09228 152.634 8.53079 152.835C8.9693 153.037 9.4809 153.138 10.0656 153.138C10.741 153.138 11.3005 153.068 11.744 152.926C12.1876 152.785 12.5202 152.659 12.742 152.548L13.12 153.759C13.0495 153.81 12.9235 153.873 12.742 153.949C12.5606 154.024 12.3337 154.097 12.0616 154.168C11.7894 154.239 11.4718 154.299 11.1089 154.35C10.746 154.4 10.3529 154.426 9.92949 154.426H9.92947Z" fill="white"/>
        <path d="M26.2448 150.988C26.0432 151.452 25.834 151.889 25.6172 152.297C25.4005 152.706 25.1435 153.062 24.8461 153.365C24.5487 153.668 24.1908 153.905 23.7725 154.077C23.3541 154.249 22.8375 154.334 22.2226 154.334C22.1016 154.334 21.9756 154.327 21.8445 154.312C21.7135 154.296 21.5875 154.276 21.4665 154.251C21.3455 154.226 21.2397 154.198 21.149 154.168C21.0582 154.137 20.9927 154.107 20.9524 154.077L21.2095 152.835C21.3405 152.886 21.4993 152.936 21.6858 152.987C21.8723 153.037 22.0663 153.062 22.2679 153.062C22.5703 153.062 22.835 153.024 23.0618 152.949C23.2886 152.873 23.4927 152.767 23.6742 152.631C23.8556 152.494 24.0169 152.328 24.1581 152.131C24.2992 151.934 24.4353 151.714 24.5663 151.472C24.1228 150.755 23.7044 150.041 23.3113 149.329C22.9181 148.618 22.5552 147.928 22.2226 147.262C21.8899 146.596 21.5875 145.962 21.3153 145.362C21.0431 144.761 20.8012 144.208 20.5895 143.703H22.2528C22.5855 144.582 23.0114 145.561 23.5305 146.641C24.0497 147.721 24.6268 148.852 25.2619 150.033C25.6651 149.115 26.0507 148.103 26.4187 146.997C26.7866 145.892 27.1319 144.794 27.4545 143.703H29.0422C28.8103 144.43 28.5785 145.114 28.3466 145.755C28.1148 146.396 27.8829 147.012 27.651 147.603C27.4192 148.193 27.1873 148.769 26.9555 149.329C26.7236 149.89 26.4867 150.442 26.2448 150.988V150.988Z" fill="white"/>
        <path d="M40.2324 154.289C40.0207 154.289 39.7913 154.284 39.5443 154.274C39.2974 154.264 39.0504 154.249 38.8034 154.228C38.5564 154.208 38.312 154.183 38.0701 154.153C37.8281 154.122 37.6063 154.082 37.4047 154.032V143.855C37.6063 143.804 37.8281 143.764 38.0701 143.734C38.312 143.703 38.5565 143.678 38.8034 143.658C39.0504 143.638 39.2949 143.623 39.5368 143.613C39.7787 143.603 40.0055 143.597 40.2172 143.597C40.8221 143.597 41.3891 143.643 41.9184 143.734C42.4476 143.825 42.9063 143.979 43.2944 144.196C43.6825 144.413 43.9874 144.698 44.2092 145.051C44.431 145.405 44.5419 145.839 44.5419 146.354C44.5419 146.929 44.4058 147.401 44.1336 147.77C43.8614 148.138 43.4985 148.413 43.0449 148.595C43.6598 148.777 44.1487 149.064 44.5116 149.458C44.8745 149.852 45.056 150.407 45.056 151.124C45.056 152.174 44.6704 152.964 43.8992 153.494C43.1281 154.024 41.9058 154.289 40.2324 154.289V154.289ZM38.8563 149.307V153.002C38.9672 153.012 39.0983 153.022 39.2495 153.032C39.3805 153.042 39.5343 153.05 39.7107 153.055C39.8871 153.06 40.0912 153.062 40.3231 153.062C40.7565 153.062 41.1673 153.035 41.5555 152.979C41.9436 152.924 42.2838 152.825 42.5761 152.684C42.8685 152.542 43.1028 152.346 43.2793 152.093C43.4557 151.841 43.5439 151.523 43.5439 151.139C43.5439 150.796 43.4783 150.506 43.3473 150.268C43.2162 150.031 43.0272 149.842 42.7803 149.7C42.5333 149.559 42.2384 149.458 41.8957 149.398C41.5529 149.337 41.1699 149.307 40.7465 149.307H38.8563ZM38.8563 148.125H40.3987C40.7616 148.125 41.1043 148.1 41.4269 148.05C41.7495 147.999 42.0292 147.908 42.2661 147.777C42.503 147.646 42.6895 147.474 42.8256 147.262C42.9617 147.05 43.0298 146.783 43.0298 146.46C43.0298 146.157 42.9592 145.902 42.8181 145.695C42.6769 145.488 42.4829 145.321 42.2359 145.195C41.9889 145.069 41.6991 144.976 41.3664 144.915C41.0338 144.854 40.6809 144.824 40.308 144.824C39.935 144.824 39.6426 144.829 39.4309 144.839C39.2192 144.849 39.0277 144.864 38.8563 144.885V148.125Z" fill="white"/>
        <path d="M54.012 154.198V143.703H60.4082V144.96H55.4787V148.08H59.8638V149.307H55.4787V152.941H60.7862V154.198H54.012Z" fill="white"/>
        <path d="M76.121 143.703H77.5878V154.198H76.121V149.352H70.995V154.198H69.5282V143.703H70.995V148.08H76.121V143.703Z" fill="white"/>
        <path d="M87.5384 154.198V143.703H88.9749V151.472C89.2975 150.937 89.6932 150.326 90.1619 149.64C90.6307 148.953 91.1297 148.254 91.6589 147.542C92.1881 146.831 92.7224 146.139 93.2617 145.468C93.8011 144.796 94.3076 144.208 94.7814 143.703H95.9458V154.198H94.5092V146.005C94.227 146.328 93.9195 146.702 93.5869 147.126C93.2542 147.55 92.9115 148.002 92.5586 148.481C92.2058 148.961 91.8505 149.458 91.4926 149.973C91.1347 150.488 90.7895 150.995 90.4568 151.495C90.1241 151.995 89.8141 152.477 89.5268 152.941C89.2395 153.406 88.985 153.824 88.7632 154.198H87.5384Z" fill="white"/>
        <path d="M108.574 143.597C110.046 143.597 111.178 143.878 111.969 144.438C112.76 144.998 113.156 145.834 113.156 146.944C113.156 147.55 113.048 148.067 112.831 148.497C112.614 148.926 112.302 149.274 111.893 149.541C111.485 149.809 110.989 150.003 110.404 150.124C109.819 150.246 109.159 150.306 108.423 150.306H107.259V154.198H105.792V143.855C106.205 143.754 106.666 143.686 107.176 143.65C107.685 143.615 108.151 143.597 108.574 143.597V143.597ZM108.695 144.885C108.07 144.885 107.591 144.9 107.259 144.93V149.049H108.363C108.867 149.049 109.32 149.016 109.723 148.951C110.127 148.885 110.467 148.774 110.744 148.618C111.021 148.461 111.236 148.247 111.387 147.974C111.538 147.701 111.614 147.353 111.614 146.929C111.614 146.525 111.535 146.192 111.379 145.93C111.223 145.667 111.011 145.458 110.744 145.301C110.477 145.145 110.167 145.036 109.814 144.976C109.461 144.915 109.088 144.885 108.695 144.885V144.885Z" fill="white"/>
        <path d="M128.036 150.912C128.036 150.488 127.96 150.134 127.809 149.852C127.658 149.569 127.441 149.347 127.159 149.185C126.877 149.024 126.542 148.91 126.153 148.845C125.765 148.779 125.339 148.746 124.876 148.746C124.704 148.746 124.52 148.746 124.324 148.746C124.127 148.746 123.938 148.756 123.757 148.777V152.971C124.099 153.002 124.357 153.017 124.528 153.017C124.699 153.017 124.901 153.017 125.133 153.017C125.506 153.017 125.869 152.987 126.221 152.926C126.574 152.865 126.884 152.754 127.151 152.593C127.419 152.431 127.633 152.217 127.794 151.949C127.955 151.682 128.036 151.336 128.036 150.912H128.036ZM129.578 150.912C129.578 151.477 129.473 151.972 129.261 152.396C129.049 152.82 128.747 153.173 128.354 153.456C127.96 153.739 127.482 153.951 126.917 154.092C126.353 154.233 125.717 154.304 125.012 154.304C124.588 154.304 124.135 154.286 123.651 154.251C123.167 154.216 122.713 154.148 122.29 154.047V143.703H123.757V147.52C123.938 147.499 124.132 147.487 124.339 147.482C124.546 147.477 124.74 147.474 124.921 147.474C128.026 147.474 129.578 148.62 129.578 150.912V150.912ZM131.166 143.703H132.633V154.198H131.166V143.703Z" fill="white"/>
        <path d="M151.565 154.198V143.703H153.001V151.472C153.324 150.937 153.719 150.326 154.188 149.64C154.657 148.953 155.156 148.254 155.685 147.542C156.214 146.831 156.749 146.139 157.288 145.468C157.827 144.796 158.334 144.208 158.808 143.703H159.972V154.198H158.535V146.005C158.253 146.328 157.946 146.702 157.613 147.126C157.28 147.55 156.938 148.002 156.585 148.481C156.232 148.961 155.877 149.458 155.519 149.973C155.161 150.488 154.816 150.995 154.483 151.495C154.15 151.995 153.84 152.477 153.553 152.941C153.266 153.406 153.011 153.824 152.789 154.198H151.565Z" fill="white"/>
        <path d="M186.516 143.703V154.198H185.049V144.96H180.014V154.198H178.547V143.703H186.516Z" fill="white"/>
        <path d="M196.143 148.943C196.143 148.045 196.277 147.252 196.544 146.566C196.811 145.879 197.174 145.306 197.632 144.847C198.091 144.388 198.625 144.042 199.235 143.81C199.845 143.577 200.493 143.461 201.178 143.461C201.854 143.461 202.491 143.577 203.091 143.81C203.691 144.042 204.218 144.388 204.671 144.847C205.125 145.306 205.485 145.879 205.753 146.566C206.02 147.252 206.153 148.045 206.153 148.943C206.153 149.842 206.02 150.635 205.753 151.321C205.485 152.008 205.125 152.581 204.671 153.04C204.218 153.499 203.691 153.845 203.091 154.077C202.491 154.309 201.854 154.426 201.178 154.426C200.493 154.426 199.845 154.309 199.235 154.077C198.625 153.845 198.091 153.499 197.632 153.04C197.174 152.581 196.811 152.008 196.544 151.321C196.277 150.635 196.143 149.842 196.143 148.943ZM197.685 148.943C197.685 149.58 197.766 150.158 197.927 150.677C198.089 151.197 198.318 151.639 198.615 152.003C198.913 152.366 199.276 152.646 199.704 152.843C200.133 153.04 200.614 153.138 201.148 153.138C201.682 153.138 202.161 153.04 202.585 152.843C203.008 152.646 203.368 152.366 203.666 152.003C203.963 151.639 204.193 151.197 204.354 150.677C204.515 150.158 204.596 149.58 204.596 148.943C204.596 148.307 204.515 147.729 204.354 147.209C204.193 146.69 203.963 146.248 203.666 145.884C203.368 145.521 203.008 145.241 202.585 145.044C202.161 144.847 201.682 144.749 201.148 144.749C200.614 144.749 200.133 144.847 199.704 145.044C199.276 145.241 198.913 145.521 198.615 145.884C198.318 146.248 198.089 146.69 197.927 147.209C197.766 147.729 197.685 148.307 197.685 148.943Z" fill="white"/>
        <path d="M216.163 154.198V157H214.772V152.941H215.876C216.39 152.356 216.785 151.707 217.063 150.995C217.34 150.283 217.542 149.531 217.668 148.739C217.794 147.946 217.869 147.126 217.894 146.278C217.92 145.43 217.937 144.572 217.947 143.703H223.875V152.941H225.19V157H223.799V154.198H216.163ZM219.384 144.96C219.354 145.627 219.321 146.306 219.285 146.997C219.25 147.689 219.175 148.375 219.059 149.057C218.943 149.738 218.774 150.407 218.552 151.063C218.33 151.719 218.018 152.345 217.615 152.941H222.408V144.96H219.384Z" fill="white"/>
        <path d="M241.012 154.198C240.84 153.744 240.679 153.297 240.528 152.858C240.376 152.419 240.22 151.972 240.059 151.518H235.311L234.358 154.198H232.831C233.234 153.087 233.612 152.06 233.965 151.116C234.318 150.172 234.663 149.276 235.001 148.428C235.339 147.58 235.674 146.77 236.007 145.998C236.339 145.225 236.687 144.461 237.05 143.703H238.396C238.759 144.461 239.106 145.225 239.439 145.998C239.772 146.77 240.107 147.58 240.445 148.428C240.782 149.276 241.128 150.172 241.48 151.116C241.833 152.06 242.211 153.087 242.614 154.198H241.012ZM239.636 150.306C239.313 149.428 238.993 148.577 238.675 147.754C238.358 146.931 238.028 146.141 237.685 145.384C237.332 146.141 236.997 146.931 236.679 147.754C236.362 148.577 236.047 149.428 235.734 150.306H239.636Z" fill="white"/>
        <path d="M253.916 143.597C255.388 143.597 256.519 143.878 257.311 144.438C258.102 144.998 258.498 145.834 258.498 146.944C258.498 147.55 258.389 148.067 258.172 148.497C257.956 148.926 257.643 149.274 257.235 149.541C256.827 149.809 256.33 150.003 255.746 150.124C255.161 150.246 254.501 150.306 253.765 150.306H252.6V154.198H251.134V143.855C251.547 143.754 252.008 143.686 252.517 143.65C253.026 143.615 253.493 143.597 253.916 143.597V143.597ZM254.037 144.885C253.412 144.885 252.933 144.9 252.6 144.93V149.049H253.704C254.208 149.049 254.662 149.016 255.065 148.951C255.468 148.885 255.809 148.774 256.086 148.618C256.363 148.461 256.577 148.247 256.728 147.974C256.88 147.701 256.955 147.353 256.955 146.929C256.955 146.525 256.877 146.192 256.721 145.93C256.565 145.667 256.353 145.458 256.086 145.301C255.819 145.145 255.509 145.036 255.156 144.976C254.803 144.915 254.43 144.885 254.037 144.885V144.885Z" fill="white"/>
        <path d="M275.055 143.703C274.743 144.047 274.39 144.428 273.997 144.847C273.603 145.266 273.193 145.695 272.764 146.134C272.336 146.573 271.91 147.005 271.486 147.429C271.063 147.853 270.665 148.246 270.292 148.61C270.725 148.913 271.184 149.286 271.668 149.731C272.152 150.175 272.626 150.649 273.089 151.154C273.553 151.659 273.989 152.174 274.397 152.699C274.806 153.224 275.146 153.723 275.418 154.198H273.694C273.392 153.724 273.044 153.246 272.651 152.767C272.258 152.287 271.842 151.828 271.403 151.389C270.965 150.95 270.521 150.543 270.073 150.17C269.624 149.796 269.188 149.478 268.765 149.216V154.198H267.298V143.703H268.765V148.337C269.117 148.004 269.506 147.628 269.929 147.209C270.352 146.79 270.771 146.369 271.184 145.945C271.597 145.521 271.988 145.114 272.356 144.726C272.724 144.337 273.034 143.996 273.286 143.703L275.055 143.703Z" fill="white"/>
        <path d="M283.805 154.198V143.703H285.241V151.472C285.564 150.937 285.959 150.326 286.428 149.64C286.897 148.953 287.396 148.254 287.925 147.542C288.454 146.831 288.989 146.139 289.528 145.468C290.067 144.796 290.574 144.208 291.048 143.703H292.212V154.198H290.776V146.005C290.493 146.328 290.186 146.702 289.853 147.126C289.52 147.55 289.178 148.002 288.825 148.481C288.472 148.961 288.117 149.458 287.759 149.973C287.401 150.488 287.056 150.995 286.723 151.495C286.39 151.995 286.08 152.477 285.793 152.941C285.506 153.406 285.251 153.824 285.03 154.198H283.805Z" fill="white"/>
    </g>
    <g filter="url(#filter2_d)">
        <path d="M48.2845 93.0778C49.1542 93.2592 49.8245 93.731 50.2955 94.493C50.7666 95.2551 50.9115 96.0716 50.7304 96.9425L42.6864 131.29C42.5052 131.907 42.1701 132.442 41.6809 132.895C41.1918 133.349 40.6211 133.63 39.9688 133.739H39.534C38.9543 133.739 38.4108 133.585 37.9035 133.276C37.3962 132.968 36.9977 132.56 36.7078 132.052L27.9029 115.559L19.098 132.052C18.7719 132.669 18.31 133.122 17.7121 133.413C17.1142 133.703 16.4892 133.812 15.837 133.739C15.1848 133.63 14.6141 133.349 14.1249 132.895C13.6358 132.442 13.3006 131.907 13.1194 131.29L5.07549 96.9425C4.89432 96.0716 5.03925 95.2551 5.51029 94.493C5.98133 93.731 6.63355 93.2592 7.46694 93.0778C8.33656 92.8963 9.15182 93.0324 9.91274 93.486C10.6736 93.9396 11.1447 94.6019 11.3259 95.4728L17.4132 121.492L25.0767 107.23C25.3665 106.722 25.7561 106.314 26.2452 106.006C26.7344 105.697 27.287 105.543 27.9029 105.543C28.5189 105.543 29.0715 105.697 29.5607 106.006C30.0498 106.314 30.4393 106.722 30.7292 107.23L38.3384 121.492L44.48 95.4728C44.6612 94.6019 45.1322 93.9396 45.8932 93.486C46.6541 93.0324 47.4512 92.8963 48.2846 93.0778H48.2845Z" fill="white"/>
        <path d="M24.8565 107.112L17.506 120.791L11.57 95.4188C11.3741 94.4812 10.8612 93.7604 10.0408 93.2713L10.0408 93.2713C9.22584 92.7855 8.34665 92.6388 7.41588 92.833L7.41587 92.833L7.41375 92.8335C6.51046 93.0301 5.80232 93.5451 5.29763 94.3616L5.29763 94.3616C4.79321 95.1776 4.63642 96.0593 4.83073 96.9934L4.83065 96.9934L4.83208 96.9995L12.876 131.347L12.8756 131.347L12.8796 131.36C13.0739 132.022 13.434 132.596 13.9549 133.079C14.4796 133.565 15.0949 133.869 15.7958 133.986L15.7958 133.986L15.8093 133.988C16.5091 134.065 17.1815 133.948 17.8213 133.637C18.4693 133.323 18.9693 132.83 19.3189 132.169C19.3189 132.169 19.319 132.169 19.3191 132.169L27.9029 116.089L36.4872 132.169L36.4872 132.17L36.4906 132.176C36.8018 132.721 37.2307 133.16 37.7736 133.49C38.3191 133.822 38.9073 133.989 39.534 133.989H39.9688H39.9896L40.01 133.986C40.7109 133.869 41.3262 133.565 41.8509 133.079C42.3718 132.596 42.7319 132.022 42.9263 131.36L42.9266 131.36L42.9298 131.347L50.9738 96.9995L50.9738 96.9995L50.9751 96.9934C51.1694 96.0593 51.0126 95.1776 50.5082 94.3616C50.0018 93.5424 49.2741 93.0294 48.3378 92.8335C47.4398 92.638 46.5782 92.7866 45.7652 93.2713C44.9448 93.7603 44.4319 94.481 44.236 95.4185L38.2472 120.79L30.9498 107.113L30.9499 107.113L30.9463 107.106C30.6364 106.563 30.2183 106.125 29.694 105.794C29.1623 105.459 28.5629 105.293 27.9029 105.293C27.243 105.293 26.6436 105.459 26.1119 105.794C25.5876 106.125 25.1695 106.563 24.8595 107.106L24.8595 107.106L24.8565 107.112Z" stroke="black" stroke-opacity="0.5" stroke-width="0.5"/>
        <path d="M87.689 127.425C88.5587 127.425 89.3015 127.733 89.9174 128.35C90.5334 128.967 90.8414 129.729 90.8414 130.636C90.8414 131.507 90.5334 132.251 89.9174 132.868C89.3015 133.485 88.5405 133.793 87.6347 133.793L58.7743 133.63C57.9047 133.63 57.1619 133.322 56.5459 132.705C55.9299 132.088 55.6219 131.326 55.6219 130.419V96.2891C55.6219 95.4182 55.9299 94.6743 56.5459 94.0574C57.1619 93.4405 57.9047 93.132 58.7743 93.132H87.6347C88.5405 93.132 89.3015 93.4405 89.9174 94.0574C90.5334 94.6743 90.8414 95.4182 90.8414 96.2891C90.8414 97.1963 90.5334 97.9584 89.9174 98.5753C89.3015 99.1922 88.5405 99.5006 87.6347 99.5006H61.981V110.278H78.5581C79.4277 110.278 80.1795 110.587 80.8136 111.204C81.4477 111.821 81.7648 112.565 81.7648 113.435C81.7648 114.343 81.4477 115.105 80.8136 115.722C80.1795 116.339 79.4277 116.647 78.5581 116.647H61.981V127.261L87.689 127.425Z" fill="white"/>
        <path d="M87.6333 134.043H87.6347C88.604 134.043 89.4295 133.711 90.0943 133.045C90.7571 132.381 91.0914 131.573 91.0914 130.636C91.0914 129.666 90.7592 128.839 90.0943 128.173C89.4318 127.51 88.6258 127.175 87.69 127.175C87.6897 127.175 87.6894 127.175 87.689 127.175L62.231 127.013V116.897H78.5581C79.4941 116.897 80.3081 116.562 80.988 115.901C81.6718 115.236 82.0148 114.408 82.0148 113.435C82.0148 112.496 81.6696 111.688 80.988 111.025C80.3081 110.363 79.4941 110.028 78.5581 110.028H62.231V99.7506H87.6347C88.604 99.7506 89.4295 99.4178 90.0943 98.7519C90.7592 98.0861 91.0914 97.2595 91.0914 96.2891C91.0914 95.3519 90.7571 94.5444 90.0943 93.8807C89.4295 93.2148 88.604 92.882 87.6347 92.882H58.7743C57.8381 92.882 57.0317 93.217 56.369 93.8807C55.7063 94.5444 55.3719 95.3519 55.3719 96.2891V130.419C55.3719 131.389 55.7041 132.215 56.369 132.881C57.0316 133.545 57.8377 133.88 58.7736 133.88C58.7738 133.88 58.7741 133.88 58.7743 133.88L87.6333 134.043Z" stroke="black" stroke-opacity="0.5" stroke-width="0.5"/>
        <path d="M127.8 127.207C128.67 127.207 129.422 127.525 130.056 128.16C130.69 128.795 131.007 129.548 131.007 130.419C131.007 131.326 130.69 132.088 130.056 132.705C129.422 133.322 128.67 133.63 127.8 133.63H98.9941C98.1244 133.63 97.3726 133.322 96.7385 132.705C96.1044 132.088 95.7874 131.326 95.7874 130.419V96.2891C95.7874 95.4182 96.1044 94.6743 96.7385 94.0574C97.3726 93.4405 98.1244 93.132 98.9941 93.132C99.8637 93.132 100.616 93.4405 101.25 94.0574C101.884 94.6743 102.201 95.4182 102.201 96.2891V127.207H127.8Z" fill="white"/>
        <path d="M96.5642 93.8782L96.5642 93.8782C95.8826 94.5413 95.5374 95.3495 95.5374 96.2891V130.419C95.5374 131.391 95.8803 132.219 96.5642 132.884C97.244 133.545 98.0581 133.88 98.9941 133.88H127.8C128.736 133.88 129.55 133.545 130.23 132.884C130.914 132.219 131.257 131.391 131.257 130.419C131.257 129.479 130.912 128.663 130.233 127.983C129.553 127.303 128.738 126.957 127.8 126.957H102.451V96.2891C102.451 95.3495 102.106 94.5413 101.424 93.8782C100.744 93.2167 99.93 92.882 98.9941 92.882C98.0581 92.882 97.244 93.2167 96.5642 93.8782Z" stroke="black" stroke-opacity="0.5" stroke-width="0.5"/>
        <path d="M150.356 133.685C147.566 133.685 144.939 133.149 142.475 132.079C140.011 131.008 137.855 129.557 136.007 127.724C134.159 125.892 132.701 123.742 131.632 121.274C130.563 118.806 130.029 116.175 130.029 113.381C130.029 110.587 130.563 107.956 131.632 105.488C132.701 103.021 134.159 100.862 136.007 99.0109C137.855 97.1602 140.011 95.6996 142.475 94.6291C144.939 93.5586 147.566 93.0233 150.356 93.0233C153.762 93.0233 156.932 93.8126 159.867 95.3911C162.802 96.9697 165.23 99.1561 167.15 101.95C167.658 102.676 167.821 103.474 167.639 104.345C167.458 105.216 167.005 105.906 166.281 106.414C165.556 106.922 164.768 107.085 163.916 106.904C163.065 106.722 162.385 106.269 161.878 105.543C160.574 103.62 158.907 102.123 156.878 101.052C154.849 99.9816 152.675 99.4464 150.356 99.4464C148.435 99.4464 146.633 99.8093 144.948 100.535C143.263 101.261 141.786 102.259 140.518 103.529C139.25 104.799 138.254 106.278 137.529 107.965C136.804 109.653 136.442 111.458 136.442 113.381C136.442 115.304 136.804 117.11 137.529 118.797C138.254 120.485 139.25 121.963 140.518 123.234C141.786 124.504 143.263 125.502 144.948 126.227C146.633 126.953 148.435 127.316 150.356 127.316C152.711 127.316 154.912 126.763 156.959 125.656C159.007 124.549 160.683 122.998 161.987 121.002C162.494 120.276 163.174 119.822 164.025 119.641C164.877 119.46 165.665 119.605 166.389 120.076C167.114 120.584 167.576 121.274 167.775 122.145C167.975 123.016 167.821 123.814 167.313 124.54C165.429 127.407 162.992 129.648 160.003 131.262C157.014 132.877 153.798 133.685 150.356 133.685V133.685Z" fill="white"/>
        <path d="M167.356 101.808C165.413 98.9817 162.956 96.7685 159.986 95.1709C157.013 93.5724 153.802 92.7733 150.356 92.7733C147.533 92.7733 144.872 93.3151 142.375 94.3998C139.883 95.4825 137.701 96.9607 135.83 98.8343C133.959 100.708 132.484 102.893 131.402 105.389C130.319 107.889 129.779 110.554 129.779 113.381C129.779 116.208 130.319 118.873 131.402 121.373C132.484 123.869 133.96 126.046 135.831 127.902C137.702 129.757 139.884 131.226 142.375 132.308C144.872 133.393 147.533 133.935 150.356 133.935C153.839 133.935 157.096 133.117 160.122 131.482C163.147 129.848 165.614 127.58 167.52 124.68C168.067 123.897 168.234 123.027 168.019 122.089C167.806 121.158 167.309 120.416 166.533 119.872L166.533 119.872L166.526 119.867C165.745 119.359 164.889 119.201 163.973 119.396C163.058 119.591 162.325 120.082 161.782 120.859L161.782 120.859L161.778 120.865C160.495 122.827 158.85 124.349 156.841 125.436C154.83 126.523 152.67 127.066 150.356 127.066C148.468 127.066 146.699 126.709 145.047 125.998C143.39 125.284 141.94 124.304 140.695 123.057C139.45 121.81 138.471 120.358 137.759 118.699C137.048 117.044 136.692 115.272 136.692 113.381C136.692 111.49 137.048 109.719 137.759 108.064C138.471 106.405 139.45 104.953 140.695 103.705C141.94 102.458 143.39 101.478 145.047 100.765C146.699 100.053 148.468 99.6964 150.356 99.6964C152.635 99.6964 154.769 100.222 156.761 101.273C158.754 102.324 160.39 103.793 161.671 105.683L161.671 105.683L161.673 105.686C162.216 106.463 162.95 106.953 163.864 107.148C164.785 107.344 165.644 107.166 166.424 106.618C167.201 106.074 167.69 105.329 167.884 104.396C168.079 103.458 167.902 102.59 167.356 101.808ZM167.356 101.808C167.356 101.808 167.356 101.808 167.356 101.809L167.15 101.95L167.355 101.807C167.355 101.807 167.355 101.807 167.356 101.808Z" stroke="black" stroke-opacity="0.5" stroke-width="0.5"/>
        <path d="M192.043 133.685C189.253 133.685 186.626 133.149 184.162 132.079C181.698 131.008 179.542 129.557 177.694 127.724C175.846 125.892 174.388 123.742 173.319 121.274C172.25 118.806 171.716 116.175 171.716 113.381C171.716 110.587 172.25 107.956 173.319 105.488C174.388 103.021 175.846 100.862 177.694 99.0109C179.542 97.1602 181.698 95.6996 184.162 94.6291C186.626 93.5586 189.253 93.0233 192.043 93.0233C195.449 93.0233 198.629 93.8126 201.582 95.3911C204.535 96.9697 206.953 99.1561 208.838 101.95C209.997 103.656 210.867 105.47 211.446 107.394C212.026 109.317 212.316 111.313 212.316 113.381C212.316 116.175 211.782 118.806 210.713 121.274C209.644 123.742 208.194 125.892 206.365 127.724C204.535 129.557 202.388 131.008 199.924 132.079C197.46 133.149 194.833 133.685 192.043 133.685V133.685ZM192.043 99.4464C190.123 99.4464 188.32 99.8093 186.635 100.535C184.95 101.261 183.474 102.259 182.206 103.529C180.937 104.799 179.941 106.278 179.216 107.965C178.492 109.653 178.129 111.458 178.129 113.381C178.129 115.304 178.492 117.11 179.216 118.797C179.941 120.485 180.937 121.963 182.206 123.234C183.474 124.504 184.95 125.502 186.635 126.227C188.32 126.953 190.123 127.316 192.043 127.316C193.963 127.316 195.766 126.953 197.451 126.227C199.136 125.502 200.612 124.504 201.881 123.234C203.149 121.963 204.145 120.485 204.87 118.797C205.595 117.11 205.957 115.304 205.957 113.381C205.957 110.514 205.16 107.902 203.565 105.543C202.261 103.62 200.594 102.123 198.565 101.052C196.536 99.9816 194.362 99.4464 192.043 99.4464V99.4464Z" fill="white"/>
        <path d="M192.043 133.935H192.293V133.933C195.023 133.902 197.601 133.361 200.024 132.308C202.515 131.226 204.689 129.757 206.541 127.901C208.394 126.045 209.861 123.869 210.942 121.373C212.025 118.873 212.566 116.208 212.566 113.381C212.566 111.289 212.273 109.269 211.686 107.321C211.098 105.373 210.218 103.536 209.044 101.81C207.138 98.9825 204.689 96.7684 201.7 95.1706C198.71 93.5724 195.489 92.7733 192.043 92.7733C189.22 92.7733 186.559 93.3151 184.063 94.3998C181.571 95.4825 179.388 96.9607 177.517 98.8343C175.647 100.708 174.171 102.893 173.09 105.389C172.007 107.889 171.466 110.554 171.466 113.381C171.466 116.208 172.007 118.873 173.09 121.373C174.171 123.869 175.647 126.046 177.518 127.902C179.389 129.757 181.571 131.226 184.063 132.308C186.559 133.393 189.22 133.935 192.043 133.935ZM186.734 100.765C188.386 100.053 190.155 99.6964 192.043 99.6964C194.322 99.6964 196.456 100.222 198.449 101.273C200.441 102.324 202.077 103.793 203.359 105.683C204.925 108 205.707 110.564 205.707 113.381C205.707 115.272 205.351 117.044 204.64 118.699C203.928 120.358 202.949 121.81 201.704 123.057C200.458 124.304 199.008 125.284 197.352 125.998C195.7 126.709 193.931 127.066 192.043 127.066C190.155 127.066 188.386 126.709 186.734 125.998C185.078 125.284 183.628 124.304 182.382 123.057C181.137 121.81 180.158 120.358 179.446 118.699C178.735 117.044 178.379 115.272 178.379 113.381C178.379 111.49 178.735 109.719 179.446 108.064C180.158 106.405 181.137 104.953 182.382 103.705C183.628 102.458 185.078 101.478 186.734 100.765Z" stroke="black" stroke-opacity="0.5" stroke-width="0.5"/>
        <path d="M249.438 93.2409C250.126 93.4586 250.679 93.8396 251.095 94.384C251.512 94.9283 251.721 95.5633 251.721 96.2891V130.419C251.721 131.326 251.403 132.088 250.769 132.705C250.135 133.322 249.383 133.63 248.514 133.63C247.644 133.63 246.892 133.322 246.258 132.705C245.624 132.088 245.307 131.326 245.307 130.419V106.958L236.937 119.75C236.285 120.693 235.397 121.165 234.274 121.165C233.151 121.165 232.263 120.693 231.611 119.75L223.241 106.958V130.419C223.241 131.326 222.924 132.088 222.289 132.705C221.655 133.322 220.903 133.63 220.034 133.63C219.164 133.63 218.412 133.322 217.778 132.705C217.144 132.088 216.827 131.326 216.827 130.419V96.2891C216.827 95.5633 217.036 94.9283 217.452 94.384C217.869 93.8396 218.421 93.4586 219.11 93.2409C219.798 93.0594 220.469 93.0776 221.121 93.2953C221.773 93.513 222.298 93.9304 222.697 94.5473L234.274 112.184L245.851 94.5473C246.249 93.9304 246.775 93.513 247.427 93.2953C248.079 93.0776 248.749 93.0594 249.438 93.2409V93.2409Z" fill="white"/>
        <path d="M245.057 107.797V130.419C245.057 131.391 245.4 132.219 246.084 132.884C246.764 133.545 247.578 133.88 248.514 133.88C249.45 133.88 250.264 133.545 250.944 132.884C251.628 132.219 251.971 131.391 251.971 130.419V96.2891C251.971 95.5119 251.746 94.8226 251.294 94.232C250.844 93.6447 250.248 93.2348 249.513 93.0025L249.438 93.2409L249.501 92.9991C248.768 92.8058 248.048 92.8245 247.348 93.0582C246.638 93.2951 246.068 93.7501 245.641 94.4107C245.641 94.411 245.641 94.4113 245.641 94.4116L234.274 111.728L222.907 94.4116C222.907 94.4114 222.907 94.4111 222.907 94.4109C222.479 93.7502 221.91 93.2951 221.2 93.0582C220.5 92.8245 219.78 92.8058 219.046 92.9991L219.046 92.9989L219.034 93.0025C218.3 93.2348 217.703 93.6447 217.254 94.232C216.802 94.8226 216.577 95.5119 216.577 96.2891V130.419C216.577 131.391 216.92 132.219 217.604 132.884C218.284 133.545 219.098 133.88 220.034 133.88C220.97 133.88 221.784 133.545 222.464 132.884C223.148 132.219 223.491 131.391 223.491 130.419V107.797L231.401 119.887L231.401 119.887L231.405 119.892C232.103 120.901 233.066 121.415 234.274 121.415C235.481 121.415 236.445 120.901 237.143 119.892L237.143 119.892L237.146 119.887L245.057 107.797Z" stroke="black" stroke-opacity="0.5" stroke-width="0.5"/>
        <path d="M289.06 127.425C289.929 127.425 290.672 127.733 291.288 128.35C291.904 128.967 292.212 129.729 292.212 130.636C292.212 131.507 291.904 132.251 291.288 132.868C290.672 133.485 289.911 133.793 289.005 133.793L260.145 133.63C259.275 133.63 258.532 133.322 257.917 132.705C257.301 132.088 256.993 131.326 256.993 130.419V96.2891C256.993 95.4182 257.301 94.6743 257.917 94.0574C258.532 93.4405 259.275 93.132 260.145 93.132H289.005C289.911 93.132 290.672 93.4405 291.288 94.0574C291.904 94.6743 292.212 95.4182 292.212 96.2891C292.212 97.1963 291.904 97.9584 291.288 98.5753C290.672 99.1922 289.911 99.5006 289.005 99.5006H263.352V110.278H279.929C280.798 110.278 281.55 110.587 282.184 111.204C282.818 111.821 283.135 112.565 283.135 113.435C283.135 114.343 282.818 115.105 282.184 115.722C281.55 116.339 280.798 116.647 279.929 116.647H263.352V127.261L289.06 127.425Z" fill="white"/>
        <path d="M289.004 134.043H289.005C289.975 134.043 290.8 133.711 291.465 133.045C292.128 132.381 292.462 131.573 292.462 130.636C292.462 129.666 292.13 128.839 291.465 128.173C290.802 127.51 289.996 127.175 289.061 127.175C289.06 127.175 289.06 127.175 289.06 127.175L263.602 127.013V116.897H279.929C280.865 116.897 281.679 116.562 282.359 115.901C283.042 115.236 283.385 114.408 283.385 113.435C283.385 112.496 283.04 111.688 282.359 111.025C281.679 110.363 280.865 110.028 279.929 110.028H263.602V99.7506H289.005C289.975 99.7506 290.8 99.4178 291.465 98.7519C292.13 98.0861 292.462 97.2595 292.462 96.2891C292.462 95.3519 292.128 94.5444 291.465 93.8807C290.8 93.2148 289.975 92.882 289.005 92.882H260.145C259.209 92.882 258.402 93.217 257.74 93.8807C257.077 94.5444 256.743 95.3518 256.743 96.2891V130.419C256.743 131.389 257.075 132.215 257.74 132.881C258.402 133.545 259.208 133.88 260.144 133.88C260.144 133.88 260.145 133.88 260.145 133.88L289.004 134.043Z" stroke="black" stroke-opacity="0.5" stroke-width="0.5"/>
    </g>
    <g filter="url(#filter3_d)">
        <path d="M271 81.3677L21 81.3677V80L271 80V81.3677Z" fill="white" shape-rendering="crispEdges"/>
        <path d="M271 81.6177H271.25V81.3677V80V79.75H271L21 79.75H20.75V80V81.3677V81.6177H21L271 81.6177Z" stroke="black" stroke-opacity="0.5" stroke-width="0.5" shape-rendering="crispEdges"/>
    </g>
    <defs>
        <filter id="filter0_d" x="93.242" y="0.5" width="104.122" height="73" filterUnits="userSpaceOnUse" color-interpolation-filters="sRGB">
            <feFlood flood-opacity="0" result="BackgroundImageFix"/>
            <feColorMatrix in="SourceAlpha" type="matrix" values="0 0 0 0 0 0 0 0 0 0 0 0 0 0 0 0 0 0 127 0" result="hardAlpha"/>
            <feOffset/>
            <feGaussianBlur stdDeviation="2"/>
            <feComposite in2="hardAlpha" operator="out"/>
            <feColorMatrix type="matrix" values="0 0 0 0 0 0 0 0 0 0 0 0 0 0 0 0 0 0 0.25 0"/>
            <feBlend mode="normal" in2="BackgroundImageFix" result="effect1_dropShadow"/>
            <feBlend mode="normal" in="SourceGraphic" in2="effect1_dropShadow" result="shape"/>
        </filter>
        <filter id="filter1_d" x="4" y="142.461" width="289.212" height="15.5383" filterUnits="userSpaceOnUse" color-interpolation-filters="sRGB">
            <feFlood flood-opacity="0" result="BackgroundImageFix"/>
            <feColorMatrix in="SourceAlpha" type="matrix" values="0 0 0 0 0 0 0 0 0 0 0 0 0 0 0 0 0 0 127 0" result="hardAlpha"/>
            <feOffset/>
            <feGaussianBlur stdDeviation="0.5"/>
            <feComposite in2="hardAlpha" operator="out"/>
            <feColorMatrix type="matrix" values="0 0 0 0 0 0 0 0 0 0 0 0 0 0 0 0 0 0 1 0"/>
            <feBlend mode="normal" in2="BackgroundImageFix" result="effect1_dropShadow"/>
            <feBlend mode="normal" in="SourceGraphic" in2="effect1_dropShadow" result="shape"/>
        </filter>
        <filter id="filter2_d" x="0.5" y="88.5" width="296.212" height="49.7934" filterUnits="userSpaceOnUse" color-interpolation-filters="sRGB">
            <feFlood flood-opacity="0" result="BackgroundImageFix"/>
            <feColorMatrix in="SourceAlpha" type="matrix" values="0 0 0 0 0 0 0 0 0 0 0 0 0 0 0 0 0 0 127 0" result="hardAlpha"/>
            <feOffset/>
            <feGaussianBlur stdDeviation="2"/>
            <feComposite in2="hardAlpha" operator="out"/>
            <feColorMatrix type="matrix" values="0 0 0 0 0 0 0 0 0 0 0 0 0 0 0 0 0 0 0.25 0"/>
            <feBlend mode="normal" in2="BackgroundImageFix" result="effect1_dropShadow"/>
            <feBlend mode="normal" in="SourceGraphic" in2="effect1_dropShadow" result="shape"/>
        </filter>
        <filter id="filter3_d" x="16.5" y="75.5" width="259" height="10.3677" filterUnits="userSpaceOnUse" color-interpolation-filters="sRGB">
            <feFlood flood-opacity="0" result="BackgroundImageFix"/>
            <feColorMatrix in="SourceAlpha" type="matrix" values="0 0 0 0 0 0 0 0 0 0 0 0 0 0 0 0 0 0 127 0" result="hardAlpha"/>
            <feOffset/>
            <feGaussianBlur stdDeviation="2"/>
            <feComposite in2="hardAlpha" operator="out"/>
            <feColorMatrix type="matrix" values="0 0 0 0 0 0 0 0 0 0 0 0 0 0 0 0 0 0 0.25 0"/>
            <feBlend mode="normal" in2="BackgroundImageFix" result="effect1_dropShadow"/>
            <feBlend mode="normal" in="SourceGraphic" in2="effect1_dropShadow" result="shape"/>
        </filter>
    </defs>
</svg>
