<svg width="430" height="74" viewBox="0 0 430 74" fill="none" xmlns="http://www.w3.org/2000/svg">
    <g filter="url(#filter0_d)">
        <path d="M142.717 66.4255C141.982 66.4255 141.311 66.3044 140.706 66.0621C140.101 65.8198 139.582 65.4664 139.149 65.002C138.715 64.5376 138.38 63.9647 138.143 63.2832C137.906 62.6017 137.788 61.8218 137.788 60.9435C137.788 60.0651 137.922 59.2852 138.189 58.6037C138.456 57.9223 138.816 57.3493 139.27 56.8849C139.723 56.4205 140.253 56.0671 140.858 55.8248C141.462 55.5825 142.108 55.4614 142.793 55.4614C143.227 55.4614 143.617 55.4916 143.965 55.5522C144.313 55.6128 144.615 55.6835 144.872 55.7642C145.129 55.845 145.338 55.9258 145.5 56.0066C145.661 56.0873 145.772 56.1479 145.832 56.1883L145.409 57.3998C145.318 57.3392 145.187 57.2736 145.016 57.2029C144.844 57.1322 144.65 57.0616 144.434 56.9909C144.217 56.9202 143.98 56.8622 143.723 56.8168C143.466 56.7713 143.206 56.7486 142.944 56.7486C142.39 56.7486 141.891 56.8445 141.447 57.0363C141.004 57.2282 140.626 57.5058 140.313 57.8693C140.001 58.2327 139.761 58.6744 139.595 59.1943C139.429 59.7143 139.345 60.2973 139.345 60.9435C139.345 61.5694 139.419 62.1398 139.565 62.6547C139.711 63.1696 139.93 63.6113 140.222 63.9798C140.515 64.3483 140.88 64.6335 141.319 64.8354C141.757 65.0374 142.269 65.1383 142.854 65.1383C143.529 65.1383 144.088 65.0676 144.532 64.9263C144.976 64.7849 145.308 64.6587 145.53 64.5477L145.908 65.7592C145.837 65.8097 145.711 65.8728 145.53 65.9485C145.349 66.0242 145.122 66.0974 144.85 66.1681C144.577 66.2388 144.26 66.2993 143.897 66.3498C143.534 66.4003 143.141 66.4255 142.717 66.4255H142.717Z" fill="white"/>
        <path d="M159.033 62.9875C158.831 63.4519 158.622 63.8886 158.405 64.2975C158.188 64.7064 157.931 65.0622 157.634 65.3651C157.337 65.668 156.979 65.9053 156.56 66.0769C156.142 66.2485 155.625 66.3343 155.011 66.3343C154.89 66.3343 154.764 66.3268 154.633 66.3116C154.501 66.2965 154.375 66.2763 154.254 66.251C154.134 66.2258 154.028 66.198 153.937 66.1677C153.846 66.1375 153.781 66.1072 153.74 66.0769L153.997 64.8351C154.128 64.8856 154.287 64.9361 154.474 64.9865C154.66 65.037 154.854 65.0622 155.056 65.0622C155.358 65.0622 155.623 65.0244 155.85 64.9487C156.077 64.8729 156.281 64.7669 156.462 64.6306C156.644 64.4943 156.805 64.3278 156.946 64.1309C157.087 63.934 157.223 63.7144 157.354 63.4721C156.911 62.7553 156.492 62.041 156.099 61.3293C155.706 60.6175 155.343 59.9285 155.011 59.2621C154.678 58.5958 154.375 57.9623 154.103 57.3616C153.831 56.7609 153.589 56.2081 153.377 55.7033H155.041C155.373 56.5817 155.799 57.561 156.318 58.6412C156.838 59.7215 157.415 60.8522 158.05 62.0334C158.453 61.1147 158.839 60.1026 159.207 58.9971C159.575 57.8916 159.92 56.7937 160.242 55.7033H161.83C161.598 56.4302 161.366 57.1142 161.135 57.7553C160.903 58.3964 160.671 59.0123 160.439 59.6029C160.207 60.1935 159.975 60.7689 159.743 61.3293C159.512 61.8896 159.275 62.4423 159.033 62.9875V62.9875Z" fill="white"/>
        <path d="M173.02 66.2891C172.809 66.2891 172.579 66.284 172.332 66.2739C172.085 66.2638 171.838 66.2487 171.591 66.2285C171.344 66.2083 171.1 66.183 170.858 66.1527C170.616 66.1225 170.394 66.0821 170.193 66.0316V55.8549C170.394 55.8044 170.616 55.7641 170.858 55.7338C171.1 55.7035 171.344 55.6782 171.591 55.658C171.838 55.6378 172.083 55.6227 172.325 55.6126C172.567 55.6025 172.794 55.5975 173.005 55.5975C173.61 55.5975 174.177 55.6429 174.706 55.7338C175.236 55.8246 175.694 55.9786 176.082 56.1956C176.47 56.4127 176.775 56.6979 176.997 57.0513C177.219 57.4046 177.33 57.8388 177.33 58.3537C177.33 58.9291 177.194 59.4011 176.922 59.7696C176.649 60.1381 176.286 60.4132 175.833 60.5949C176.448 60.7767 176.937 61.0644 177.3 61.4582C177.663 61.8519 177.844 62.4072 177.844 63.124C177.844 64.1739 177.458 64.9639 176.687 65.494C175.916 66.024 174.694 66.289 173.02 66.289V66.2891ZM171.644 61.3067V65.0018C171.755 65.0119 171.886 65.022 172.037 65.0321C172.168 65.0422 172.322 65.0498 172.499 65.0548C172.675 65.0599 172.879 65.0624 173.111 65.0624C173.545 65.0624 173.955 65.0346 174.343 64.9791C174.732 64.9236 175.072 64.8251 175.364 64.6838C175.656 64.5425 175.891 64.3456 176.067 64.0932C176.244 63.8408 176.332 63.5228 176.332 63.1391C176.332 62.7959 176.266 62.5056 176.135 62.2684C176.004 62.0311 175.815 61.8418 175.568 61.7005C175.321 61.5591 175.026 61.4581 174.684 61.3976C174.341 61.337 173.958 61.3067 173.534 61.3067H171.644ZM171.644 60.1255H173.187C173.55 60.1255 173.892 60.1002 174.215 60.0498C174.537 59.9993 174.817 59.9084 175.054 59.7772C175.291 59.6459 175.477 59.4743 175.614 59.2623C175.75 59.0503 175.818 58.7827 175.818 58.4597C175.818 58.1568 175.747 57.9019 175.606 57.6949C175.465 57.4879 175.271 57.3213 175.024 57.1951C174.777 57.0689 174.487 56.9755 174.154 56.915C173.822 56.8544 173.469 56.8241 173.096 56.8241C172.723 56.8241 172.431 56.8292 172.219 56.8393C172.007 56.8493 171.816 56.8645 171.644 56.8847V60.1255Z" fill="white"/>
        <path d="M186.8 66.198V55.7033H193.196V56.9603H188.267V60.0799H192.652V61.3066H188.267V64.9411H193.574V66.198H186.8Z" fill="white"/>
        <path d="M208.909 55.7033H210.376V66.198H208.909V61.352H203.783V66.198H202.316V55.7033H203.783V60.0799H208.909V55.7033Z" fill="white"/>
        <path d="M220.326 66.198V55.7033H221.763V63.4721C222.085 62.937 222.481 62.3262 222.95 61.6397C223.419 60.9532 223.918 60.2541 224.447 59.5423C224.976 58.8305 225.51 58.139 226.05 57.4676C226.589 56.7962 227.096 56.2081 227.569 55.7033H228.734V66.198H227.297V58.0052C227.015 58.3283 226.707 58.7018 226.375 59.1258C226.042 59.5499 225.699 60.0017 225.347 60.4812C224.994 60.9608 224.638 61.458 224.281 61.9729C223.923 62.4878 223.577 62.9951 223.245 63.4949C222.912 63.9946 222.602 64.4767 222.315 64.9411C222.027 65.4055 221.773 65.8245 221.551 66.198H220.326Z" fill="white"/>
        <path d="M241.362 55.5975C242.834 55.5975 243.966 55.8776 244.757 56.438C245.548 56.9983 245.944 57.8337 245.944 58.9443C245.944 59.55 245.836 60.0674 245.619 60.4965C245.402 60.9256 245.09 61.2739 244.681 61.5414C244.273 61.809 243.777 62.0033 243.192 62.1245C242.607 62.2456 241.947 62.3062 241.211 62.3062H240.047V66.1982H238.58V55.8549C238.993 55.7539 239.454 55.6858 239.964 55.6505C240.473 55.6151 240.939 55.5975 241.362 55.5975V55.5975ZM241.483 56.8847C240.858 56.8847 240.379 56.8998 240.047 56.9301V61.0493H241.151C241.655 61.0493 242.108 61.0165 242.511 60.9508C242.915 60.8852 243.255 60.7741 243.532 60.6177C243.809 60.4612 244.024 60.2466 244.175 59.9741C244.326 59.7015 244.402 59.3531 244.402 58.9291C244.402 58.5253 244.323 58.1921 244.167 57.9296C244.011 57.6671 243.799 57.4576 243.532 57.3011C243.265 57.1447 242.955 57.0361 242.602 56.9756C242.249 56.915 241.876 56.8847 241.483 56.8847V56.8847Z" fill="white"/>
        <path d="M260.824 62.9118C260.824 62.4878 260.748 62.1344 260.597 61.8517C260.446 61.5691 260.229 61.3469 259.947 61.1854C259.665 61.0239 259.33 60.9103 258.941 60.8447C258.553 60.7791 258.127 60.7462 257.664 60.7462C257.492 60.7462 257.308 60.7462 257.112 60.7462C256.915 60.7462 256.726 60.7563 256.545 60.7765V64.9714C256.887 65.0017 257.145 65.0168 257.316 65.0168C257.487 65.0168 257.689 65.0168 257.921 65.0168C258.294 65.0168 258.657 64.9865 259.009 64.9259C259.362 64.8654 259.672 64.7543 259.939 64.5928C260.207 64.4312 260.421 64.2167 260.582 63.9492C260.743 63.6816 260.824 63.3358 260.824 62.9118H260.824ZM262.366 62.9118C262.366 63.4772 262.26 63.9719 262.049 64.3959C261.837 64.8199 261.535 65.1733 261.142 65.456C260.748 65.7387 260.27 65.9507 259.705 66.092C259.14 66.2334 258.505 66.3041 257.8 66.3041C257.376 66.3041 256.923 66.2864 256.439 66.2511C255.955 66.2157 255.501 66.1476 255.078 66.0466V55.7034H256.545V59.5196C256.726 59.4994 256.92 59.4868 257.127 59.4818C257.334 59.4767 257.528 59.4742 257.709 59.4742C260.814 59.4742 262.366 60.6201 262.366 62.9118V62.9118ZM263.954 55.7033H265.421V66.198H263.954V55.7033Z" fill="white"/>
        <path d="M284.352 66.198V55.7033H285.789V63.4721C286.112 62.937 286.507 62.3262 286.976 61.6397C287.445 60.9532 287.944 60.2541 288.473 59.5423C289.002 58.8305 289.536 58.139 290.076 57.4676C290.615 56.7962 291.122 56.2081 291.595 55.7033H292.76V66.198H291.323V58.0052C291.041 58.3283 290.734 58.7018 290.401 59.1258C290.068 59.5499 289.726 60.0017 289.373 60.4812C289.02 60.9608 288.665 61.458 288.307 61.9729C287.949 62.4878 287.604 62.9951 287.271 63.4949C286.938 63.9946 286.628 64.4767 286.341 64.9411C286.054 65.4055 285.799 65.8245 285.577 66.198H284.352Z" fill="white"/>
        <path d="M319.304 55.7033V66.198H317.837V56.9603H312.802V66.198H311.335V55.7033H319.304Z" fill="white"/>
        <path d="M328.931 60.9435C328.931 60.0449 329.065 59.2524 329.332 58.5659C329.599 57.8794 329.962 57.3064 330.42 56.847C330.879 56.3877 331.413 56.0419 332.023 55.8097C332.633 55.5775 333.281 55.4614 333.966 55.4614C334.642 55.4614 335.279 55.5775 335.879 55.8097C336.479 56.0419 337.006 56.3877 337.459 56.847C337.913 57.3064 338.273 57.8794 338.54 58.5659C338.808 59.2524 338.941 60.0449 338.941 60.9435C338.941 61.842 338.808 62.6345 338.54 63.3211C338.273 64.0076 337.913 64.5805 337.459 65.0399C337.006 65.4992 336.479 65.845 335.879 66.0772C335.279 66.3095 334.642 66.4255 333.966 66.4255C333.281 66.4255 332.633 66.3095 332.023 66.0772C331.413 65.845 330.879 65.4993 330.42 65.0399C329.962 64.5805 329.599 64.0076 329.332 63.3211C329.065 62.6345 328.931 61.842 328.931 60.9435ZM330.473 60.9435C330.473 61.5795 330.554 62.1575 330.715 62.6774C330.877 63.1974 331.106 63.6391 331.403 64.0025C331.701 64.366 332.064 64.6462 332.492 64.843C332.92 65.0399 333.402 65.1383 333.936 65.1383C334.47 65.1383 334.949 65.0399 335.373 64.843C335.796 64.6462 336.156 64.366 336.454 64.0025C336.751 63.6391 336.98 63.1974 337.142 62.6774C337.303 62.1575 337.384 61.5795 337.384 60.9435C337.384 60.3074 337.303 59.7294 337.142 59.2095C336.98 58.6896 336.751 58.2479 336.454 57.8844C336.156 57.5209 335.796 57.2408 335.373 57.0439C334.949 56.847 334.47 56.7486 333.936 56.7486C333.402 56.7486 332.92 56.847 332.492 57.0439C332.064 57.2408 331.701 57.5209 331.403 57.8844C331.106 58.2479 330.877 58.6896 330.715 59.2095C330.554 59.7294 330.473 60.3074 330.473 60.9435Z" fill="white"/>
        <path d="M348.951 66.198V68.9996H347.56V64.9411H348.664C349.178 64.3555 349.573 63.7069 349.851 62.9951C350.128 62.2833 350.329 61.5312 350.455 60.7387C350.581 59.9461 350.657 59.1259 350.682 58.2778C350.708 57.4297 350.725 56.5716 350.735 55.7033H356.663V64.9411H357.978V68.9996H356.587V66.198H348.951ZM352.172 56.9603C352.142 57.6266 352.109 58.3055 352.073 58.9971C352.038 59.6887 351.963 60.3752 351.847 61.0567C351.731 61.7382 351.562 62.407 351.34 63.0633C351.118 63.7195 350.806 64.3454 350.403 64.9411H355.196V56.9603H352.172Z" fill="white"/>
        <path d="M373.8 66.198C373.628 65.7437 373.467 65.297 373.316 64.8578C373.164 64.4186 373.008 63.9719 372.847 63.5176H368.099L367.146 66.198H365.619C366.022 65.0875 366.4 64.0602 366.753 63.1163C367.106 62.1723 367.451 61.2763 367.789 60.4282C368.127 59.5802 368.462 58.77 368.794 57.9976C369.127 57.2253 369.475 56.4605 369.838 55.7033H371.184C371.547 56.4605 371.894 57.2253 372.227 57.9976C372.56 58.77 372.895 59.5802 373.233 60.4282C373.57 61.2763 373.915 62.1723 374.268 63.1163C374.621 64.0602 374.999 65.0875 375.402 66.198H373.8ZM372.424 62.306C372.101 61.4277 371.781 60.5771 371.463 59.7543C371.146 58.9315 370.816 58.1415 370.473 57.3843C370.12 58.1415 369.785 58.9315 369.467 59.7543C369.15 60.5771 368.835 61.4277 368.522 62.306H372.424Z" fill="white"/>
        <path d="M386.704 55.5975C388.176 55.5975 389.307 55.8776 390.099 56.438C390.89 56.9983 391.286 57.8337 391.286 58.9443C391.286 59.55 391.177 60.0674 390.96 60.4965C390.744 60.9256 390.431 61.2739 390.023 61.5414C389.615 61.809 389.118 62.0033 388.534 62.1245C387.949 62.2456 387.289 62.3062 386.553 62.3062H385.388V66.1982H383.922V55.8549C384.335 55.7539 384.796 55.6858 385.305 55.6505C385.814 55.6151 386.28 55.5975 386.704 55.5975V55.5975ZM386.825 56.8847C386.2 56.8847 385.721 56.8998 385.388 56.9301V61.0493H386.492C386.996 61.0493 387.45 61.0165 387.853 60.9508C388.256 60.8852 388.597 60.7741 388.874 60.6177C389.151 60.4612 389.365 60.2466 389.516 59.9741C389.668 59.7015 389.743 59.3531 389.743 58.9291C389.743 58.5253 389.665 58.1921 389.509 57.9296C389.353 57.6671 389.141 57.4576 388.874 57.3011C388.607 57.1447 388.297 57.0361 387.944 56.9756C387.591 56.915 387.218 56.8847 386.825 56.8847V56.8847Z" fill="white"/>
        <path d="M407.843 55.7033C407.53 56.0466 407.178 56.4277 406.785 56.8467C406.391 57.2657 405.981 57.6947 405.552 58.1339C405.124 58.5731 404.698 59.0047 404.274 59.4287C403.851 59.8527 403.453 60.2465 403.08 60.6099C403.513 60.9128 403.972 61.2863 404.456 61.7306C404.94 62.1748 405.414 62.6493 405.877 63.1541C406.341 63.6589 406.777 64.1738 407.185 64.6988C407.593 65.2238 407.934 65.7235 408.206 66.198H406.482C406.18 65.7235 405.832 65.2465 405.439 64.7669C405.046 64.2874 404.63 63.828 404.191 63.3888C403.753 62.9496 403.309 62.5433 402.861 62.1698C402.412 61.7962 401.976 61.4782 401.553 61.2157V66.198H400.086V55.7033H401.553V60.3373C401.905 60.0042 402.294 59.6281 402.717 59.2091C403.14 58.7901 403.559 58.3686 403.972 57.9446C404.385 57.5206 404.776 57.1142 405.144 56.7255C405.512 56.3368 405.822 55.9961 406.074 55.7033L407.843 55.7033Z" fill="white"/>
        <path d="M416.593 66.198V55.7033H418.029V63.4721C418.352 62.937 418.747 62.3262 419.216 61.6397C419.685 60.9532 420.184 60.2541 420.713 59.5423C421.242 58.8305 421.777 58.139 422.316 57.4676C422.855 56.7962 423.362 56.2081 423.836 55.7033H425V66.198H423.564V58.0052C423.281 58.3283 422.974 58.7018 422.641 59.1258C422.308 59.5499 421.966 60.0017 421.613 60.4812C421.26 60.9608 420.905 61.458 420.547 61.9729C420.189 62.4878 419.844 62.9951 419.511 63.4949C419.178 63.9946 418.868 64.4767 418.581 64.9411C418.294 65.4055 418.039 65.8245 417.817 66.198H416.593Z" fill="white"/>
    </g>
    <g filter="url(#filter1_d)">
        <path d="M181.073 5.07776C181.942 5.2592 182.612 5.73096 183.083 6.49302C183.555 7.25508 183.699 8.07158 183.518 8.94251L175.474 43.2897C175.293 43.9066 174.958 44.4418 174.469 44.8954C173.98 45.3491 173.409 45.6303 172.757 45.7391H172.322C171.742 45.7391 171.199 45.5849 170.691 45.2765C170.184 44.968 169.786 44.5598 169.496 44.0517L160.691 27.5586L151.886 44.0517C151.56 44.6686 151.098 45.1222 150.5 45.4126C149.902 45.7029 149.277 45.8117 148.625 45.7392C147.973 45.6303 147.402 45.3491 146.913 44.8955C146.424 44.4418 146.089 43.9066 145.907 43.2897L137.863 8.94251C137.682 8.07158 137.827 7.25509 138.298 6.49302C138.769 5.73097 139.422 5.2592 140.255 5.07776C141.125 4.89632 141.94 5.03241 142.701 5.48601C143.462 5.93963 143.933 6.60189 144.114 7.47281L150.201 33.4917L157.865 19.2303C158.155 18.7223 158.544 18.314 159.033 18.0056C159.522 17.6971 160.075 17.5429 160.691 17.5429C161.307 17.5429 161.859 17.6971 162.349 18.0056C162.838 18.314 163.227 18.7223 163.517 19.2303L171.126 33.4917L177.268 7.47281C177.449 6.60188 177.92 5.93962 178.681 5.48601C179.442 5.0324 180.239 4.89632 181.073 5.07776H181.073Z" fill="white"/>
        <path d="M157.644 19.112L150.294 32.7909L144.358 7.41882C144.162 6.48118 143.649 5.76037 142.829 5.27128L142.829 5.27127C142.014 4.78549 141.135 4.63883 140.204 4.83303L140.204 4.83302L140.202 4.83348C139.298 5.03015 138.59 5.54509 138.086 6.36158L138.086 6.36158C137.581 7.17765 137.424 8.05934 137.619 8.99342L137.619 8.99344L137.62 8.99951L145.664 43.3467L145.664 43.3468L145.668 43.3601C145.862 44.0219 146.222 44.5957 146.743 45.0788C147.268 45.5653 147.883 45.8688 148.584 45.9858L148.584 45.9861L148.597 45.9876C149.297 46.0655 149.97 45.9481 150.609 45.6375C151.257 45.3228 151.757 44.8301 152.107 44.1689C152.107 44.1688 152.107 44.1687 152.107 44.1686L160.691 28.0894L169.275 44.1695L169.275 44.1695L169.279 44.1756C169.59 44.7211 170.019 45.16 170.562 45.4901C171.107 45.8217 171.695 45.9891 172.322 45.9891H172.757H172.778L172.798 45.9857C173.499 45.8688 174.114 45.5653 174.639 45.0788C175.16 44.5957 175.52 44.0219 175.714 43.3601L175.715 43.3602L175.718 43.3467L183.762 8.99951L183.762 8.99953L183.763 8.99342C183.957 8.05934 183.801 7.17764 183.296 6.36158C182.79 5.54238 182.062 5.02941 181.126 4.83348C180.228 4.63799 179.366 4.78658 178.553 5.27127C177.733 5.76031 177.22 6.48102 177.024 7.41853L171.035 32.7898L163.738 19.1126L163.738 19.1126L163.734 19.1064C163.424 18.5632 163.006 18.1247 162.482 17.7941C161.95 17.4588 161.351 17.2929 160.691 17.2929C160.031 17.2929 159.432 17.4588 158.9 17.7941C158.376 18.1247 157.957 18.5632 157.648 19.1064L157.647 19.1064L157.644 19.112Z" stroke="black" stroke-opacity="0.5" stroke-width="0.5"/>
        <path d="M220.477 39.4247C221.347 39.4247 222.089 39.7332 222.705 40.3501C223.321 40.967 223.629 41.729 223.629 42.6363C223.629 43.5072 223.321 44.2511 222.705 44.868C222.089 45.4849 221.329 45.7934 220.423 45.7934L191.562 45.6301C190.693 45.6301 189.95 45.3216 189.334 44.7047C188.718 44.0878 188.41 43.3257 188.41 42.4185V8.2891C188.41 7.41817 188.718 6.67427 189.334 6.05736C189.95 5.44045 190.693 5.13199 191.562 5.13199H220.423C221.329 5.13199 222.089 5.44045 222.705 6.05736C223.321 6.67427 223.629 7.41818 223.629 8.2891C223.629 9.19631 223.321 9.95838 222.705 10.5753C222.089 11.1922 221.329 11.5006 220.423 11.5006H194.769V22.2784H211.346C212.216 22.2784 212.968 22.5868 213.602 23.2037C214.236 23.8206 214.553 24.5646 214.553 25.4355C214.553 26.3427 214.236 27.1047 213.602 27.7216C212.968 28.3385 212.216 28.647 211.346 28.647H194.769V39.2614L220.477 39.4247Z" fill="white"/>
        <path d="M220.421 46.0434H220.423C221.392 46.0434 222.217 45.7105 222.882 45.0446C223.545 44.3809 223.879 43.5735 223.879 42.6363C223.879 41.6658 223.547 40.8393 222.882 40.1734C222.22 39.5099 221.414 39.175 220.478 39.1747C220.478 39.1747 220.477 39.1747 220.477 39.1747L195.019 39.013V28.897H211.346C212.282 28.897 213.096 28.5623 213.776 27.9008C214.46 27.2355 214.803 26.4082 214.803 25.4355C214.803 24.4959 214.458 23.6877 213.776 23.0245C213.096 22.3631 212.282 22.0284 211.346 22.0284H195.019V11.7506H220.423C221.392 11.7506 222.217 11.4178 222.882 10.7519C223.547 10.0861 223.879 9.25955 223.879 8.2891C223.879 7.35186 223.545 6.54444 222.882 5.88072C222.217 5.21484 221.392 4.88199 220.423 4.88199H191.562C190.626 4.88199 189.82 5.21698 189.157 5.88072C188.494 6.54445 188.16 7.35185 188.16 8.2891V42.4185C188.16 43.389 188.492 44.2155 189.157 44.8813C189.82 45.5449 190.626 45.8799 191.562 45.8801C191.562 45.8801 191.562 45.8801 191.562 45.8801L220.421 46.0434Z" stroke="black" stroke-opacity="0.5" stroke-width="0.5"/>
        <path d="M260.588 39.207C261.458 39.207 262.21 39.5245 262.844 40.1596C263.478 40.7946 263.795 41.5476 263.795 42.4185C263.795 43.3257 263.478 44.0878 262.844 44.7047C262.21 45.3216 261.458 45.6301 260.588 45.6301H231.782C230.912 45.6301 230.161 45.3216 229.526 44.7047C228.892 44.0878 228.575 43.3257 228.575 42.4185V8.2891C228.575 7.41817 228.892 6.67427 229.526 6.05736C230.161 5.44045 230.912 5.13199 231.782 5.13199C232.652 5.13199 233.404 5.44045 234.038 6.05736C234.672 6.67427 234.989 7.41818 234.989 8.2891V39.207H260.588Z" fill="white"/>
        <path d="M229.352 5.87817L229.352 5.87817C228.671 6.54131 228.325 7.34948 228.325 8.2891V42.4185C228.325 43.3913 228.668 44.2186 229.352 44.8839C230.032 45.5453 230.846 45.8801 231.782 45.8801H260.588C261.524 45.8801 262.338 45.5453 263.018 44.8839C263.702 44.2186 264.045 43.3913 264.045 42.4185C264.045 41.4791 263.7 40.6633 263.021 39.9829C262.341 39.3026 261.526 38.957 260.588 38.957H235.239V8.2891C235.239 7.34949 234.894 6.54131 234.212 5.87817C233.532 5.21674 232.718 4.88199 231.782 4.88199C230.846 4.88199 230.032 5.21674 229.352 5.87817Z" stroke="black" stroke-opacity="0.5" stroke-width="0.5"/>
        <path d="M283.144 45.6847C280.354 45.6847 277.727 45.1494 275.263 44.0789C272.799 43.0084 270.643 41.5568 268.795 39.7243C266.947 37.8917 265.489 35.7416 264.42 33.274C263.351 30.8063 262.816 28.1754 262.816 25.3812C262.816 22.587 263.351 19.956 264.42 17.4884C265.489 15.0208 266.947 12.8616 268.795 11.0109C270.643 9.16019 272.799 7.69957 275.263 6.62906C277.727 5.55855 280.354 5.02328 283.144 5.02328C286.55 5.02328 289.72 5.81257 292.655 7.39112C295.59 8.96967 298.018 11.1561 299.938 13.9503C300.446 14.6761 300.609 15.4744 300.427 16.3453C300.246 17.2163 299.793 17.9057 299.069 18.4138C298.344 18.9218 297.556 19.0851 296.704 18.9037C295.853 18.7222 295.173 18.2686 294.666 17.5428C293.362 15.6196 291.695 14.1227 289.666 13.0521C287.637 11.9816 285.463 11.4464 283.144 11.4464C281.223 11.4464 279.421 11.8093 277.736 12.535C276.051 13.2608 274.574 14.2587 273.306 15.5288C272.038 16.7989 271.042 18.2777 270.317 19.9651C269.592 21.6525 269.23 23.4579 269.23 25.3812C269.23 27.3045 269.592 29.1098 270.317 30.7973C271.042 32.4847 272.038 33.9634 273.306 35.2335C274.574 36.5036 276.051 37.5016 277.736 38.2274C279.421 38.9531 281.223 39.316 283.144 39.316C285.499 39.316 287.7 38.7626 289.747 37.6558C291.795 36.549 293.47 34.9977 294.775 33.0018C295.282 32.276 295.962 31.8224 296.813 31.641C297.665 31.4595 298.453 31.6047 299.177 32.0764C299.902 32.5845 300.364 33.274 300.563 34.1449C300.763 35.0158 300.609 35.8142 300.101 36.5399C298.217 39.4067 295.78 41.6476 292.791 43.2624C289.802 44.8772 286.586 45.6847 283.144 45.6847V45.6847Z" fill="white"/>
        <path d="M300.144 13.8077C298.201 10.9817 295.744 8.76849 292.774 7.17094C289.801 5.57237 286.59 4.77328 283.144 4.77328C280.321 4.77328 277.66 5.31507 275.163 6.39977C272.671 7.48246 270.489 8.96068 268.618 10.8343C266.747 12.7078 265.271 14.8934 264.19 17.3891C263.107 19.8893 262.566 22.5541 262.566 25.3812C262.566 28.2082 263.107 30.8731 264.19 33.3733C265.272 35.8692 266.748 38.046 268.619 39.9018C270.49 41.7569 272.672 43.2257 275.163 44.3082C277.66 45.3929 280.321 45.9347 283.144 45.9347C286.627 45.9347 289.884 45.1172 292.91 43.4824C295.935 41.8482 298.402 39.5798 300.308 36.6802C300.855 35.8967 301.022 35.027 300.807 34.0891C300.594 33.1585 300.097 32.4157 299.321 31.8717L299.321 31.8716L299.314 31.8669C298.533 31.3586 297.677 31.2013 296.761 31.3965C295.846 31.5913 295.113 32.0819 294.57 32.8586L294.57 32.8585L294.566 32.865C293.283 34.827 291.638 36.3494 289.628 37.4359C287.618 38.5227 285.458 39.066 283.144 39.066C281.256 39.066 279.487 38.7094 277.835 37.9978C276.178 37.2843 274.728 36.3041 273.483 35.0569C272.238 33.8097 271.259 32.3576 270.547 30.6986C269.836 29.0438 269.48 27.2722 269.48 25.3812C269.48 23.4902 269.836 21.7185 270.547 20.0638C271.259 18.4048 272.238 16.9526 273.483 15.7055C274.728 14.4583 276.178 13.4781 277.835 12.7646C279.487 12.0529 281.256 11.6964 283.144 11.6964C285.423 11.6964 287.556 12.2219 289.549 13.2733C291.542 14.3244 293.178 15.7933 294.459 17.6832L294.459 17.6832L294.461 17.6861C295.004 18.4627 295.738 18.9533 296.652 19.1482C297.573 19.3444 298.432 19.1656 299.212 18.6185C299.989 18.0737 300.478 17.3291 300.672 16.3963C300.867 15.4585 300.69 14.5901 300.144 13.8077ZM300.144 13.8077C300.144 13.808 300.144 13.8084 300.144 13.8087L299.938 13.9503L300.143 13.8071C300.143 13.8073 300.143 13.8075 300.144 13.8077Z" stroke="black" stroke-opacity="0.5" stroke-width="0.5"/>
        <path d="M324.831 45.6847C322.041 45.6847 319.414 45.1494 316.95 44.0789C314.486 43.0084 312.33 41.5568 310.482 39.7243C308.634 37.8917 307.176 35.7416 306.107 33.274C305.038 30.8063 304.504 28.1754 304.504 25.3812C304.504 22.587 305.038 19.956 306.107 17.4884C307.176 15.0208 308.634 12.8616 310.482 11.0109C312.33 9.16019 314.486 7.69957 316.95 6.62906C319.414 5.55855 322.041 5.02328 324.831 5.02328C328.237 5.02328 331.417 5.81257 334.37 7.39112C337.323 8.96967 339.741 11.1561 341.625 13.9503C342.785 15.6558 343.655 17.4703 344.234 19.3936C344.814 21.3169 345.104 23.3127 345.104 25.3812C345.104 28.1754 344.57 30.8063 343.501 33.2739C342.432 35.7416 340.982 37.8917 339.153 39.7242C337.323 41.5568 335.176 43.0084 332.712 44.0789C330.248 45.1494 327.621 45.6847 324.831 45.6847V45.6847ZM324.831 11.4464C322.911 11.4464 321.108 11.8093 319.423 12.535C317.738 13.2608 316.262 14.2587 314.993 15.5288C313.725 16.7989 312.729 18.2777 312.004 19.9651C311.279 21.6525 310.917 23.4579 310.917 25.3812C310.917 27.3045 311.279 29.1099 312.004 30.7973C312.729 32.4847 313.725 33.9635 314.993 35.2336C316.262 36.5037 317.738 37.5016 319.423 38.2274C321.108 38.9531 322.911 39.316 324.831 39.316C326.751 39.316 328.554 38.9531 330.239 38.2274C331.924 37.5016 333.4 36.5037 334.669 35.2336C335.937 33.9635 336.933 32.4847 337.658 30.7973C338.383 29.1099 338.745 27.3045 338.745 25.3812C338.745 22.5144 337.948 19.9016 336.353 17.5429C335.049 15.6196 333.382 14.1227 331.353 13.0521C329.324 11.9816 327.15 11.4464 324.831 11.4464V11.4464Z" fill="white"/>
        <path d="M324.831 45.9347H325.081V45.9332C327.811 45.9021 330.389 45.3608 332.812 44.3082C335.303 43.2256 337.477 41.7565 339.329 39.9009C341.182 38.0452 342.649 35.8686 343.73 33.3733C344.813 30.8731 345.354 28.2082 345.354 25.3812C345.354 23.289 345.061 21.2688 344.474 19.3214C343.886 17.3733 343.006 15.5359 341.832 13.81C339.926 10.9825 337.477 8.76845 334.487 7.17064C331.497 5.57236 328.277 4.77328 324.831 4.77328C322.008 4.77328 319.347 5.31507 316.85 6.39977C314.359 7.48246 312.176 8.96068 310.305 10.8343C308.435 12.7078 306.959 14.8934 305.878 17.3891C304.795 19.8893 304.254 22.5541 304.254 25.3812C304.254 28.2082 304.795 30.8731 305.878 33.3733C306.959 35.8692 308.435 38.046 310.306 39.9018C312.177 41.7569 314.359 43.2257 316.85 44.3082C319.347 45.3929 322.008 45.9347 324.831 45.9347ZM319.522 12.7646C321.174 12.0529 322.943 11.6964 324.831 11.6964C327.11 11.6964 329.244 12.2219 331.236 13.2733C333.229 14.3244 334.865 15.7933 336.146 17.6831C337.713 20.0002 338.495 22.564 338.495 25.3812C338.495 27.2722 338.139 29.0438 337.428 30.6986C336.716 32.3576 335.737 33.8098 334.492 35.0569C333.246 36.3041 331.796 37.2843 330.14 37.9978C328.488 38.7094 326.719 39.066 324.831 39.066C322.943 39.066 321.174 38.7094 319.522 37.9978C317.866 37.2843 316.416 36.3041 315.17 35.0569C313.925 33.8098 312.946 32.3576 312.234 30.6986C311.523 29.0438 311.167 27.2722 311.167 25.3812C311.167 23.4902 311.523 21.7186 312.234 20.0638C312.946 18.4048 313.925 16.9526 315.17 15.7055C316.416 14.4583 317.866 13.4781 319.522 12.7646Z" stroke="black" stroke-opacity="0.5" stroke-width="0.5"/>
        <path d="M382.226 5.24088C382.914 5.45861 383.467 5.83964 383.883 6.38397C384.3 6.9283 384.508 7.56335 384.508 8.28912V42.4186C384.508 43.3258 384.191 44.0878 383.557 44.7047C382.923 45.3216 382.171 45.6301 381.302 45.6301C380.432 45.6301 379.68 45.3216 379.046 44.7047C378.412 44.0878 378.095 43.3258 378.095 42.4186V18.958L369.725 31.7497C369.073 32.6932 368.185 33.165 367.062 33.165C365.939 33.165 365.051 32.6932 364.399 31.7497L356.029 18.958V42.4186C356.029 43.3258 355.711 44.0878 355.077 44.7047C354.443 45.3216 353.691 45.6301 352.822 45.6301C351.952 45.6301 351.2 45.3216 350.566 44.7047C349.932 44.0878 349.615 43.3258 349.615 42.4186V8.28912C349.615 7.56335 349.823 6.9283 350.24 6.38397C350.657 5.83964 351.209 5.45861 351.898 5.24088C352.586 5.05944 353.257 5.07759 353.909 5.29532C354.561 5.51304 355.086 5.93038 355.485 6.54727L367.062 24.1835L378.639 6.54727C379.037 5.93037 379.563 5.51304 380.215 5.29532C380.867 5.07759 381.537 5.05944 382.226 5.24088V5.24088Z" fill="white"/>
        <path d="M377.845 19.7966V42.4186C377.845 43.3913 378.188 44.2186 378.872 44.8839C379.552 45.5453 380.366 45.8801 381.302 45.8801C382.238 45.8801 383.052 45.5454 383.732 44.8839C384.415 44.2186 384.758 43.3913 384.758 42.4186V8.28912C384.758 7.51187 384.534 6.82262 384.082 6.23201C383.632 5.64468 383.036 5.23485 382.301 5.00252L382.226 5.24088L382.289 4.99914C381.556 4.80576 380.836 4.82448 380.136 5.05818C379.426 5.29506 378.856 5.75009 378.429 6.41074C378.429 6.41103 378.429 6.41132 378.429 6.41161L367.062 23.7279L355.695 6.41161C355.695 6.41136 355.695 6.41111 355.695 6.41086C355.267 5.75016 354.698 5.29507 353.988 5.05818C353.288 4.82448 352.568 4.80576 351.834 4.99914L351.834 4.99885L351.822 5.00252C351.088 5.23485 350.491 5.64468 350.042 6.23201C349.59 6.82262 349.365 7.51186 349.365 8.28912V42.4186C349.365 43.3913 349.708 44.2186 350.392 44.8839C351.072 45.5454 351.886 45.8801 352.822 45.8801C353.758 45.8801 354.572 45.5453 355.252 44.8839C355.936 44.2186 356.279 43.3913 356.279 42.4186V19.7966L364.189 31.8866L364.189 31.8866L364.193 31.8919C364.891 32.9012 365.854 33.415 367.062 33.415C368.269 33.415 369.233 32.9012 369.931 31.8919L369.931 31.8919L369.934 31.8866L377.845 19.7966Z" stroke="black" stroke-opacity="0.5" stroke-width="0.5"/>
        <path d="M421.848 39.4247C422.717 39.4247 423.46 39.7332 424.076 40.3501C424.692 40.967 425 41.729 425 42.6363C425 43.5072 424.692 44.2511 424.076 44.868C423.46 45.4849 422.699 45.7934 421.793 45.7934L392.933 45.6301C392.063 45.6301 391.32 45.3216 390.704 44.7047C390.089 44.0878 389.781 43.3257 389.781 42.4185V8.2891C389.781 7.41817 390.089 6.67427 390.704 6.05736C391.32 5.44045 392.063 5.13199 392.933 5.13199H421.793C422.699 5.13199 423.46 5.44045 424.076 6.05736C424.692 6.67427 425 7.41818 425 8.2891C425 9.19631 424.692 9.95838 424.076 10.5753C423.46 11.1922 422.699 11.5006 421.793 11.5006H396.14V22.2784H412.717C413.586 22.2784 414.338 22.5868 414.972 23.2037C415.606 23.8206 415.923 24.5646 415.923 25.4355C415.923 26.3427 415.606 27.1047 414.972 27.7216C414.338 28.3385 413.586 28.647 412.717 28.647H396.14V39.2614L421.848 39.4247Z" fill="white"/>
        <path d="M421.792 46.0434H421.793C422.763 46.0434 423.588 45.7105 424.253 45.0446C424.916 44.3809 425.25 43.5735 425.25 42.6363C425.25 41.6658 424.918 40.8393 424.253 40.1734C423.59 39.5099 422.784 39.175 421.849 39.1747C421.848 39.1747 421.848 39.1747 421.848 39.1747L396.39 39.013V28.897H412.717C413.653 28.897 414.467 28.5623 415.147 27.9008C415.83 27.2355 416.173 26.4082 416.173 25.4355C416.173 24.4959 415.828 23.6877 415.147 23.0245C414.467 22.3631 413.653 22.0284 412.717 22.0284H396.39V11.7506H421.793C422.763 11.7506 423.588 11.4178 424.253 10.7519C424.918 10.0861 425.25 9.25955 425.25 8.2891C425.25 7.35186 424.916 6.54444 424.253 5.88072C423.588 5.21484 422.763 4.88199 421.793 4.88199H392.933C391.997 4.88199 391.19 5.21698 390.528 5.88072C389.865 6.54444 389.531 7.35185 389.531 8.2891V42.4185C389.531 43.389 389.863 44.2155 390.528 44.8813C391.19 45.5449 391.996 45.8799 392.932 45.8801C392.932 45.8801 392.933 45.8801 392.933 45.8801L421.792 46.0434Z" stroke="black" stroke-opacity="0.5" stroke-width="0.5"/>
    </g>
    <g filter="url(#filter2_d)">
        <path d="M94.1618 15.3687H88.539L90.8595 10.0056L93.0015 5H87.5572H71.849H66.4047H60.8712H55.4268H37.1304L46.234 26.3631L38.4692 44.5084L27.5805 20.3743L20.7082 5H15.2639L38.5584 56.933L49.0008 32.7095L51.6783 26.3631L49.0008 20.0168L44.7167 10.0056H53.2848H58.7291H64.2627H69.707H85.4152L83.0947 15.3687H67.4757H62.0314H56.4086H52.0353L54.2666 20.3743L57.2119 26.8101L54.5343 32.9777L51.8568 39.4134L41.4144 63.9944H35.6131L12.5863 10.0056L10.6228 5H5L32.4001 69H44.7167L54.5344 45.7598L64.4412 69H76.8471L97.4641 20.3743L99.6061 15.3687H94.1618ZM59.7109 20.3743H59.8894H65.3337H80.9526L70.5995 44.5084L62.6562 26.8101L59.8001 20.5531L59.7109 20.3743ZM73.5448 63.9944H67.7435L57.3011 39.4134L59.9786 33.0671L70.6888 56.933L86.397 20.3743H92.0198L73.5448 63.9944Z" fill="#0170FE" fill-opacity="0.5"/>
        <path d="M91.089 10.1049L91.0894 10.1039L93.2314 5.09835L93.3804 4.75H93.0015H87.5572H71.849H66.4047H60.8712H55.4268H37.1304H36.7521L36.9004 5.09801L45.9622 26.3629L38.4631 43.8871L27.8088 20.2723L27.8084 20.2715L20.9364 4.89798L20.8703 4.75H20.7082H15.2639H14.8778L15.0358 5.10232L38.3303 57.0353L38.563 57.554L38.788 57.0319L49.2304 32.8085L49.2311 32.8067L51.9087 26.4603L51.9497 26.3631L51.9087 26.266L49.2311 19.9196L49.2306 19.9184L45.0956 10.2556H53.2848H58.7291H64.2627H69.707H85.0346L82.9304 15.1187H67.4757H62.0314H56.4086H52.0353H51.6502L51.807 15.4705L54.0382 20.4761L54.0393 20.4783L56.9382 26.8127L54.305 32.8781L54.305 32.8781L54.3035 32.8816L51.6267 39.3157L51.626 39.3174L41.249 63.7444H35.7783L12.8177 9.91087L10.8556 4.90871L10.7933 4.75H10.6228H5H4.62102L4.77018 5.09839L32.1703 69.0984L32.2352 69.25H32.4001H44.7167H44.8825L44.947 69.0973L54.5354 46.3998L64.2112 69.098L64.276 69.25H64.4412H76.8471H77.0127L77.0773 69.0976L97.694 20.4727L97.6943 20.4719L99.836 15.4671L99.9851 15.1187H99.6061H94.1618H88.9195L91.089 10.1049ZM60.1075 20.6243H65.3337H80.5733L70.5943 43.8863L62.8843 26.7077L62.8836 26.7063L60.1075 20.6243ZM59.9857 33.6934L70.4607 57.0353L70.6937 57.5547L70.9185 57.0317L86.5617 20.6243H91.6424L73.3792 63.7444H67.9089L57.5726 39.4131L59.9857 33.6934Z" stroke="black" stroke-opacity="0.5" stroke-width="0.5"/>
    </g>
    <g filter="url(#filter3_d)">
        <path d="M114.879 69V5H116.247V69H114.879Z" fill="white" shape-rendering="crispEdges"/>
        <path d="M114.629 69V69.25H114.879H116.247H116.497V69V5V4.75H116.247H114.879H114.629V5V69Z" stroke="black" stroke-opacity="0.5" stroke-width="0.5" shape-rendering="crispEdges"/>
    </g>
    <defs>
        <filter id="filter0_d" x="136.788" y="54.4614" width="289.212" height="15.5383" filterUnits="userSpaceOnUse" color-interpolation-filters="sRGB">
            <feFlood flood-opacity="0" result="BackgroundImageFix"/>
            <feColorMatrix in="SourceAlpha" type="matrix" values="0 0 0 0 0 0 0 0 0 0 0 0 0 0 0 0 0 0 127 0" result="hardAlpha"/>
            <feOffset/>
            <feGaussianBlur stdDeviation="0.5"/>
            <feComposite in2="hardAlpha" operator="out"/>
            <feColorMatrix type="matrix" values="0 0 0 0 0 0 0 0 0 0 0 0 0 0 0 0 0 0 1 0"/>
            <feBlend mode="normal" in2="BackgroundImageFix" result="effect1_dropShadow"/>
            <feBlend mode="normal" in="SourceGraphic" in2="effect1_dropShadow" result="shape"/>
        </filter>
        <filter id="filter1_d" x="133.288" y="0.499985" width="296.212" height="49.7934" filterUnits="userSpaceOnUse" color-interpolation-filters="sRGB">
            <feFlood flood-opacity="0" result="BackgroundImageFix"/>
            <feColorMatrix in="SourceAlpha" type="matrix" values="0 0 0 0 0 0 0 0 0 0 0 0 0 0 0 0 0 0 127 0" result="hardAlpha"/>
            <feOffset/>
            <feGaussianBlur stdDeviation="2"/>
            <feComposite in2="hardAlpha" operator="out"/>
            <feColorMatrix type="matrix" values="0 0 0 0 0 0 0 0 0 0 0 0 0 0 0 0 0 0 0.25 0"/>
            <feBlend mode="normal" in2="BackgroundImageFix" result="effect1_dropShadow"/>
            <feBlend mode="normal" in="SourceGraphic" in2="effect1_dropShadow" result="shape"/>
        </filter>
        <filter id="filter2_d" x="0.242035" y="0.5" width="104.122" height="73" filterUnits="userSpaceOnUse" color-interpolation-filters="sRGB">
            <feFlood flood-opacity="0" result="BackgroundImageFix"/>
            <feColorMatrix in="SourceAlpha" type="matrix" values="0 0 0 0 0 0 0 0 0 0 0 0 0 0 0 0 0 0 127 0" result="hardAlpha"/>
            <feOffset/>
            <feGaussianBlur stdDeviation="2"/>
            <feComposite in2="hardAlpha" operator="out"/>
            <feColorMatrix type="matrix" values="0 0 0 0 0 0 0 0 0 0 0 0 0 0 0 0 0 0 0.25 0"/>
            <feBlend mode="normal" in2="BackgroundImageFix" result="effect1_dropShadow"/>
            <feBlend mode="normal" in="SourceGraphic" in2="effect1_dropShadow" result="shape"/>
        </filter>
        <filter id="filter3_d" x="110.379" y="0.5" width="10.3677" height="73" filterUnits="userSpaceOnUse" color-interpolation-filters="sRGB">
            <feFlood flood-opacity="0" result="BackgroundImageFix"/>
            <feColorMatrix in="SourceAlpha" type="matrix" values="0 0 0 0 0 0 0 0 0 0 0 0 0 0 0 0 0 0 127 0" result="hardAlpha"/>
            <feOffset/>
            <feGaussianBlur stdDeviation="2"/>
            <feComposite in2="hardAlpha" operator="out"/>
            <feColorMatrix type="matrix" values="0 0 0 0 0 0 0 0 0 0 0 0 0 0 0 0 0 0 0.25 0"/>
            <feBlend mode="normal" in2="BackgroundImageFix" result="effect1_dropShadow"/>
            <feBlend mode="normal" in="SourceGraphic" in2="effect1_dropShadow" result="shape"/>
        </filter>
    </defs>
</svg>
