<svg width="95" height="64" viewBox="0 0 95 64" fill="none" xmlns="http://www.w3.org/2000/svg">
    <path d="M89.1618 10.3687H83.539L85.8595 5.00559L88.0015 0H82.5572H66.849H61.4047H55.8712H50.4268H32.1304L41.234 21.3631L33.4692 39.5084L22.5805 15.3743L15.7082 0H10.2639L33.5584 51.933L44.0008 27.7095L46.6783 21.3631L44.0008 15.0168L39.7167 5.00557H48.2848H53.7291H59.2627H64.707H80.4152L78.0947 10.3687H62.4757H57.0314H51.4086H47.0353L49.2666 15.3743L52.2119 21.8101L49.5343 27.9777L46.8568 34.4134L36.4144 58.9944H30.6131L7.58634 5.00557L5.62283 0H0L27.4001 64H39.7167L49.5344 40.7598L59.4412 64H71.8471L92.4641 15.3743L94.6061 10.3687H89.1618ZM54.7109 15.3743H54.8894H60.3337H75.9526L65.5995 39.5084L57.6562 21.8101L54.8001 15.5531L54.7109 15.3743ZM68.5448 58.9944H62.7435L52.3011 34.4134L54.9786 28.0671L65.6888 51.933L81.397 15.3743H87.0198L68.5448 58.9944Z" fill="white"/>
</svg>
