<svg width="420" height="64" viewBox="0 0 420 64" fill="none" xmlns="http://www.w3.org/2000/svg">
    <path d="M137.717 61.4255C136.982 61.4255 136.311 61.3044 135.706 61.0621C135.101 60.8198 134.582 60.4664 134.149 60.002C133.715 59.5376 133.38 58.9647 133.143 58.2832C132.906 57.6017 132.788 56.8218 132.788 55.9435C132.788 55.0651 132.922 54.2852 133.189 53.6037C133.456 52.9223 133.816 52.3493 134.27 51.8849C134.723 51.4205 135.253 51.0671 135.858 50.8248C136.462 50.5825 137.108 50.4614 137.793 50.4614C138.227 50.4614 138.617 50.4916 138.965 50.5522C139.313 50.6128 139.615 50.6835 139.872 50.7642C140.129 50.845 140.338 50.9258 140.5 51.0066C140.661 51.0873 140.772 51.1479 140.832 51.1883L140.409 52.3998C140.318 52.3392 140.187 52.2736 140.016 52.2029C139.844 52.1322 139.65 52.0616 139.434 51.9909C139.217 51.9202 138.98 51.8622 138.723 51.8168C138.466 51.7713 138.206 51.7486 137.944 51.7486C137.39 51.7486 136.891 51.8445 136.447 52.0363C136.004 52.2282 135.626 52.5058 135.313 52.8693C135.001 53.2327 134.761 53.6744 134.595 54.1943C134.429 54.7143 134.345 55.2973 134.345 55.9435C134.345 56.5694 134.419 57.1398 134.565 57.6547C134.711 58.1696 134.93 58.6113 135.222 58.9798C135.515 59.3483 135.88 59.6335 136.319 59.8354C136.757 60.0374 137.269 60.1383 137.854 60.1383C138.529 60.1383 139.088 60.0676 139.532 59.9263C139.976 59.7849 140.308 59.6587 140.53 59.5477L140.908 60.7592C140.837 60.8097 140.711 60.8728 140.53 60.9485C140.349 61.0242 140.122 61.0974 139.85 61.1681C139.577 61.2388 139.26 61.2993 138.897 61.3498C138.534 61.4003 138.141 61.4255 137.717 61.4255H137.717Z" fill="white"/>
    <path d="M154.033 57.9875C153.831 58.4519 153.622 58.8886 153.405 59.2975C153.188 59.7064 152.931 60.0622 152.634 60.3651C152.337 60.668 151.979 60.9053 151.56 61.0769C151.142 61.2485 150.625 61.3343 150.011 61.3343C149.89 61.3343 149.764 61.3268 149.633 61.3116C149.501 61.2965 149.375 61.2763 149.254 61.251C149.134 61.2258 149.028 61.198 148.937 61.1677C148.846 61.1375 148.781 61.1072 148.74 61.0769L148.997 59.8351C149.128 59.8856 149.287 59.9361 149.474 59.9865C149.66 60.037 149.854 60.0622 150.056 60.0622C150.358 60.0622 150.623 60.0244 150.85 59.9487C151.077 59.8729 151.281 59.7669 151.462 59.6306C151.644 59.4943 151.805 59.3278 151.946 59.1309C152.087 58.934 152.223 58.7144 152.354 58.4721C151.911 57.7553 151.492 57.041 151.099 56.3293C150.706 55.6175 150.343 54.9285 150.011 54.2621C149.678 53.5958 149.375 52.9623 149.103 52.3616C148.831 51.7609 148.589 51.2081 148.377 50.7033H150.041C150.373 51.5817 150.799 52.561 151.318 53.6412C151.838 54.7215 152.415 55.8522 153.05 57.0334C153.453 56.1147 153.839 55.1026 154.207 53.9971C154.575 52.8916 154.92 51.7937 155.242 50.7033H156.83C156.598 51.4302 156.366 52.1142 156.135 52.7553C155.903 53.3964 155.671 54.0123 155.439 54.6029C155.207 55.1935 154.975 55.7689 154.743 56.3293C154.512 56.8896 154.275 57.4423 154.033 57.9875V57.9875Z" fill="white"/>
    <path d="M168.02 61.2891C167.809 61.2891 167.579 61.284 167.332 61.2739C167.085 61.2638 166.838 61.2487 166.591 61.2285C166.344 61.2083 166.1 61.183 165.858 61.1527C165.616 61.1225 165.394 61.0821 165.193 61.0316V50.8549C165.394 50.8044 165.616 50.7641 165.858 50.7338C166.1 50.7035 166.344 50.6782 166.591 50.658C166.838 50.6378 167.083 50.6227 167.325 50.6126C167.567 50.6025 167.794 50.5975 168.005 50.5975C168.61 50.5975 169.177 50.6429 169.706 50.7338C170.236 50.8246 170.694 50.9786 171.082 51.1956C171.47 51.4127 171.775 51.6979 171.997 52.0513C172.219 52.4046 172.33 52.8388 172.33 53.3537C172.33 53.9291 172.194 54.4011 171.922 54.7696C171.649 55.1381 171.286 55.4132 170.833 55.5949C171.448 55.7767 171.937 56.0644 172.3 56.4582C172.663 56.8519 172.844 57.4072 172.844 58.124C172.844 59.1739 172.458 59.9639 171.687 60.494C170.916 61.024 169.694 61.289 168.02 61.289V61.2891ZM166.644 56.3067V60.0018C166.755 60.0119 166.886 60.022 167.037 60.0321C167.168 60.0422 167.322 60.0498 167.499 60.0548C167.675 60.0599 167.879 60.0624 168.111 60.0624C168.545 60.0624 168.955 60.0346 169.343 59.9791C169.732 59.9236 170.072 59.8251 170.364 59.6838C170.656 59.5425 170.891 59.3456 171.067 59.0932C171.244 58.8408 171.332 58.5228 171.332 58.1391C171.332 57.7959 171.266 57.5056 171.135 57.2684C171.004 57.0311 170.815 56.8418 170.568 56.7005C170.321 56.5591 170.026 56.4581 169.684 56.3976C169.341 56.337 168.958 56.3067 168.534 56.3067H166.644ZM166.644 55.1255H168.187C168.55 55.1255 168.892 55.1002 169.215 55.0498C169.537 54.9993 169.817 54.9084 170.054 54.7772C170.291 54.6459 170.477 54.4743 170.614 54.2623C170.75 54.0503 170.818 53.7827 170.818 53.4597C170.818 53.1568 170.747 52.9019 170.606 52.6949C170.465 52.4879 170.271 52.3213 170.024 52.1951C169.777 52.0689 169.487 51.9755 169.154 51.915C168.822 51.8544 168.469 51.8241 168.096 51.8241C167.723 51.8241 167.431 51.8292 167.219 51.8393C167.007 51.8493 166.816 51.8645 166.644 51.8847V55.1255Z" fill="white"/>
    <path d="M181.8 61.198V50.7033H188.196V51.9603H183.267V55.0799H187.652V56.3066H183.267V59.9411H188.574V61.198H181.8Z" fill="white"/>
    <path d="M203.909 50.7033H205.376V61.198H203.909V56.352H198.783V61.198H197.316V50.7033H198.783V55.0799H203.909V50.7033Z" fill="white"/>
    <path d="M215.326 61.198V50.7033H216.763V58.4721C217.085 57.937 217.481 57.3262 217.95 56.6397C218.419 55.9532 218.918 55.2541 219.447 54.5423C219.976 53.8305 220.51 53.139 221.05 52.4676C221.589 51.7962 222.096 51.2081 222.569 50.7033H223.734V61.198H222.297V53.0052C222.015 53.3283 221.707 53.7018 221.375 54.1258C221.042 54.5499 220.699 55.0017 220.347 55.4812C219.994 55.9608 219.638 56.458 219.281 56.9729C218.923 57.4878 218.577 57.9951 218.245 58.4949C217.912 58.9946 217.602 59.4767 217.315 59.9411C217.027 60.4055 216.773 60.8245 216.551 61.198H215.326Z" fill="white"/>
    <path d="M236.362 50.5975C237.834 50.5975 238.966 50.8776 239.757 51.438C240.548 51.9983 240.944 52.8337 240.944 53.9443C240.944 54.55 240.836 55.0674 240.619 55.4965C240.402 55.9256 240.09 56.2739 239.681 56.5414C239.273 56.809 238.777 57.0033 238.192 57.1245C237.607 57.2456 236.947 57.3062 236.211 57.3062H235.047V61.1982H233.58V50.8549C233.993 50.7539 234.454 50.6858 234.964 50.6505C235.473 50.6151 235.939 50.5975 236.362 50.5975V50.5975ZM236.483 51.8847C235.858 51.8847 235.379 51.8998 235.047 51.9301V56.0493H236.151C236.655 56.0493 237.108 56.0165 237.511 55.9508C237.915 55.8852 238.255 55.7741 238.532 55.6177C238.809 55.4612 239.024 55.2466 239.175 54.9741C239.326 54.7015 239.402 54.3531 239.402 53.9291C239.402 53.5253 239.323 53.1921 239.167 52.9296C239.011 52.6671 238.799 52.4576 238.532 52.3011C238.265 52.1447 237.955 52.0361 237.602 51.9756C237.249 51.915 236.876 51.8847 236.483 51.8847V51.8847Z" fill="white"/>
    <path d="M255.824 57.9118C255.824 57.4878 255.748 57.1344 255.597 56.8517C255.446 56.5691 255.229 56.3469 254.947 56.1854C254.665 56.0239 254.33 55.9103 253.941 55.8447C253.553 55.7791 253.127 55.7462 252.664 55.7462C252.492 55.7462 252.308 55.7462 252.112 55.7462C251.915 55.7462 251.726 55.7563 251.545 55.7765V59.9714C251.887 60.0017 252.145 60.0168 252.316 60.0168C252.487 60.0168 252.689 60.0168 252.921 60.0168C253.294 60.0168 253.657 59.9865 254.009 59.9259C254.362 59.8654 254.672 59.7543 254.939 59.5928C255.207 59.4312 255.421 59.2167 255.582 58.9492C255.743 58.6816 255.824 58.3358 255.824 57.9118H255.824ZM257.366 57.9118C257.366 58.4772 257.26 58.9719 257.049 59.3959C256.837 59.8199 256.535 60.1733 256.142 60.456C255.748 60.7387 255.27 60.9507 254.705 61.092C254.14 61.2334 253.505 61.3041 252.8 61.3041C252.376 61.3041 251.923 61.2864 251.439 61.2511C250.955 61.2157 250.501 61.1476 250.078 61.0466V50.7034H251.545V54.5196C251.726 54.4994 251.92 54.4868 252.127 54.4818C252.334 54.4767 252.528 54.4742 252.709 54.4742C255.814 54.4742 257.366 55.6201 257.366 57.9118V57.9118ZM258.954 50.7033H260.421V61.198H258.954V50.7033Z" fill="white"/>
    <path d="M279.352 61.198V50.7033H280.789V58.4721C281.112 57.937 281.507 57.3262 281.976 56.6397C282.445 55.9532 282.944 55.2541 283.473 54.5423C284.002 53.8305 284.536 53.139 285.076 52.4676C285.615 51.7962 286.122 51.2081 286.595 50.7033H287.76V61.198H286.323V53.0052C286.041 53.3283 285.734 53.7018 285.401 54.1258C285.068 54.5499 284.726 55.0017 284.373 55.4812C284.02 55.9608 283.665 56.458 283.307 56.9729C282.949 57.4878 282.604 57.9951 282.271 58.4949C281.938 58.9946 281.628 59.4767 281.341 59.9411C281.054 60.4055 280.799 60.8245 280.577 61.198H279.352Z" fill="white"/>
    <path d="M314.304 50.7033V61.198H312.837V51.9603H307.802V61.198H306.335V50.7033H314.304Z" fill="white"/>
    <path d="M323.931 55.9435C323.931 55.0449 324.065 54.2524 324.332 53.5659C324.599 52.8794 324.962 52.3064 325.42 51.847C325.879 51.3877 326.413 51.0419 327.023 50.8097C327.633 50.5775 328.281 50.4614 328.966 50.4614C329.642 50.4614 330.279 50.5775 330.879 50.8097C331.479 51.0419 332.006 51.3877 332.459 51.847C332.913 52.3064 333.273 52.8794 333.54 53.5659C333.808 54.2524 333.941 55.0449 333.941 55.9435C333.941 56.842 333.808 57.6345 333.54 58.3211C333.273 59.0076 332.913 59.5805 332.459 60.0399C332.006 60.4992 331.479 60.845 330.879 61.0772C330.279 61.3095 329.642 61.4255 328.966 61.4255C328.281 61.4255 327.633 61.3095 327.023 61.0772C326.413 60.845 325.879 60.4993 325.42 60.0399C324.962 59.5805 324.599 59.0076 324.332 58.3211C324.065 57.6345 323.931 56.842 323.931 55.9435ZM325.473 55.9435C325.473 56.5795 325.554 57.1575 325.715 57.6774C325.877 58.1974 326.106 58.6391 326.403 59.0025C326.701 59.366 327.064 59.6462 327.492 59.843C327.92 60.0399 328.402 60.1383 328.936 60.1383C329.47 60.1383 329.949 60.0399 330.373 59.843C330.796 59.6462 331.156 59.366 331.454 59.0025C331.751 58.6391 331.98 58.1974 332.142 57.6774C332.303 57.1575 332.384 56.5795 332.384 55.9435C332.384 55.3074 332.303 54.7294 332.142 54.2095C331.98 53.6896 331.751 53.2479 331.454 52.8844C331.156 52.5209 330.796 52.2408 330.373 52.0439C329.949 51.847 329.47 51.7486 328.936 51.7486C328.402 51.7486 327.92 51.847 327.492 52.0439C327.064 52.2408 326.701 52.5209 326.403 52.8844C326.106 53.2479 325.877 53.6896 325.715 54.2095C325.554 54.7294 325.473 55.3074 325.473 55.9435Z" fill="white"/>
    <path d="M343.951 61.198V63.9996H342.56V59.9411H343.664C344.178 59.3555 344.573 58.7069 344.851 57.9951C345.128 57.2833 345.329 56.5312 345.455 55.7387C345.581 54.9461 345.657 54.1259 345.682 53.2778C345.708 52.4297 345.725 51.5716 345.735 50.7033H351.663V59.9411H352.978V63.9996H351.587V61.198H343.951ZM347.172 51.9603C347.142 52.6266 347.109 53.3055 347.073 53.9971C347.038 54.6887 346.963 55.3752 346.847 56.0567C346.731 56.7382 346.562 57.407 346.34 58.0633C346.118 58.7195 345.806 59.3454 345.403 59.9411H350.196V51.9603H347.172Z" fill="white"/>
    <path d="M368.8 61.198C368.628 60.7437 368.467 60.297 368.316 59.8578C368.164 59.4186 368.008 58.9719 367.847 58.5176H363.099L362.146 61.198H360.619C361.022 60.0875 361.4 59.0602 361.753 58.1163C362.106 57.1723 362.451 56.2763 362.789 55.4282C363.127 54.5802 363.462 53.77 363.794 52.9976C364.127 52.2253 364.475 51.4605 364.838 50.7033H366.184C366.547 51.4605 366.894 52.2253 367.227 52.9976C367.56 53.77 367.895 54.5802 368.233 55.4282C368.57 56.2763 368.915 57.1723 369.268 58.1163C369.621 59.0602 369.999 60.0875 370.402 61.198H368.8ZM367.424 57.306C367.101 56.4277 366.781 55.5771 366.463 54.7543C366.146 53.9315 365.816 53.1415 365.473 52.3843C365.12 53.1415 364.785 53.9315 364.467 54.7543C364.15 55.5771 363.835 56.4277 363.522 57.306H367.424Z" fill="white"/>
    <path d="M381.704 50.5975C383.176 50.5975 384.307 50.8776 385.099 51.438C385.89 51.9983 386.286 52.8337 386.286 53.9443C386.286 54.55 386.177 55.0674 385.96 55.4965C385.744 55.9256 385.431 56.2739 385.023 56.5414C384.615 56.809 384.118 57.0033 383.534 57.1245C382.949 57.2456 382.289 57.3062 381.553 57.3062H380.388V61.1982H378.922V50.8549C379.335 50.7539 379.796 50.6858 380.305 50.6505C380.814 50.6151 381.28 50.5975 381.704 50.5975V50.5975ZM381.825 51.8847C381.2 51.8847 380.721 51.8998 380.388 51.9301V56.0493H381.492C381.996 56.0493 382.45 56.0165 382.853 55.9508C383.256 55.8852 383.597 55.7741 383.874 55.6177C384.151 55.4612 384.365 55.2466 384.516 54.9741C384.668 54.7015 384.743 54.3531 384.743 53.9291C384.743 53.5253 384.665 53.1921 384.509 52.9296C384.353 52.6671 384.141 52.4576 383.874 52.3011C383.607 52.1447 383.297 52.0361 382.944 51.9756C382.591 51.915 382.218 51.8847 381.825 51.8847V51.8847Z" fill="white"/>
    <path d="M402.843 50.7033C402.53 51.0466 402.178 51.4277 401.785 51.8467C401.391 52.2657 400.981 52.6947 400.552 53.1339C400.124 53.5731 399.698 54.0047 399.274 54.4287C398.851 54.8527 398.453 55.2465 398.08 55.6099C398.513 55.9128 398.972 56.2863 399.456 56.7306C399.94 57.1748 400.414 57.6493 400.877 58.1541C401.341 58.6589 401.777 59.1738 402.185 59.6988C402.593 60.2238 402.934 60.7235 403.206 61.198H401.482C401.18 60.7235 400.832 60.2465 400.439 59.7669C400.046 59.2874 399.63 58.828 399.191 58.3888C398.753 57.9496 398.309 57.5433 397.861 57.1698C397.412 56.7962 396.976 56.4782 396.553 56.2157V61.198H395.086V50.7033H396.553V55.3373C396.905 55.0042 397.294 54.6281 397.717 54.2091C398.14 53.7901 398.559 53.3686 398.972 52.9446C399.385 52.5206 399.776 52.1142 400.144 51.7255C400.512 51.3368 400.822 50.9961 401.074 50.7033L402.843 50.7033Z" fill="white"/>
    <path d="M411.593 61.198V50.7033H413.029V58.4721C413.352 57.937 413.747 57.3262 414.216 56.6397C414.685 55.9532 415.184 55.2541 415.713 54.5423C416.242 53.8305 416.777 53.139 417.316 52.4676C417.855 51.7962 418.362 51.2081 418.836 50.7033H420V61.198H418.564V53.0052C418.281 53.3283 417.974 53.7018 417.641 54.1258C417.308 54.5499 416.966 55.0017 416.613 55.4812C416.26 55.9608 415.905 56.458 415.547 56.9729C415.189 57.4878 414.844 57.9951 414.511 58.4949C414.178 58.9946 413.868 59.4767 413.581 59.9411C413.294 60.4055 413.039 60.8245 412.817 61.198H411.593Z" fill="white"/>
    <path d="M176.073 0.0777609C176.942 0.259204 177.612 0.730955 178.083 1.49302C178.555 2.25508 178.699 3.07158 178.518 3.94251L170.474 38.2897C170.293 38.9066 169.958 39.4418 169.469 39.8954C168.98 40.3491 168.409 40.6303 167.757 40.7391H167.322C166.742 40.7391 166.199 40.5849 165.691 40.2765C165.184 39.968 164.786 39.5598 164.496 39.0517L155.691 22.5586L146.886 39.0517C146.56 39.6686 146.098 40.1222 145.5 40.4126C144.902 40.7029 144.277 40.8117 143.625 40.7392C142.973 40.6303 142.402 40.3491 141.913 39.8955C141.424 39.4418 141.089 38.9066 140.907 38.2897L132.863 3.94251C132.682 3.07158 132.827 2.25509 133.298 1.49302C133.769 0.730965 134.422 0.259204 135.255 0.0777609C136.125 -0.103682 136.94 0.0324113 137.701 0.486013C138.462 0.939626 138.933 1.60189 139.114 2.47281L145.201 28.4917L152.865 14.2303C153.155 13.7223 153.544 13.314 154.033 13.0056C154.522 12.6971 155.075 12.5429 155.691 12.5429C156.307 12.5429 156.859 12.6971 157.349 13.0056C157.838 13.314 158.227 13.7223 158.517 14.2303L166.126 28.4917L172.268 2.47281C172.449 1.60188 172.92 0.939616 173.681 0.486013C174.442 0.0324012 175.239 -0.103682 176.073 0.0777609H176.073Z" fill="white"/>
    <path d="M215.477 34.4247C216.347 34.4247 217.089 34.7332 217.705 35.3501C218.321 35.967 218.629 36.729 218.629 37.6363C218.629 38.5072 218.321 39.2511 217.705 39.868C217.089 40.4849 216.329 40.7934 215.423 40.7934L186.562 40.6301C185.693 40.6301 184.95 40.3216 184.334 39.7047C183.718 39.0878 183.41 38.3257 183.41 37.4185V3.2891C183.41 2.41817 183.718 1.67427 184.334 1.05736C184.95 0.440453 185.693 0.131989 186.562 0.131989H215.423C216.329 0.131989 217.089 0.440453 217.705 1.05736C218.321 1.67427 218.629 2.41818 218.629 3.2891C218.629 4.19631 218.321 4.95838 217.705 5.57528C217.089 6.19219 216.329 6.50064 215.423 6.50064H189.769V17.2784H206.346C207.216 17.2784 207.968 17.5868 208.602 18.2037C209.236 18.8206 209.553 19.5646 209.553 20.4355C209.553 21.3427 209.236 22.1047 208.602 22.7216C207.968 23.3385 207.216 23.647 206.346 23.647H189.769V34.2614L215.477 34.4247Z" fill="white"/>
    <path d="M255.588 34.207C256.458 34.207 257.21 34.5245 257.844 35.1596C258.478 35.7946 258.795 36.5476 258.795 37.4185C258.795 38.3257 258.478 39.0878 257.844 39.7047C257.21 40.3216 256.458 40.6301 255.588 40.6301H226.782C225.912 40.6301 225.161 40.3216 224.526 39.7047C223.892 39.0878 223.575 38.3257 223.575 37.4185V3.2891C223.575 2.41817 223.892 1.67427 224.526 1.05736C225.161 0.440453 225.912 0.131989 226.782 0.131989C227.652 0.131989 228.404 0.440453 229.038 1.05736C229.672 1.67427 229.989 2.41818 229.989 3.2891V34.207H255.588Z" fill="white"/>
    <path d="M278.144 40.6847C275.354 40.6847 272.727 40.1494 270.263 39.0789C267.799 38.0084 265.643 36.5568 263.795 34.7243C261.947 32.8917 260.489 30.7416 259.42 28.274C258.351 25.8063 257.816 23.1754 257.816 20.3812C257.816 17.587 258.351 14.956 259.42 12.4884C260.489 10.0208 261.947 7.86163 263.795 6.01091C265.643 4.16019 267.799 2.69957 270.263 1.62906C272.727 0.558553 275.354 0.0232849 278.144 0.0232849C281.55 0.0232849 284.72 0.812565 287.655 2.39112C290.59 3.96967 293.018 6.15606 294.938 8.95028C295.446 9.67606 295.609 10.4744 295.427 11.3453C295.246 12.2163 294.793 12.9057 294.069 13.4138C293.344 13.9218 292.556 14.0851 291.704 13.9037C290.853 13.7222 290.173 13.2686 289.666 12.5428C288.362 10.6196 286.695 9.12265 284.666 8.05214C282.637 6.98163 280.463 6.44637 278.144 6.44637C276.223 6.44637 274.421 6.80925 272.736 7.53502C271.051 8.2608 269.574 9.25873 268.306 10.5288C267.038 11.7989 266.042 13.2777 265.317 14.9651C264.592 16.6525 264.23 18.4579 264.23 20.3812C264.23 22.3045 264.592 24.1098 265.317 25.7973C266.042 27.4847 267.038 28.9634 268.306 30.2335C269.574 31.5036 271.051 32.5016 272.736 33.2274C274.421 33.9531 276.223 34.316 278.144 34.316C280.499 34.316 282.7 33.7626 284.747 32.6558C286.795 31.549 288.47 29.9977 289.775 28.0018C290.282 27.276 290.962 26.8224 291.813 26.641C292.665 26.4595 293.453 26.6047 294.177 27.0764C294.902 27.5845 295.364 28.274 295.563 29.1449C295.763 30.0158 295.609 30.8142 295.101 31.5399C293.217 34.4067 290.78 36.6476 287.791 38.2624C284.802 39.8772 281.586 40.6847 278.144 40.6847V40.6847Z" fill="white"/>
    <path d="M319.831 40.6847C317.041 40.6847 314.414 40.1494 311.95 39.0789C309.486 38.0084 307.33 36.5568 305.482 34.7243C303.634 32.8917 302.176 30.7416 301.107 28.274C300.038 25.8063 299.504 23.1754 299.504 20.3812C299.504 17.587 300.038 14.956 301.107 12.4884C302.176 10.0208 303.634 7.86163 305.482 6.01091C307.33 4.16019 309.486 2.69957 311.95 1.62906C314.414 0.558553 317.041 0.0232849 319.831 0.0232849C323.237 0.0232849 326.417 0.812565 329.37 2.39112C332.323 3.96967 334.741 6.15606 336.625 8.95028C337.785 10.6558 338.655 12.4703 339.234 14.3936C339.814 16.3169 340.104 18.3127 340.104 20.3812C340.104 23.1754 339.57 25.8063 338.501 28.2739C337.432 30.7416 335.982 32.8917 334.153 34.7242C332.323 36.5568 330.176 38.0084 327.712 39.0789C325.248 40.1494 322.621 40.6847 319.831 40.6847V40.6847ZM319.831 6.44637C317.911 6.44637 316.108 6.80925 314.423 7.53502C312.738 8.2608 311.262 9.25875 309.993 10.5288C308.725 11.7989 307.729 13.2777 307.004 14.9651C306.279 16.6525 305.917 18.4579 305.917 20.3812C305.917 22.3045 306.279 24.1099 307.004 25.7973C307.729 27.4847 308.725 28.9635 309.993 30.2336C311.262 31.5037 312.738 32.5016 314.423 33.2274C316.108 33.9531 317.911 34.316 319.831 34.316C321.751 34.316 323.554 33.9531 325.239 33.2274C326.924 32.5016 328.4 31.5037 329.669 30.2336C330.937 28.9635 331.933 27.4847 332.658 25.7973C333.383 24.1099 333.745 22.3045 333.745 20.3812C333.745 17.5144 332.948 14.9016 331.353 12.5429C330.049 10.6196 328.382 9.12265 326.353 8.05214C324.324 6.98163 322.15 6.44637 319.831 6.44637V6.44637Z" fill="white"/>
    <path d="M377.226 0.240882C377.914 0.458609 378.467 0.839645 378.883 1.38397C379.3 1.9283 379.508 2.56335 379.508 3.28912V37.4186C379.508 38.3258 379.191 39.0878 378.557 39.7047C377.923 40.3216 377.171 40.6301 376.302 40.6301C375.432 40.6301 374.68 40.3216 374.046 39.7047C373.412 39.0878 373.095 38.3258 373.095 37.4186V13.958L364.725 26.7497C364.073 27.6932 363.185 28.165 362.062 28.165C360.939 28.165 360.051 27.6932 359.399 26.7497L351.029 13.958V37.4186C351.029 38.3258 350.711 39.0878 350.077 39.7047C349.443 40.3216 348.691 40.6301 347.822 40.6301C346.952 40.6301 346.2 40.3216 345.566 39.7047C344.932 39.0878 344.615 38.3258 344.615 37.4186V3.28912C344.615 2.56335 344.823 1.9283 345.24 1.38397C345.657 0.839645 346.209 0.458609 346.898 0.240882C347.586 0.0594387 348.257 0.0775878 348.909 0.295315C349.561 0.513043 350.086 0.930377 350.485 1.54727L362.062 19.1835L373.639 1.54727C374.037 0.930367 374.563 0.513043 375.215 0.295315C375.867 0.0775878 376.537 0.0594387 377.226 0.240882V0.240882Z" fill="white"/>
    <path d="M416.848 34.4247C417.717 34.4247 418.46 34.7332 419.076 35.3501C419.692 35.967 420 36.729 420 37.6363C420 38.5072 419.692 39.2511 419.076 39.868C418.46 40.4849 417.699 40.7934 416.793 40.7934L387.933 40.6301C387.063 40.6301 386.32 40.3216 385.704 39.7047C385.089 39.0878 384.781 38.3257 384.781 37.4185V3.2891C384.781 2.41817 385.089 1.67427 385.704 1.05736C386.32 0.440453 387.063 0.131989 387.933 0.131989H416.793C417.699 0.131989 418.46 0.440453 419.076 1.05736C419.692 1.67427 420 2.41818 420 3.2891C420 4.19631 419.692 4.95838 419.076 5.57528C418.46 6.19219 417.699 6.50064 416.793 6.50064H391.14V17.2784H407.717C408.586 17.2784 409.338 17.5868 409.972 18.2037C410.606 18.8206 410.923 19.5646 410.923 20.4355C410.923 21.3427 410.606 22.1047 409.972 22.7216C409.338 23.3385 408.586 23.647 407.717 23.647H391.14V34.2614L416.848 34.4247Z" fill="white"/>
    <path d="M89.1618 10.3687H83.539L85.8595 5.00559L88.0015 0H82.5572H66.849H61.4047H55.8712H50.4268H32.1304L41.234 21.3631L33.4692 39.5084L22.5805 15.3743L15.7082 0H10.2639L33.5584 51.933L44.0008 27.7095L46.6783 21.3631L44.0008 15.0168L39.7167 5.00557H48.2848H53.7291H59.2627H64.707H80.4152L78.0947 10.3687H62.4757H57.0314H51.4086H47.0353L49.2666 15.3743L52.2119 21.8101L49.5343 27.9777L46.8568 34.4134L36.4144 58.9944H30.6131L7.58634 5.00557L5.62283 0H0L27.4001 64H39.7167L49.5344 40.7598L59.4412 64H71.8471L92.4641 15.3743L94.6061 10.3687H89.1618ZM54.7109 15.3743H54.8894H60.3337H75.9526L65.5995 39.5084L57.6562 21.8101L54.8001 15.5531L54.7109 15.3743ZM68.5448 58.9944H62.7435L52.3011 34.4134L54.9786 28.0671L65.6888 51.933L81.397 15.3743H87.0198L68.5448 58.9944Z" fill="white"/>
    <path d="M109.879 64V0H111.247V64H109.879Z" fill="white"/>
</svg>
