<svg width="297" height="139" viewBox="0 0 297 139" fill="none" xmlns="http://www.w3.org/2000/svg">
    <g filter="url(#filter0_d)">
        <path d="M187.162 15.3683H181.539L183.86 10.0052L186.002 4.99963H180.557H164.849H159.405H153.871H148.427H130.13L139.234 26.3628L131.469 44.508L120.581 20.3739L113.708 4.99963H108.264L131.558 56.9326L142.001 32.7091L144.678 26.3628L142.001 20.0164L137.717 10.0052H146.285H151.729H157.263H162.707H178.415L176.095 15.3683H160.476H155.031H149.409H145.035L147.267 20.3739L150.212 26.8097L147.534 32.9773L144.857 39.413L134.414 63.9941H128.613L105.586 10.0052L103.623 4.99963H98L125.4 68.9996H137.717L147.534 45.7594L157.441 68.9996H169.847L190.464 20.3739L192.606 15.3683H187.162ZM152.711 20.3739H152.889H158.334H173.953L163.6 44.508L155.656 26.8097L152.8 20.5527L152.711 20.3739ZM166.545 63.9941H160.743L150.301 39.4131L152.979 33.0667L163.689 56.9326L179.397 20.3739H185.02L166.545 63.9941Z" fill="#0170FE" fill-opacity="0.5"/>
        <path d="M184.089 10.1045L184.089 10.1036L186.231 5.09799L186.38 4.74963H186.002H180.557H164.849H159.405H153.871H148.427H130.13H129.752L129.9 5.09764L138.962 26.3626L131.463 43.8867L120.809 20.2719L120.808 20.2711L113.936 4.89761L113.87 4.74963H113.708H108.264H107.878L108.036 5.10195L131.33 57.0349L131.563 57.5536L131.788 57.0316L142.23 32.8081L142.231 32.8063L144.909 26.46L144.95 26.3628L144.909 26.2656L142.231 19.9192L142.231 19.918L138.096 10.2552H146.285H151.729H157.263H162.707H178.035L175.93 15.1183H160.476H155.031H149.409H145.035H144.65L144.807 15.4701L147.038 20.4757L147.039 20.478L149.938 26.8124L147.305 32.8777L147.305 32.8777L147.304 32.8813L144.627 39.3153L144.626 39.317L134.249 63.7441H128.778L105.818 9.91051L103.856 4.90834L103.793 4.74963H103.623H98H97.621L97.7702 5.09803L125.17 69.098L125.235 69.2496H125.4H137.717H137.883L137.947 69.0969L147.535 46.3994L157.211 69.0977L157.276 69.2496H157.441H169.847H170.013L170.077 69.0972L190.694 20.4723L190.694 20.4715L192.836 15.4667L192.985 15.1183H192.606H187.162H181.92L184.089 10.1045ZM153.107 20.6239H158.334H173.573L163.594 43.886L155.884 26.7073L155.884 26.7059L153.107 20.6239ZM152.986 33.6931L163.461 57.035L163.694 57.5543L163.918 57.0313L179.562 20.6239H184.642L166.379 63.7441H160.909L150.573 39.4127L152.986 33.6931Z" stroke="black" stroke-opacity="0.5" stroke-width="0.5"/>
    </g>
    <g filter="url(#filter1_d)">
        <path d="M48.2845 93.0774C49.1542 93.2588 49.8245 93.7306 50.2955 94.4927C50.7666 95.2547 50.9115 96.0712 50.7304 96.9421L42.6864 131.289C42.5052 131.906 42.1701 132.441 41.6809 132.895C41.1918 133.349 40.6211 133.63 39.9688 133.739H39.534C38.9543 133.739 38.4108 133.585 37.9035 133.276C37.3962 132.968 36.9977 132.559 36.7078 132.051L27.9029 115.558L19.098 132.051C18.7719 132.668 18.31 133.122 17.7121 133.412C17.1142 133.703 16.4892 133.811 15.837 133.739C15.1848 133.63 14.6141 133.349 14.1249 132.895C13.6358 132.441 13.3006 131.906 13.1194 131.289L5.07549 96.9421C4.89432 96.0712 5.03925 95.2547 5.51029 94.4927C5.98133 93.7306 6.63355 93.2588 7.46694 93.0774C8.33656 92.896 9.15182 93.032 9.91274 93.4856C10.6736 93.9393 11.1447 94.6015 11.3259 95.4724L17.4132 121.491L25.0767 107.23C25.3665 106.722 25.7561 106.314 26.2452 106.005C26.7344 105.697 27.287 105.543 27.9029 105.543C28.5189 105.543 29.0715 105.697 29.5607 106.005C30.0498 106.314 30.4393 106.722 30.7292 107.23L38.3384 121.491L44.48 95.4724C44.6612 94.6015 45.1322 93.9392 45.8932 93.4856C46.6541 93.032 47.4512 92.896 48.2846 93.0774H48.2845Z" fill="white"/>
        <path d="M24.8565 107.112L17.506 120.791L11.57 95.4185C11.3741 94.4808 10.8612 93.76 10.0408 93.2709L10.0408 93.2709C9.22584 92.7851 8.34665 92.6385 7.41588 92.8327L7.41587 92.8327L7.41375 92.8331C6.51046 93.0298 5.80232 93.5447 5.29763 94.3612L5.29763 94.3612C4.79321 95.1773 4.63642 96.059 4.83073 96.9931L4.83065 96.9931L4.83208 96.9991L12.876 131.346L12.8756 131.346L12.8796 131.36C13.0739 132.022 13.434 132.595 13.9549 133.078C14.4796 133.565 15.0949 133.868 15.7958 133.985L15.7958 133.986L15.8093 133.987C16.5091 134.065 17.1815 133.948 17.8213 133.637C18.4693 133.322 18.9693 132.83 19.3189 132.169C19.3189 132.168 19.319 132.168 19.3191 132.168L27.9029 116.089L36.4872 132.169L36.4872 132.169L36.4906 132.175C36.8018 132.721 37.2307 133.16 37.7736 133.49C38.3191 133.821 38.9073 133.989 39.534 133.989H39.9688H39.9896L40.01 133.985C40.7109 133.868 41.3262 133.565 41.8509 133.078C42.3718 132.595 42.7319 132.022 42.9263 131.36L42.9266 131.36L42.9298 131.346L50.9738 96.9991L50.9738 96.9992L50.9751 96.9931C51.1694 96.059 51.0126 95.1773 50.5082 94.3612C50.0018 93.542 49.2741 93.029 48.3378 92.8331C47.4398 92.6376 46.5782 92.7862 45.7652 93.2709C44.9448 93.7599 44.4319 94.4807 44.236 95.4182L38.2472 120.789L30.9498 107.112L30.9499 107.112L30.9463 107.106C30.6364 106.563 30.2183 106.124 29.694 105.794C29.1623 105.458 28.5629 105.293 27.9029 105.293C27.243 105.293 26.6436 105.458 26.1119 105.794C25.5876 106.124 25.1695 106.563 24.8595 107.106L24.8595 107.106L24.8565 107.112Z" stroke="black" stroke-opacity="0.5" stroke-width="0.5"/>
        <path d="M87.689 127.424C88.5587 127.424 89.3015 127.733 89.9174 128.35C90.5334 128.967 90.8414 129.729 90.8414 130.636C90.8414 131.507 90.5334 132.251 89.9174 132.868C89.3015 133.485 88.5405 133.793 87.6347 133.793L58.7743 133.63C57.9047 133.63 57.1619 133.321 56.5459 132.704C55.9299 132.087 55.6219 131.325 55.6219 130.418V96.2887C55.6219 95.4178 55.9299 94.6739 56.5459 94.057C57.1619 93.4401 57.9047 93.1316 58.7743 93.1316H87.6347C88.5405 93.1316 89.3015 93.4401 89.9174 94.057C90.5334 94.6739 90.8414 95.4178 90.8414 96.2887C90.8414 97.1959 90.5334 97.958 89.9174 98.5749C89.3015 99.1918 88.5405 99.5003 87.6347 99.5003H61.981V110.278H78.5581C79.4277 110.278 80.1795 110.586 80.8136 111.203C81.4477 111.82 81.7648 112.564 81.7648 113.435C81.7648 114.342 81.4477 115.104 80.8136 115.721C80.1795 116.338 79.4277 116.647 78.5581 116.647H61.981V127.261L87.689 127.424Z" fill="white"/>
        <path d="M87.6333 134.043H87.6347C88.604 134.043 89.4295 133.71 90.0943 133.044C90.7571 132.381 91.0914 131.573 91.0914 130.636C91.0914 129.665 90.7592 128.839 90.0943 128.173C89.4318 127.51 88.6258 127.175 87.69 127.174C87.6897 127.174 87.6894 127.174 87.689 127.174L62.231 127.013V116.897H78.5581C79.4941 116.897 80.3081 116.562 80.988 115.9C81.6718 115.235 82.0148 114.408 82.0148 113.435C82.0148 112.496 81.6696 111.687 80.988 111.024C80.3081 110.363 79.4941 110.028 78.5581 110.028H62.231V99.7503H87.6347C88.604 99.7503 89.4295 99.4174 90.0943 98.7516C90.7592 98.0857 91.0914 97.2592 91.0914 96.2887C91.0914 95.3515 90.7571 94.5441 90.0943 93.8804C89.4295 93.2145 88.604 92.8816 87.6347 92.8816H58.7743C57.8381 92.8816 57.0317 93.2166 56.369 93.8804C55.7063 94.5441 55.3719 95.3515 55.3719 96.2887V130.418C55.3719 131.389 55.7041 132.215 56.369 132.881C57.0316 133.545 57.8377 133.88 58.7736 133.88C58.7738 133.88 58.7741 133.88 58.7743 133.88L87.6333 134.043Z" stroke="black" stroke-opacity="0.5" stroke-width="0.5"/>
        <path d="M127.8 127.207C128.67 127.207 129.422 127.524 130.056 128.159C130.69 128.794 131.007 129.547 131.007 130.418C131.007 131.325 130.69 132.087 130.056 132.704C129.422 133.321 128.67 133.63 127.8 133.63H98.9941C98.1244 133.63 97.3726 133.321 96.7385 132.704C96.1044 132.087 95.7874 131.325 95.7874 130.418V96.2887C95.7874 95.4178 96.1044 94.6739 96.7385 94.057C97.3726 93.4401 98.1244 93.1316 98.9941 93.1316C99.8637 93.1316 100.616 93.4401 101.25 94.057C101.884 94.6739 102.201 95.4178 102.201 96.2887V127.207H127.8Z" fill="white"/>
        <path d="M96.5642 93.8778L96.5642 93.8778C95.8826 94.5409 95.5374 95.3491 95.5374 96.2887V130.418C95.5374 131.391 95.8803 132.218 96.5642 132.884C97.244 133.545 98.0581 133.88 98.9941 133.88H127.8C128.736 133.88 129.55 133.545 130.23 132.884C130.914 132.218 131.257 131.391 131.257 130.418C131.257 129.479 130.912 128.663 130.233 127.983C129.553 127.302 128.738 126.957 127.8 126.957H102.451V96.2887C102.451 95.3491 102.106 94.5409 101.424 93.8778C100.744 93.2164 99.93 92.8816 98.9941 92.8816C98.0581 92.8816 97.244 93.2164 96.5642 93.8778Z" stroke="black" stroke-opacity="0.5" stroke-width="0.5"/>
        <path d="M150.356 133.684C147.566 133.684 144.939 133.149 142.475 132.079C140.011 131.008 137.855 129.556 136.007 127.724C134.159 125.891 132.701 123.741 131.632 121.274C130.563 118.806 130.029 116.175 130.029 113.381C130.029 110.587 130.563 107.956 131.632 105.488C132.701 103.02 134.159 100.861 136.007 99.0105C137.855 97.1598 140.011 95.6992 142.475 94.6287C144.939 93.5582 147.566 93.0229 150.356 93.0229C153.762 93.0229 156.932 93.8122 159.867 95.3908C162.802 96.9693 165.23 99.1557 167.15 101.95C167.658 102.676 167.821 103.474 167.639 104.345C167.458 105.216 167.005 105.905 166.281 106.413C165.556 106.921 164.768 107.085 163.916 106.903C163.065 106.722 162.385 106.268 161.878 105.542C160.574 103.619 158.907 102.122 156.878 101.052C154.849 99.9813 152.675 99.446 150.356 99.446C148.435 99.446 146.633 99.8089 144.948 100.535C143.263 101.26 141.786 102.258 140.518 103.528C139.25 104.799 138.254 106.277 137.529 107.965C136.804 109.652 136.442 111.458 136.442 113.381C136.442 115.304 136.804 117.109 137.529 118.797C138.254 120.484 139.25 121.963 140.518 123.233C141.786 124.503 143.263 125.501 144.948 126.227C146.633 126.953 148.435 127.316 150.356 127.316C152.711 127.316 154.912 126.762 156.959 125.655C159.007 124.549 160.683 122.997 161.987 121.001C162.494 120.276 163.174 119.822 164.025 119.641C164.877 119.459 165.665 119.604 166.389 120.076C167.114 120.584 167.576 121.274 167.775 122.145C167.975 123.015 167.821 123.814 167.313 124.54C165.429 127.406 162.992 129.647 160.003 131.262C157.014 132.877 153.798 133.684 150.356 133.684V133.684Z" fill="white"/>
        <path d="M167.356 101.807C165.413 98.9814 162.956 96.7681 159.986 95.1706C157.013 93.572 153.802 92.7729 150.356 92.7729C147.533 92.7729 144.872 93.3147 142.375 94.3994C139.883 95.4821 137.701 96.9603 135.83 98.8339C133.959 100.707 132.484 102.893 131.402 105.389C130.319 107.889 129.779 110.554 129.779 113.381C129.779 116.208 130.319 118.873 131.402 121.373C132.484 123.869 133.96 126.046 135.831 127.901C137.702 129.757 139.884 131.225 142.375 132.308C144.872 133.393 147.533 133.934 150.356 133.934C153.839 133.934 157.096 133.117 160.122 131.482C163.147 129.848 165.614 127.579 167.52 124.68C168.067 123.896 168.234 123.027 168.019 122.089C167.806 121.158 167.309 120.415 166.533 119.871L166.533 119.871L166.526 119.867C165.745 119.358 164.889 119.201 163.973 119.396C163.058 119.591 162.325 120.082 161.782 120.858L161.782 120.858L161.778 120.865C160.495 122.827 158.85 124.349 156.841 125.436C154.83 126.522 152.67 127.066 150.356 127.066C148.468 127.066 146.699 126.709 145.047 125.997C143.39 125.284 141.94 124.304 140.695 123.057C139.45 121.809 138.471 120.357 137.759 118.698C137.048 117.043 136.692 115.272 136.692 113.381C136.692 111.49 137.048 109.718 137.759 108.063C138.471 106.404 139.45 104.952 140.695 103.705C141.94 102.458 143.39 101.478 145.047 100.764C146.699 100.053 148.468 99.696 150.356 99.696C152.635 99.696 154.769 100.222 156.761 101.273C158.754 102.324 160.39 103.793 161.671 105.683L161.671 105.683L161.673 105.686C162.216 106.462 162.95 106.953 163.864 107.148C164.785 107.344 165.644 107.165 166.424 106.618C167.201 106.073 167.69 105.329 167.884 104.396C168.079 103.458 167.902 102.59 167.356 101.807ZM167.356 101.807C167.356 101.808 167.356 101.808 167.356 101.808L167.15 101.95L167.355 101.807C167.355 101.807 167.355 101.807 167.356 101.807Z" stroke="black" stroke-opacity="0.5" stroke-width="0.5"/>
        <path d="M192.043 133.684C189.253 133.684 186.626 133.149 184.162 132.079C181.698 131.008 179.542 129.556 177.694 127.724C175.846 125.891 174.388 123.741 173.319 121.274C172.25 118.806 171.716 116.175 171.716 113.381C171.716 110.587 172.25 107.956 173.319 105.488C174.388 103.02 175.846 100.861 177.694 99.0105C179.542 97.1598 181.698 95.6992 184.162 94.6287C186.626 93.5582 189.253 93.0229 192.043 93.0229C195.449 93.0229 198.629 93.8122 201.582 95.3908C204.535 96.9693 206.953 99.1557 208.838 101.95C209.997 103.655 210.867 105.47 211.446 107.393C212.026 109.316 212.316 111.312 212.316 113.381C212.316 116.175 211.782 118.806 210.713 121.274C209.644 123.741 208.194 125.891 206.365 127.724C204.535 129.556 202.388 131.008 199.924 132.079C197.46 133.149 194.833 133.684 192.043 133.684V133.684ZM192.043 99.446C190.123 99.446 188.32 99.8089 186.635 100.535C184.95 101.26 183.474 102.258 182.206 103.528C180.937 104.799 179.941 106.277 179.216 107.965C178.492 109.652 178.129 111.458 178.129 113.381C178.129 115.304 178.492 117.109 179.216 118.797C179.941 120.484 180.937 121.963 182.206 123.233C183.474 124.503 184.95 125.501 186.635 126.227C188.32 126.953 190.123 127.316 192.043 127.316C193.963 127.316 195.766 126.953 197.451 126.227C199.136 125.501 200.612 124.503 201.881 123.233C203.149 121.963 204.145 120.484 204.87 118.797C205.595 117.109 205.957 115.304 205.957 113.381C205.957 110.514 205.16 107.901 203.565 105.542C202.261 103.619 200.594 102.122 198.565 101.052C196.536 99.9813 194.362 99.446 192.043 99.446V99.446Z" fill="white"/>
        <path d="M192.043 133.934H192.293V133.933C195.023 133.902 197.601 133.36 200.024 132.308C202.515 131.225 204.689 129.756 206.541 127.901C208.394 126.045 209.861 123.868 210.942 121.373C212.025 118.873 212.566 116.208 212.566 113.381C212.566 111.289 212.273 109.268 211.686 107.321C211.098 105.373 210.218 103.536 209.044 101.81C207.138 98.9821 204.689 96.7681 201.7 95.1703C198.71 93.572 195.489 92.7729 192.043 92.7729C189.22 92.7729 186.559 93.3147 184.063 94.3994C181.571 95.4821 179.388 96.9603 177.517 98.8339C175.647 100.707 174.171 102.893 173.09 105.389C172.007 107.889 171.466 110.554 171.466 113.381C171.466 116.208 172.007 118.873 173.09 121.373C174.171 123.869 175.647 126.046 177.518 127.901C179.389 129.757 181.571 131.225 184.063 132.308C186.559 133.393 189.22 133.934 192.043 133.934ZM186.734 100.764C188.386 100.053 190.155 99.696 192.043 99.696C194.322 99.696 196.456 100.222 198.449 101.273C200.441 102.324 202.077 103.793 203.359 105.683C204.925 108 205.707 110.564 205.707 113.381C205.707 115.272 205.351 117.043 204.64 118.698C203.928 120.357 202.949 121.809 201.704 123.057C200.458 124.304 199.008 125.284 197.352 125.997C195.7 126.709 193.931 127.066 192.043 127.066C190.155 127.066 188.386 126.709 186.734 125.997C185.078 125.284 183.628 124.304 182.382 123.057C181.137 121.809 180.158 120.357 179.446 118.698C178.735 117.043 178.379 115.272 178.379 113.381C178.379 111.49 178.735 109.718 179.446 108.063C180.158 106.404 181.137 104.952 182.382 103.705C183.628 102.458 185.078 101.478 186.734 100.764Z" stroke="black" stroke-opacity="0.5" stroke-width="0.5"/>
        <path d="M249.438 93.2405C250.126 93.4582 250.679 93.8393 251.095 94.3836C251.512 94.9279 251.721 95.563 251.721 96.2888V130.418C251.721 131.325 251.403 132.087 250.769 132.704C250.135 133.321 249.383 133.63 248.514 133.63C247.644 133.63 246.892 133.321 246.258 132.704C245.624 132.087 245.307 131.325 245.307 130.418V106.958L236.937 119.749C236.285 120.693 235.397 121.165 234.274 121.165C233.151 121.165 232.263 120.693 231.611 119.749L223.241 106.958V130.418C223.241 131.325 222.924 132.087 222.289 132.704C221.655 133.321 220.903 133.63 220.034 133.63C219.164 133.63 218.412 133.321 217.778 132.704C217.144 132.087 216.827 131.325 216.827 130.418V96.2888C216.827 95.563 217.036 94.9279 217.452 94.3836C217.869 93.8393 218.421 93.4582 219.11 93.2405C219.798 93.0591 220.469 93.0772 221.121 93.2949C221.773 93.5127 222.298 93.93 222.697 94.5469L234.274 112.183L245.851 94.5469C246.249 93.93 246.775 93.5127 247.427 93.2949C248.079 93.0772 248.749 93.0591 249.438 93.2405V93.2405Z" fill="white"/>
        <path d="M245.057 107.796V130.418C245.057 131.391 245.4 132.218 246.084 132.884C246.764 133.545 247.578 133.88 248.514 133.88C249.45 133.88 250.264 133.545 250.944 132.884C251.628 132.218 251.971 131.391 251.971 130.418V96.2888C251.971 95.5115 251.746 94.8223 251.294 94.2316C250.844 93.6443 250.248 93.2345 249.513 93.0022L249.438 93.2405L249.501 92.9988C248.768 92.8054 248.048 92.8241 247.348 93.0578C246.638 93.2947 246.068 93.7497 245.641 94.4104C245.641 94.4107 245.641 94.411 245.641 94.4112L234.274 111.728L222.907 94.4112C222.907 94.411 222.907 94.4107 222.907 94.4105C222.479 93.7498 221.91 93.2947 221.2 93.0578C220.5 92.8241 219.78 92.8054 219.046 92.9988L219.046 92.9985L219.034 93.0022C218.3 93.2345 217.703 93.6443 217.254 94.2316C216.802 94.8223 216.577 95.5115 216.577 96.2888V130.418C216.577 131.391 216.92 132.218 217.604 132.884C218.284 133.545 219.098 133.88 220.034 133.88C220.97 133.88 221.784 133.545 222.464 132.884C223.148 132.218 223.491 131.391 223.491 130.418V107.796L231.401 119.886L231.401 119.886L231.405 119.891C232.103 120.901 233.066 121.415 234.274 121.415C235.481 121.415 236.445 120.901 237.143 119.891L237.143 119.892L237.146 119.886L245.057 107.796Z" stroke="black" stroke-opacity="0.5" stroke-width="0.5"/>
        <path d="M289.06 127.424C289.929 127.424 290.672 127.733 291.288 128.35C291.904 128.967 292.212 129.729 292.212 130.636C292.212 131.507 291.904 132.251 291.288 132.868C290.672 133.485 289.911 133.793 289.005 133.793L260.145 133.63C259.275 133.63 258.532 133.321 257.917 132.704C257.301 132.087 256.993 131.325 256.993 130.418V96.2887C256.993 95.4178 257.301 94.6739 257.917 94.057C258.532 93.4401 259.275 93.1316 260.145 93.1316H289.005C289.911 93.1316 290.672 93.4401 291.288 94.057C291.904 94.6739 292.212 95.4178 292.212 96.2887C292.212 97.1959 291.904 97.958 291.288 98.5749C290.672 99.1918 289.911 99.5003 289.005 99.5003H263.352V110.278H279.929C280.798 110.278 281.55 110.586 282.184 111.203C282.818 111.82 283.135 112.564 283.135 113.435C283.135 114.342 282.818 115.104 282.184 115.721C281.55 116.338 280.798 116.647 279.929 116.647H263.352V127.261L289.06 127.424Z" fill="white"/>
        <path d="M289.004 134.043H289.005C289.975 134.043 290.8 133.71 291.465 133.044C292.128 132.381 292.462 131.573 292.462 130.636C292.462 129.665 292.13 128.839 291.465 128.173C290.802 127.51 289.996 127.175 289.061 127.174C289.06 127.174 289.06 127.174 289.06 127.174L263.602 127.013V116.897H279.929C280.865 116.897 281.679 116.562 282.359 115.9C283.042 115.235 283.385 114.408 283.385 113.435C283.385 112.496 283.04 111.687 282.359 111.024C281.679 110.363 280.865 110.028 279.929 110.028H263.602V99.7503H289.005C289.975 99.7503 290.8 99.4174 291.465 98.7516C292.13 98.0857 292.462 97.2592 292.462 96.2887C292.462 95.3515 292.128 94.5441 291.465 93.8804C290.8 93.2145 289.975 92.8816 289.005 92.8816H260.145C259.209 92.8816 258.402 93.2166 257.74 93.8804C257.077 94.5441 256.743 95.3515 256.743 96.2887V130.418C256.743 131.389 257.075 132.215 257.74 132.881C258.402 133.545 259.208 133.88 260.144 133.88C260.144 133.88 260.145 133.88 260.145 133.88L289.004 134.043Z" stroke="black" stroke-opacity="0.5" stroke-width="0.5"/>
    </g>
    <g filter="url(#filter2_d)">
        <path d="M271 81.3673L21 81.3673V79.9996L271 79.9996V81.3673Z" fill="white" shape-rendering="crispEdges"/>
        <path d="M271 81.6173H271.25V81.3673V79.9996V79.7496H271L21 79.7496H20.75V79.9996V81.3673V81.6173H21L271 81.6173Z" stroke="black" stroke-opacity="0.5" stroke-width="0.5" shape-rendering="crispEdges"/>
    </g>
    <defs>
        <filter id="filter0_d" x="93.242" y="0.499634" width="104.122" height="73" filterUnits="userSpaceOnUse" color-interpolation-filters="sRGB">
            <feFlood flood-opacity="0" result="BackgroundImageFix"/>
            <feColorMatrix in="SourceAlpha" type="matrix" values="0 0 0 0 0 0 0 0 0 0 0 0 0 0 0 0 0 0 127 0" result="hardAlpha"/>
            <feOffset/>
            <feGaussianBlur stdDeviation="2"/>
            <feComposite in2="hardAlpha" operator="out"/>
            <feColorMatrix type="matrix" values="0 0 0 0 0 0 0 0 0 0 0 0 0 0 0 0 0 0 0.25 0"/>
            <feBlend mode="normal" in2="BackgroundImageFix" result="effect1_dropShadow"/>
            <feBlend mode="normal" in="SourceGraphic" in2="effect1_dropShadow" result="shape"/>
        </filter>
        <filter id="filter1_d" x="0.5" y="88.4996" width="296.212" height="49.7934" filterUnits="userSpaceOnUse" color-interpolation-filters="sRGB">
            <feFlood flood-opacity="0" result="BackgroundImageFix"/>
            <feColorMatrix in="SourceAlpha" type="matrix" values="0 0 0 0 0 0 0 0 0 0 0 0 0 0 0 0 0 0 127 0" result="hardAlpha"/>
            <feOffset/>
            <feGaussianBlur stdDeviation="2"/>
            <feComposite in2="hardAlpha" operator="out"/>
            <feColorMatrix type="matrix" values="0 0 0 0 0 0 0 0 0 0 0 0 0 0 0 0 0 0 0.25 0"/>
            <feBlend mode="normal" in2="BackgroundImageFix" result="effect1_dropShadow"/>
            <feBlend mode="normal" in="SourceGraphic" in2="effect1_dropShadow" result="shape"/>
        </filter>
        <filter id="filter2_d" x="16.5" y="75.4996" width="259" height="10.3677" filterUnits="userSpaceOnUse" color-interpolation-filters="sRGB">
            <feFlood flood-opacity="0" result="BackgroundImageFix"/>
            <feColorMatrix in="SourceAlpha" type="matrix" values="0 0 0 0 0 0 0 0 0 0 0 0 0 0 0 0 0 0 127 0" result="hardAlpha"/>
            <feOffset/>
            <feGaussianBlur stdDeviation="2"/>
            <feComposite in2="hardAlpha" operator="out"/>
            <feColorMatrix type="matrix" values="0 0 0 0 0 0 0 0 0 0 0 0 0 0 0 0 0 0 0.25 0"/>
            <feBlend mode="normal" in2="BackgroundImageFix" result="effect1_dropShadow"/>
            <feBlend mode="normal" in="SourceGraphic" in2="effect1_dropShadow" result="shape"/>
        </filter>
    </defs>
</svg>
