<svg width="16" height="11" viewBox="0 0 16 11" fill="none" xmlns="http://www.w3.org/2000/svg">
    <path d="M15.0792 1.75358H14.1283L14.5208 0.846556L14.883 0H13.9623H11.3057H10.3849H9.44905H8.5283H5.43396L6.97358 3.61298L5.66038 6.68175L3.81887 2.60014L2.6566 0H1.73585L5.67547 8.78302L7.44151 4.68629L7.89434 3.61298L7.44151 2.53967L6.71698 0.846554H8.16604H9.08679H10.0226H10.9434H13.6L13.2075 1.75358H10.566H9.64528H8.69434H7.95471L8.33207 2.60014L8.83019 3.68856L8.37736 4.73164L7.92453 5.82007L6.15849 9.97727H5.17736L1.28302 0.846554L0.950945 0H0L4.63396 10.8238H6.71698L8.37736 6.89339L10.0528 10.8238H12.1509L15.6377 2.60014L16 1.75358H15.0792ZM9.25283 2.60014H9.28301H10.2038H12.8453L11.0943 6.68175L9.75094 3.68857L9.26792 2.63037L9.25283 2.60014ZM11.5924 9.97727H10.6113L8.84528 5.82007L9.29811 4.74676L11.1094 8.78302L13.766 2.60014H14.717L11.5924 9.97727Z" fill="white"/>
</svg>
