<svg width="74" height="54" viewBox="0 0 74 54" fill="none" xmlns="http://www.w3.org/2000/svg">
    <g filter="url(#filter0_d)">
        <path d="M65.317 12.2787H61.5132L63.083 8.65063L64.5321 5.2644H60.849H50.2226H46.5396H42.7962H39.1132H26.7358L32.8943 19.7163L27.6415 31.9914L20.2755 15.6649L15.6264 5.2644H11.9434L27.7019 40.3965L34.766 24.0096L36.5774 19.7163L34.766 15.4231L31.8679 8.65062H37.6642H41.3472H45.0906H48.7736H59.4L57.8302 12.2787H47.2641H43.5811H39.7773H36.8189L38.3283 15.6649L40.3208 20.0187L38.5094 24.191L36.6981 28.5447L29.634 45.1735H25.7094L10.1321 8.65062L8.80378 5.2644H5L23.5359 48.5597H31.8679L38.5094 32.8379L45.2113 48.5597H53.6038L67.5509 15.6649L69 12.2787H65.317ZM42.0113 15.6649H42.1321H45.8151H56.3811L49.3773 31.9914L44.0038 20.0187L42.0717 15.7859L42.0113 15.6649ZM51.3698 45.1735H47.4453L40.3811 28.5447L42.1924 24.2515L49.4377 40.3965L60.0641 15.6649H63.8679L51.3698 45.1735Z" fill="#0170FE" fill-opacity="0.5"/>
        <path d="M26.5059 5.36241L32.6225 19.7161L27.6355 31.3701L20.5037 15.5629L20.5034 15.5621L15.8547 5.16238L15.7885 5.0144H15.6264H11.9434H11.5573L11.7153 5.36672L27.4738 40.4988L27.7064 41.0175L27.9315 40.4954L34.9956 24.1085L34.9964 24.1068L36.8077 19.8135L36.8487 19.7163L36.8077 19.6191L34.9964 15.3259L34.9959 15.3247L32.2468 8.90062H37.6642H41.3472H45.0906H48.7736H59.0194L57.6659 12.0287H47.2641H43.5811H39.7773H36.8189H36.4337L36.5905 12.3805L38.0999 15.7667L38.101 15.769L40.047 20.0213L38.2801 24.0914L38.2801 24.0914L38.2786 24.0949L36.468 28.4469L36.4673 28.4487L29.4685 44.9235H25.8746L10.3635 8.55591L9.03651 5.17311L8.97426 5.0144H8.80378H5H4.62102L4.77018 5.3628L23.306 48.6581L23.3709 48.8097H23.5359H31.8679H32.0337L32.0982 48.657L38.5105 33.4779L44.9813 48.6577L45.0461 48.8097H45.2113H53.6038H53.7693L53.8339 48.6573L67.7808 15.7633L67.7811 15.7625L69.2298 12.3771L69.3789 12.0287H69H65.317H61.8938L63.3125 8.74991L63.3128 8.74898L64.7619 5.36276L64.911 5.0144H64.5321H60.849H50.2226H46.5396H42.7962H39.1132H26.7358H26.3576L26.5059 5.36241ZM42.4054 15.9149H45.8151H56.0018L49.3722 31.3693L44.2318 19.9163L44.2312 19.9149L42.4054 15.9149ZM42.1995 24.8778L49.2096 40.4988L49.4427 41.0182L49.6674 40.4952L60.2288 15.9149H63.4905L51.2042 44.9235H47.6107L40.6526 28.5444L42.1995 24.8778Z" stroke="black" stroke-opacity="0.5" stroke-width="0.5"/>
    </g>
    <defs>
        <filter id="filter0_d" x="0.242035" y="0.764404" width="73.5158" height="52.2953" filterUnits="userSpaceOnUse" color-interpolation-filters="sRGB">
            <feFlood flood-opacity="0" result="BackgroundImageFix"/>
            <feColorMatrix in="SourceAlpha" type="matrix" values="0 0 0 0 0 0 0 0 0 0 0 0 0 0 0 0 0 0 127 0" result="hardAlpha"/>
            <feOffset/>
            <feGaussianBlur stdDeviation="2"/>
            <feComposite in2="hardAlpha" operator="out"/>
            <feColorMatrix type="matrix" values="0 0 0 0 0 0 0 0 0 0 0 0 0 0 0 0 0 0 0.25 0"/>
            <feBlend mode="normal" in2="BackgroundImageFix" result="effect1_dropShadow"/>
            <feBlend mode="normal" in="SourceGraphic" in2="effect1_dropShadow" result="shape"/>
        </filter>
    </defs>
</svg>
