<svg width="64" height="44" viewBox="0 0 64 44" fill="none" xmlns="http://www.w3.org/2000/svg">
    <path d="M60.317 7.01432H56.5132L58.083 3.38623L59.5321 0H55.849H45.2226H41.5396H37.7962H34.1132H21.7358L27.8943 14.4519L22.6415 26.727L15.2755 10.4005L10.6264 0H6.9434L22.7019 35.1321L29.766 18.7452L31.5774 14.4519L29.766 10.1587L26.8679 3.38622H32.6642H36.3472H40.0906H43.7736H54.4L52.8302 7.01432H42.2641H38.5811H34.7773H31.8189L33.3283 10.4005L35.3208 14.7543L33.5094 18.9266L31.6981 23.2803L24.634 39.9091H20.7094L5.13208 3.38622L3.80378 0H0L18.5359 43.2953H26.8679L33.5094 27.5735L40.2113 43.2953H48.6038L62.5509 10.4005L64 7.01432H60.317ZM37.0113 10.4005H37.1321H40.8151H51.3811L44.3773 26.727L39.0038 14.7543L37.0717 10.5215L37.0113 10.4005ZM46.3698 39.9091H42.4453L35.3811 23.2803L37.1924 18.987L44.4377 35.1321L55.0641 10.4005H58.8679L46.3698 39.9091Z" fill="white"/>
</svg>
