<svg width="64" height="64" viewBox="0 0 64 64" fill="none" xmlns="http://www.w3.org/2000/svg">
    <rect width="64" height="64" rx="10" fill="#0170FE"/>
    <path d="M56.5305 19.4145H53.259L54.6092 16.2942L55.8554 13.3818H52.6878H43.5485H40.3809H37.1614H33.9938H23.3486L28.6452 25.8113L24.1275 36.3685L17.7923 22.3269L13.7939 13.3818H10.6263L24.1794 43.5974L30.255 29.5037L31.8128 25.8113L30.255 22.1188L27.7625 16.2942H32.7475H35.9151H39.1347H42.3023H51.4416L50.0914 19.4145H41.0041H37.8365H34.565H32.0205L33.3187 22.3269L35.0324 26.0713L33.4745 29.6597L31.9167 33.4042L25.8411 47.7058H22.4658L9.06841 16.2942L7.926 13.3818H4.65454L20.5964 50.6182H27.7625L33.4745 37.0966L39.2385 50.6182H46.4565L58.4518 22.3269L59.6981 19.4145H56.5305ZM36.4863 22.3269H36.5902H39.7578H48.8452L42.8215 36.3685L38.2 26.0713L36.5383 22.4309L36.4863 22.3269ZM44.5352 47.7058H41.1598L35.0843 33.4042L36.6421 29.7117L42.8735 43.5974L52.0128 22.3269H55.2842L44.5352 47.7058Z" fill="white"/>
</svg>
