<svg width="110" height="110" viewBox="0 0 110 110" fill="none" xmlns="http://www.w3.org/2000/svg">
    <rect width="110" height="110" rx="10" fill="#0170FE"/>
    <path d="M97.1618 33.3687H91.539L93.8595 28.0056L96.0015 23H90.5572H74.849H69.4047H63.8712H58.4268H40.1304L49.234 44.3631L41.4692 62.5084L30.5805 38.3743L23.7082 23H18.2639L41.5584 74.933L52.0008 50.7095L54.6783 44.3631L52.0008 38.0168L47.7167 28.0056H56.2848H61.7291H67.2627H72.707H88.4152L86.0947 33.3687H70.4757H65.0314H59.4086H55.0353L57.2666 38.3743L60.2119 44.8101L57.5343 50.9777L54.8568 57.4134L44.4144 81.9944H38.6131L15.5863 28.0056L13.6228 23H8L35.4001 87H47.7167L57.5344 63.7598L67.4412 87H79.8471L100.464 38.3743L102.606 33.3687H97.1618ZM62.7109 38.3743H62.8894H68.3337H83.9526L73.5995 62.5084L65.6562 44.8101L62.8001 38.5531L62.7109 38.3743ZM76.5448 81.9944H70.7435L60.3011 57.4134L62.9786 51.0671L73.6888 74.933L89.397 38.3743H95.0198L76.5448 81.9944Z" fill="white"/>
</svg>
