<svg width="32" height="32" viewBox="0 0 32 32" fill="none" xmlns="http://www.w3.org/2000/svg">
    <rect width="32" height="32" rx="5" fill="#0170FE"/>
    <path d="M28.2652 9.70726H26.6295L27.3046 8.14708L27.9277 6.69091H26.3439H21.7743H20.1905H18.5807H16.9969H11.6743L14.3226 12.9056L12.0638 18.1843L8.89615 11.1634L6.89693 6.69091H5.31313L12.0897 21.7987L15.1275 14.7519L15.9064 12.9056L15.1275 11.0594L13.8812 8.14708H16.3738H17.9576H19.5673H21.1511H25.7208L25.0457 9.70726H20.502H18.9182H17.2825H16.0103L16.6594 11.1634L17.5162 13.0357L16.7373 14.8299L15.9583 16.7021L12.9206 23.8529H11.2329L4.53421 8.14708L3.963 6.69091H2.32727L10.2982 25.3091H13.8812L16.7373 18.5483L19.6193 25.3091H23.2283L29.2259 11.1634L29.8491 9.70726H28.2652ZM18.2432 11.1634H18.2951H19.8789H24.4226L21.4108 18.1843L19.1 13.0357L18.2691 11.2154L18.2432 11.1634ZM22.2676 23.8529H20.5799L17.5421 16.7021L18.3211 14.8559L21.4367 21.7987L26.0064 11.1634H27.6421L22.2676 23.8529Z" fill="white"/>
</svg>
